<svg width="559.15" height="397.55" xmlns="http://www.w3.org/2000/svg">
    <g>
        <rect x="0" class="cls-1" y="-0.45" width="559.28" height="397.50999" fill="#24356f" id="svg_1"/>
        <path class="cls-2" d="m416.87,319.71l10.9,77.84l39.05,0c-2.81,-50.3 -7.92,-130.32 -13.61,-164.35l-28.16,49.25l-8.18,37.26z" fill="#6657a5" id="svg_2"/>
        <path class="cls-2" d="m381.41,234.36c-9.66,43.41 -18.78,115.84 -24.19,163.19l43.72,0l17.06,-77.84l7,-37.26l28.16,-49.25l-71.75,1.16z" fill="#6657a5" id="svg_3"/>
        <polyline class="cls-3" points="417.48 322.68 424.29 280.38 434.93 273.37" fill="none" stroke="#20181f" stroke-linecap="round" stroke-linejoin="round" stroke-width="1.05px" id="svg_4"/>
        <path class="cls-4" d="m395.76,145.34a16.55,16.55 0 0 0 -22.23,-3.34l-69.61,42.16a17.81,17.81 0 0 0 -5,24.24l0,0c5.55,8.79 12.55,10.6 20.88,4.36c7.38,-5.53 72.35,-39.52 77.69,-43.54c7.41,-5.61 4.1,-16.59 -1.73,-23.88z" fill="#fff" id="svg_5"/>
        <path class="cls-4" d="m371.17,250.74l-49.61,-61.22a14.84,14.84 0 0 0 -21.47,-0.54l0,0c-6.07,6 -4.52,17.78 1.9,23.46l56.82,49.09l12.36,-10.79z" fill="#fff" id="svg_6"/>
        <path class="cls-5" d="m400.78,255.1l-14.72,-8.19l1.6,-3.24a2.91,2.91 0 0 0 -4.31,-3.66l-14.59,10.36l-9.95,11.16c7.85,7.24 13.15,7.35 16.25,6.12l1.05,0.39l12.34,4a2.37,2.37 0 0 0 3.1,-1c0.44,-0.8 0.64,-2.1 -1.72,-3.41l2.36,1.31a2.47,2.47 0 0 0 3.25,-1.09c0.57,-1 0,-2.46 -1.41,-3.43l1.81,0.79a2.53,2.53 0 0 0 3.45,-1.37a2.62,2.62 0 0 0 -1.25,-3.2l-2.6,-1.44l3.12,0.88a2.76,2.76 0 0 0 3.61,-1.65a2.86,2.86 0 0 0 -1.39,-3.33z" fill="#f8a9a3" id="svg_7"/>
        <path class="cls-4" d="m440.84,145.25c4.68,-6.74 13,-8.17 19.2,-3.29l60,42.3c6.84,5.42 8.74,16.14 4.3,24.25l0,0c-4.82,8.78 -10.86,10.57 -18,4.32c-6.36,-5.55 -62.36,-39.67 -66.95,-43.7c-6.48,-5.63 -3.6,-16.61 1.45,-23.88z" fill="#fff" id="svg_8"/>
        <path class="cls-4" d="m461.81,250.69l43,-61.11c4.92,-6.26 13.36,-6.49 18.53,-0.5l0,0c5.22,6 3.86,17.79 -1.7,23.45l-49.15,49l-10.68,-10.84z" fill="#fff" id="svg_9"/>
        <path class="cls-5" d="m436.25,255l12.75,-8.16l-1.37,-3.24a3.27,3.27 0 0 1 0.6,-3.47a2.26,2.26 0 0 1 3.13,-0.19l12.57,10.39l8.56,11.18c-6.79,7.22 -11.36,7.32 -14,6.09c-0.3,0.13 -0.6,0.27 -0.91,0.39l-10.65,4a1.92,1.92 0 0 1 -2.68,-1c-0.38,-0.8 -0.54,-2.1 1.49,-3.4l-2,1.3a2,2 0 0 1 -2.8,-1.09a3,3 0 0 1 1.22,-3.43l-1.57,0.78a2.08,2.08 0 0 1 -3,-1.37a2.82,2.82 0 0 1 1.09,-3.2l2.24,-1.43l-2.69,0.87a2.3,2.3 0 0 1 -3.11,-1.66a3,3 0 0 1 1.13,-3.36z" fill="#f8a9a3" id="svg_10"/>
        <path class="cls-4" d="m377.88,139.9s17.36,-6.9 43.53,-6.9s41.73,11.48 41.73,11.48l-9.93,88.73l-71.8,1.16l-11.87,-63.82l8.34,-30.65z" fill="#fff" id="svg_11"/>
        <line class="cls-3" x1="458.93" y1="182.05" x2="460.54" y2="167.64" fill="none" stroke="#20181f" stroke-linecap="round" stroke-linejoin="round" stroke-width="1.05px" id="svg_12"/>
        <path class="cls-6" d="m391.44,87.46s-16.43,-25.08 3.35,-28c11.81,-1.69 15.21,-5.4 29.66,-10.46c16.71,-5.85 39.7,12.85 14.91,31.39l-38.73,-8.39l-9.19,15.46z" fill="#4d2f3c" id="svg_13"/>
        <circle class="cls-7" cx="496.95" cy="427.92" r="9.01" fill="#e88585" transform="rotate(-45 61.74 334.97)" id="svg_14"/>
        <path class="cls-8" d="m426.5,104.08l0.44,30.93c0.07,8.7 -5.9,9.35 -14.46,9.35l0,0c-7.31,0 -11,-2.64 -11.93,-9.89l1.21,-32.89l24.74,2.5z" fill="#f69fa1" id="svg_15"/>
        <polygon class="cls-9" points="426.9 131.81 406.58 117.23 426.63 111.47 426.9 131.81" fill="#20181f" id="svg_16"/>
        <path class="cls-8" d="m417.19,119.83l1.75,0a21.08,21.08 0 0 0 21.06,-21.77l-0.71,-21.62a22,22 0 0 0 -22,-21.25l0,0c-12.13,0 -24.09,9.84 -24.09,22l1,20.86a22.93,22.93 0 0 0 22.99,21.78z" fill="#f69fa1" id="svg_17"/>
        <polyline class="cls-10" points="427.58 90.99 429.02 99.2 426.13 99.2" fill="none" stroke="#20181f" stroke-linecap="round" stroke-linejoin="round" stroke-width="1.23px" id="svg_18"/>
        <path class="cls-9" d="m416.24,81.38s4.86,-0.57 5,1.45c0,0 0,1.37 -4.2,1.78s-5.36,0.13 -5.79,-1.14s2.75,-2 4.99,-2.09z" fill="#20181f" id="svg_19"/>
        <path class="cls-9" d="m434.85,81.27s-4,-0.29 -4.3,1.62c0,0 -0.15,1.29 3.38,1.46s4.66,-0.32 5,-1.37s-2.17,-1.75 -4.08,-1.71z" fill="#20181f" id="svg_20"/>
        <path class="cls-4" d="m429.54,103l-13.61,0s0,4.76 7.87,4.77a5.47,5.47 0 0 0 5.74,-4.77z" fill="#fff" id="svg_21"/>
        <path class="cls-10" d="m420.44,91a5.34,5.34 0 0 0 -5.59,0" fill="none" stroke="#20181f" stroke-linecap="round" stroke-linejoin="round" stroke-width="1.23px" id="svg_22"/>
        <path class="cls-10" d="m436.75,91s-1.6,-1.74 -4.81,0" fill="none" stroke="#20181f" stroke-linecap="round" stroke-linejoin="round" stroke-width="1.23px" id="svg_23"/>
        <path class="cls-6" d="m397.16,93s13.84,-8.76 8.84,-21.14c0,0 22.42,-10.81 32.72,0.46l2.76,-14.41l-17.7,-7.16l-27.69,10.94l-7.15,10.69l2.41,13.79l5.81,6.83z" fill="#4d2f3c" id="svg_24"/>
        <circle class="cls-8" cx="546.54001" cy="511.49999" r="9.01" fill="#f69fa1" transform="rotate(-67.38 155.1 418.55)" id="svg_25"/>
        <path class="cls-10" d="m394.59,95.63s0,-6.53 -6.24,-5.5" fill="none" stroke="#20181f" stroke-linecap="round" stroke-linejoin="round" stroke-width="1.23px" id="svg_26"/>
        <polygon class="cls-2" points="406.14 144.98 413.36 151.65 421.37 142.49 413.36 141.24 406.14 144.98" fill="#6657a5" id="svg_27"/>
        <polygon class="cls-2" points="411.92 150.28 404.03 216.02 413.58 226.85 422.22 215.89 414.56 150.01 411.92 150.28" fill="#6657a5" id="svg_28"/>
        <polygon class="cls-11" points="400.66 131.43 413.36 141.24 404.88 151.65 392.39 135.89 400.66 131.43" fill="#f3eded" id="svg_29"/>
        <polygon class="cls-11" points="426.9 131.81 413.36 141.24 421.83 151.65 434.72 135.89 426.9 131.81" fill="#f3eded" id="svg_30"/>
        <path class="cls-4" d="m160.51,150.83a11.83,11.83 0 0 1 23.13,-5c1.12,4.65 1.9,12.82 2.64,21.51l-24.35,7.44l-1.42,-23.95z" fill="#fff" id="svg_31"/>
        <path class="cls-5" d="m161.93,174.81l24.35,-7.44l3.22,33.54a11.43,11.43 0 0 1 -10,12.31l-0.22,0l0,0a12.73,12.73 0 0 1 -14.5,-10.22l-2.85,-28.19z" fill="#f8a9a3" id="svg_32"/>
        <path class="cls-5" d="m197.94,295.19l-9.48,-105.07s-4.43,1 -10.41,2l0,0a10.62,10.62 0 0 0 -8.68,12.88l15.63,90.41l12.94,-0.22z" fill="#f8a9a3" id="svg_33"/>
        <path class="cls-5" d="m181.62,293.43a12.73,12.73 0 1 1 7.19,16.5a12.74,12.74 0 0 1 -7.19,-16.5z" fill="#f8a9a3" id="svg_34"/>
        <path class="cls-5" d="m200.54,307.83s3.39,3.7 6.3,-2.31s2.81,-13.68 -8.71,-19.29l2.41,21.6z" fill="#f8a9a3" id="svg_35"/>
        <path class="cls-12" d="m121.11,81l50.06,11.34s18.6,26.38 9,64.09l-83,0s-6.78,-15.18 8.22,-36.2c9.21,-12.92 15.72,-39.23 15.72,-39.23" fill="#ec76ae" id="svg_36"/>
        <path class="cls-13" d="m149.84,335.82l12.6,61.73l43.27,0c-2.5,-20.37 -6.22,-47 -11.74,-79.9c-14.67,-87.53 -24,-108.56 -24,-108.56l-32.57,-5.85l-3.6,5.25l28.17,0.88l-12.13,126.45z" fill="#547fc0" id="svg_37"/>
        <path class="cls-13" d="m133.78,208.49l-12.57,-0.39s-21.46,22.9 -22.58,65.24c-0.75,28.25 0,83 0.81,124.21l44.49,0l5.91,-61.73l12.16,-126.45l-28.22,-0.88z" fill="#547fc0" id="svg_38"/>
        <line class="cls-3" x1="149.84" y1="335.82" x2="155.56" y2="252.27" fill="none" stroke="#20181f" stroke-linecap="round" stroke-linejoin="round" stroke-width="1.05px" id="svg_39"/>
        <line class="cls-3" x1="155.56" y1="252.27" x2="165.7" y2="244.31" fill="none" stroke="#20181f" stroke-linecap="round" stroke-linejoin="round" stroke-width="1.05px" id="svg_40"/>
        <path class="cls-4" d="m145.75,134.22l-31,4.33a6.4,6.4 0 0 0 -5.41,7.45l10.74,63.09l49.92,0l13,-60.6a9.51,9.51 0 0 0 -8.33,-11.13l-28.92,-3.14z" fill="#fff" id="svg_41"/>
        <line class="cls-3" x1="178.38" y1="169.78" x2="181.99" y2="154.13" fill="none" stroke="#20181f" stroke-linecap="round" stroke-linejoin="round" stroke-width="1.05px" id="svg_42"/>
        <path class="cls-5" d="m87.87,149.51l11.24,31.13s-34.78,11.7 -42.42,16.36c-8.62,5.26 -15.23,2.88 -19.79,-6.14l0,0a17.31,17.31 0 0 1 7.11,-23l43.86,-18.35z" fill="#f8a9a3" id="svg_43"/>
        <path class="cls-4" d="m109.62,140.4a16.06,16.06 0 0 1 21.18,5.27c5,7.58 7.15,18.5 -0.57,23.24c-5.53,3.4 -31.12,11.73 -31.12,11.73l-11.24,-31.13l21.75,-9.11z" fill="#fff" id="svg_44"/>
        <line class="cls-3" x1="113.86" y1="175.6" x2="124.87" y2="171.1" fill="none" stroke="#20181f" stroke-linecap="round" stroke-linejoin="round" stroke-width="1.05px" id="svg_45"/>
        <path class="cls-5" d="m102.89,238.45l-42.32,-63.75a14.41,14.41 0 0 0 -20.71,-2.5l0,0c-6.42,5.28 -6,16.78 -0.32,22.85l50.46,52.69l12.89,-9.29z" fill="#f8a9a3" id="svg_46"/>
        <path class="cls-5" d="m131.11,245.39l-13.47,-9.27l1.84,-3a2.83,2.83 0 0 0 -3.83,-3.94l-15.05,8.67l-10.6,9.89c6.91,7.72 12,8.32 15.14,7.41c0.33,0.16 0.65,0.34 1,0.48l11.55,5a2.32,2.32 0 0 0 3.1,-0.67c0.5,-0.73 0.8,-2 -1.35,-3.45l2.15,1.48a2.4,2.4 0 0 0 3.24,-0.75c0.66,-1 0.2,-2.39 -1,-3.45l1.68,0.93a2.46,2.46 0 0 0 3.46,-1a2.56,2.56 0 0 0 -0.91,-3.21l-2.39,-1.63l2.94,1.14a2.67,2.67 0 0 0 3.64,-1.26a2.78,2.78 0 0 0 -1.14,-3.37z" fill="#f8a9a3" id="svg_47"/>
        <path class="cls-14" d="m163.81,93a8.78,8.78 0 1 0 9.36,-8.14a8.77,8.77 0 0 0 -9.36,8.14z" fill="#ee918f" id="svg_48"/>
        <path class="cls-12" d="m150.64,61c1.11,-1.94 -0.32,-5.59 -0.32,-5.59c-11,0 -20.44,3.52 -25.89,13.55c-8,14.75 -2.2,37.56 16.68,44.5c18.12,6.66 8.47,-50.6 8.47,-50.6l1.06,-1.86z" fill="#ec76ae" id="svg_49"/>
        <path class="cls-5" d="m161,117.14l-1.22,19.09c-0.41,6.7 -4.76,10 -11.35,9.57l0,0c-5.63,-0.39 -10.72,-3.67 -11,-9.3l3.35,-29.94l20.22,10.58z" fill="#f8a9a3" id="svg_50"/>
        <polygon class="cls-9" points="160.15 133.05 137.84 111.22 161.15 115.19 160.15 133.05" fill="#20181f" id="svg_51"/>
        <path class="cls-5" d="m155.18,120.23l0,0c11.27,0 20.58,-8.85 20.92,-18l0.66,-21.73a21.4,21.4 0 0 0 -19.9,-22.13l0,0c-8.66,-0.65 -24.38,12.22 -24.86,19.63l-0.34,17.48c-0.31,13.52 10.03,23.81 23.52,24.75z" fill="#f8a9a3" id="svg_52"/>
        <path class="cls-15" d="m150.27,55.48l0.16,0l-0.16,0z" fill="#f7de9e" id="svg_53"/>
        <path class="cls-12" d="m176.32,75.26c0.47,-11.34 -9.46,-18.43 -16.91,-20.24a33.77,33.77 0 0 0 -18.72,0.72c-7.21,2.41 -15,7.79 -9.69,19.6c-3.48,1.72 -6.57,3.67 -6.57,3.67l13,15.53s0.93,-4.27 2.29,-13.4c6.77,-2.68 6.51,-6.63 7.21,-10.89a115.35,115.35 0 0 0 29.39,5.01z" fill="#ec76ae" id="svg_54"/>
        <path class="cls-5" d="m121.09,93a8.78,8.78 0 1 0 9.36,-8.14a8.77,8.77 0 0 0 -9.36,8.14z" fill="#f8a9a3" id="svg_55"/>
        <path class="cls-16" d="m132.72,96.46s0.44,-6.35 -5.69,-5.77" fill="none" stroke="#20181f" stroke-linecap="round" stroke-linejoin="round" stroke-width="1.18px" id="svg_56"/>
        <polyline class="cls-16" points="163.84 94.37 164.53 100.11 161.56 100.22" fill="none" stroke="#20181f" stroke-linecap="round" stroke-linejoin="round" stroke-width="1.18px" id="svg_57"/>
        <path class="cls-9" d="m150.8,82.58s5.06,-0.41 5.11,1.65c0,0 0,1.39 -4.42,1.67s-5.56,-0.05 -6,-1.36s2.94,-1.94 5.31,-1.96z" fill="#20181f" id="svg_58"/>
        <path class="cls-9" d="m171.18,83.14s-4.18,-0.43 -4.52,1.5c0,0 -0.2,1.31 3.46,1.6s4.84,-0.16 5.19,-1.22s-2.15,-1.85 -4.13,-1.88z" fill="#20181f" id="svg_59"/>
        <path class="cls-9" d="m150.47,91.36a1.9,1.9 0 1 0 2,-1.84a1.9,1.9 0 0 0 -2,1.84z" fill="#20181f" id="svg_60"/>
        <path class="cls-9" d="m168,91.36a1.89,1.89 0 0 0 1.83,2a1.9,1.9 0 1 0 -1.83,-2z" fill="#20181f" id="svg_61"/>
        <path class="cls-16" d="m163.18,105.29s-6.3,1.76 -9.57,-2.8" fill="none" stroke="#20181f" stroke-linecap="round" stroke-linejoin="round" stroke-width="1.18px" id="svg_62"/>
        <line class="cls-17" x1="165.01" y1="90.29" x2="160.76" y2="90.29" fill="none" stroke="#fff" stroke-miterlimit="10" stroke-width="1.34px" id="svg_63"/>
        <line class="cls-17" x1="143.17" y1="90.29" x2="137.84" y2="90.29" fill="none" stroke="#fff" stroke-miterlimit="10" stroke-width="1.34px" id="svg_64"/>
        <circle class="cls-17" cx="135.24" cy="127.57" r="8.75" fill="none" stroke="#fff" stroke-miterlimit="10" stroke-width="1.34px" transform="rotate(-13.33 -16.68 37.45)" id="svg_65"/>
        <circle class="cls-18" cx="160.58" cy="238.30001" r="8.22" fill="none" stroke="#fff" stroke-miterlimit="10" stroke-width="1.32px" transform="rotate(-45 -12.62 148.71)" id="svg_66"/>
        <path class="cls-6" d="m313.82,238.65l-77.06,3.2c-8.18,32.4 -12.48,104.93 -14.58,155.7l50.32,0l8.5,-65.88l11.41,65.88l47.09,0c-8.33,-56.72 -21.41,-143.4 -25.68,-158.9z" fill="#4d2f3c" id="svg_67"/>
        <polyline class="cls-3" points="280.96 331.67 287.28 283.08 302.31 275.87" fill="none" stroke="#20181f" stroke-linecap="round" stroke-linejoin="round" stroke-width="1.05px" id="svg_68"/>
        <path class="cls-2" d="m213.49,142.36s35.07,-13 66.06,-14c0,0 16.49,-1 44.47,6.42a2.14,2.14 0 0 1 1.57,2.31l-11.77,101.56l-77.39,3.2l-22.94,-99.49z" fill="#6657a5" id="svg_69"/>
        <polygon class="cls-2" points="248.47 235.36 328.76 200.29 277.53 192.36 247.34 203.92 248.47 235.36" fill="#6657a5" id="svg_70"/>
        <path class="cls-2" d="m202.13,166.65c4.25,18.19 21.88,57.9 21.88,57.9a18.76,18.76 0 0 0 24.46,10.81l0,0a18.76,18.76 0 0 0 10.63,-24.1l-22,-57.87a18.72,18.72 0 0 0 -25.57,-10.24l0,0c-8.74,4.19 -11.61,14.03 -9.4,23.5z" fill="#6657a5" id="svg_71"/>
        <line class="cls-3" x1="247.98" y1="181.97" x2="238.29" y2="156.43" fill="none" stroke="#20181f" stroke-linecap="round" stroke-linejoin="round" stroke-width="1.05px" id="svg_72"/>
        <path class="cls-2" d="m305.85,166.08c11.17,15 40.91,39.71 40.91,39.71a18.76,18.76 0 0 0 26.74,0.13l0,0c7.23,-7.28 7.28,-16.71 0.11,-24l-41,-42a18.72,18.72 0 0 0 -27.53,0.84l0,0c-6.34,7.35 -5.08,17.52 0.77,25.32z" fill="#6657a5" id="svg_73"/>
        <path class="cls-8" d="m319.53,177s1.76,-9.54 15.76,-12.92l15,10.51l-5.29,4.7l-25.47,-2.29z" fill="#f69fa1" id="svg_74"/>
        <polygon class="cls-8" points="266.39 174.61 247.98 181.97 255.18 200.92 265.19 197.08 266.39 174.61" fill="#f69fa1" id="svg_75"/>
        <polygon class="cls-2" points="266.39 174.61 368.35 180.69 362.1 211.35 265.19 197.08 266.39 174.61" fill="#6657a5" id="svg_76"/>
        <polyline class="cls-3" points="266.39 174.61 319.53 177.02 323.2 151.18" fill="none" stroke="#20181f" stroke-linecap="round" stroke-linejoin="round" stroke-width="1.05px" id="svg_77"/>
        <polyline class="cls-3" points="266.39 227.53 317.5 205.17 265.19 197.08" fill="none" stroke="#20181f" stroke-linecap="round" stroke-linejoin="round" stroke-width="1.05px" id="svg_78"/>
        <path class="cls-6" d="m263.45,49.11c-5.31,0.35 -23.33,4.6 -17.3,22.41c7.29,21.53 10.85,24.28 10.85,24.28l-0.6,-32l7.05,-14.69z" fill="#4d2f3c" id="svg_79"/>
        <path class="cls-6" d="m298.6,50.63s21.06,6.17 5.55,29.37l-21.36,-24.18l15.81,-5.19z" fill="#4d2f3c" id="svg_80"/>
        <path class="cls-7" d="m292.34,87.24a9,9 0 0 0 8.66,9.26a8.88,8.88 0 0 0 8.94,-8.9a9,9 0 0 0 -8.65,-9.26a8.88,8.88 0 0 0 -8.95,8.9z" fill="#e88585" id="svg_81"/>
        <path class="cls-8" d="m290.52,105.81l1.2,23.64c0.41,8 -4.19,11.59 -11.81,11.89l0,0c-6.5,0.26 -13.8,-2.53 -13.87,-9.59l-0.12,-35.87l24.6,9.93z" fill="#f69fa1" id="svg_82"/>
        <path class="cls-9" d="m291.58,125.76l-27.53,-17.88c-0.8,-6.78 26.4,-4.41 26.4,-4.41l1.13,22.29z" fill="#20181f" id="svg_83"/>
        <path class="cls-8" d="m282.51,115.51l0,0c12.39,-0.6 22.1,-11.19 21.94,-21.64l-0.45,-21.87c-0.2,-13.11 -10.44,-23.72 -23.14,-24l0,0c-13,-0.27 -26,10.34 -26.2,23.75l0.56,17c0.48,15.4 12.43,26.45 27.29,26.76z" fill="#f69fa1" id="svg_84"/>
        <path class="cls-9" d="m278,71.65s6.68,-1.33 6.94,0.61c0,0 0.15,1.32 -3.87,2s-7.2,0.95 -7.7,-0.25s2.44,-2.11 4.63,-2.36z" fill="#20181f" id="svg_85"/>
        <path class="cls-9" d="m297.31,74.25s5.9,0.17 5.72,2.13c0,0 0.75,1.33 -3.32,1.13s-6.09,-0.6 -6.32,-1.88s1.74,-1.63 3.92,-1.38z" fill="#20181f" id="svg_86"/>
        <path class="cls-19" d="m281.27,95.85c0,0.35 3.66,3.55 8.74,2" fill="none" stroke="#20181f" stroke-linecap="round" stroke-linejoin="round" stroke-width="1.25px" id="svg_87"/>
        <path class="cls-9" d="m296.34,83.48a2,2 0 1 0 2,-2.09a2.06,2.06 0 0 0 -2,2.09z" fill="#20181f" id="svg_88"/>
        <path class="cls-9" d="m277.27,84.53a2,2 0 1 0 2.16,-1.91a2,2 0 0 0 -2.16,1.91z" fill="#20181f" id="svg_89"/>
        <path class="cls-19" d="m291.21,86.35l2.83,5a0.83,0.83 0 0 1 -0.15,1.08l-1.75,0.95" fill="none" stroke="#20181f" stroke-linecap="round" stroke-linejoin="round" stroke-width="1.25px" id="svg_90"/>
        <path class="cls-6" d="m261.06,87.33s-3.87,-18 4.48,-27.14c0,0 34.49,10.46 39.83,-3.57c7.57,-19.91 -14.29,-25.89 -26.77,-19.95a40.5,40.5 0 0 0 -15.15,12.44s-23.52,5.1 -10.78,31l8.39,7.22z" fill="#4d2f3c" id="svg_91"/>
        <path class="cls-8" d="m243.81,88.94a8.91,8.91 0 0 0 8.57,9.18a8.82,8.82 0 0 0 8.86,-8.82a8.91,8.91 0 0 0 -8.57,-9.17a8.81,8.81 0 0 0 -8.86,8.81z" fill="#f69fa1" id="svg_92"/>
        <path class="cls-19" d="m255.46,91.35s-0.81,-5.87 -6,-5.63" fill="none" stroke="#20181f" stroke-linecap="round" stroke-linejoin="round" stroke-width="1.25px" id="svg_93"/>
        <path class="cls-8" d="m266.39,129.43l-9.2,1.37s11.1,9.2 32.81,15.64l7.44,-17l-12.84,-1.65l-18.21,1.64z" fill="#f69fa1" id="svg_94"/>
    </g>
</svg>