<svg id="Layer_1" data-name="Layer 1" xmlns="http://www.w3.org/2000/svg" viewBox="0 0 766.26 280.63"><g id="Layer_2" data-name="Layer 2"><g id="Layer_1-2" data-name="Layer 1-2"><path d="M524.17,186.29c58.15-15.62,112.37-39.1,161.85-74.67A98.76,98.76,0,0,1,690,122c5,19.55,8.57,39.41,8.87,59.56.51,28.42-2.72,56.23-14.81,82.54-3.42,7.55-7.26,11.28-16.73,11.28-38.09-.1-70.54-14.11-99.26-38a201.29,201.29,0,0,1-43.94-51.09ZM701.53,70.41c-40.51,39-141.38,90.18-186.42,94.42,6.24-36.39,24-65.51,53.2-87.77l-.9-1.12c-5.95,4.73-12.1,9.28-17.64,14.44-21.06,19.8-33.94,44.31-40.21,72.53-.4,1.71-2,3.22-3.63,4.53-4.33-16-.8-30.53,5.78-44.43,8.46-18,22.07-31.95,36.68-45.05a154,154,0,0,1,14.08-11.39c3.23-2.22,3.73-4.53,2.82-8.16-3.33-13.2-4.73-26.41-1.92-39.9,1.1-5.34,2.32-10.39,8.66-12.2C579.29,4.39,586.14,5,592.39,9c.9.6.8,4.14,0,5.65A90,90,0,0,0,581.9,46.44c-.29,2.82,0,5.77,0,9,9.38-1.93,18.29-4,27.12-5.54,20.86-3.63,41.71-5.14,62.37,1.51,11.7,3.7,22,9.71,30.14,19Zm-486-1.12h33.35c.11,1.82.41,3.42.41,5V179.47c0,2.53.6,5-3.23,5.85-19.64,4.23-39.3,7.55-59.45,5-23.28-2.89-37.18-16.73-39-40.42-1.41-18.34-.91-36.89-1.21-55.33-.1-8.26,0-16.52,0-25.19h34.06v6c0,20.66,0,41.39.2,62.07a54.62,54.62,0,0,0,2,12.7c1.61,7.35,7.06,11,14,11.79,6,.61,12.19.1,18.84.1ZM48.06,188.14H14.77c-.1-1.85-.3-3.47-.3-5.18,0-34.77.1-69.73-.1-104.55,0-4.48,1.41-5.9,5.54-6.73,19.35-4.24,38.8-6.86,58.45-3.94C102,71.27,114.93,85,116.05,109.06c1.21,25.7.81,51.4,1,77.08a6.32,6.32,0,0,1-.51,1.82H83.2v-5.5c0-20.06.09-40-.11-60.06a73.21,73.21,0,0,0-2-14.81c-1.26-6.15-5.34-10.39-11.49-11.09a109.08,109.08,0,0,0-19-.2c-1,0-2.43,2.88-2.43,4.43-.2,12.2-.09,24.49-.09,36.78Zm389.14-56c-6.07,7.35-12.18,14.57-18.24,22-1.31,1.51-2.31,3.32-4.13,5.78h56.84v28H373.38c.11-10-1.71-19.65,5.44-28.52,14.44-18,28.12-36.68,42.13-55,1.4-1.92,3-3.73,5.23-6.45H376.55V69.29h94.22c0,7.46.5,14.61-.3,21.77-.31,2.62-3.33,5-5.35,7.35-9.27,11.29-18.54,22.48-27.91,33.77m-123.5-98V69h40.42c0,9.17.11,17.84-.2,26.6,0,.71-2.82,2-4.33,2-9.88.2-19.65.1-29.52.1h-5.65a15.91,15.91,0,0,0-.71,2.32c.1,14.81-.2,29.72.41,44.54.5,13.3,6.54,18.54,19.95,17.83,6.65-.3,13.2-1.71,20.16-2.71,1.4,7.46,3,15.21,4.23,23,.19,1-1.41,3-2.63,3.43a74.4,74.4,0,0,1-47.66,2.72c-16.23-4.54-24.78-16-27.1-32.35a128.6,128.6,0,0,1-1.22-17.54c-.09-31.44,0-62.78-.09-94.21,0-4.24,1.31-5.45,5.44-6,9.1-1.11,18.27-2.93,28.5-4.54Z" fill="#010101" fill-rule="evenodd"/><path d="M706.57,95.8C727,157,727.58,215,686,268c2.11-4.23,4.33-8.36,6.34-12.59,12.29-25.1,16.73-51.9,16.73-79.52a247.86,247.86,0,0,0-6.55-57.75c-.81-3.32-1.61-6.73-3.33-9.62-2.21-3.73-1.92-6.15,1.82-8.37,1.93-1.4,3.73-2.82,5.54-4.33Z" fill="#010101" fill-rule="evenodd"/><path d="M217.93,256.22h-3.36v-13.3a9.13,9.13,0,0,0-.31-2.32,3.53,3.53,0,0,0-.81-1.51,3.61,3.61,0,0,0-1.31-.9,5,5,0,0,0-1.71-.31,6.36,6.36,0,0,0-3.32.91,10.69,10.69,0,0,0-2.62,2.62v14.71h-3.4V235.46h2.62l.61,2.89h.09a15.13,15.13,0,0,1,1.22-1.31,5.89,5.89,0,0,1,1.51-1.11,6.89,6.89,0,0,1,1.81-.71,8,8,0,0,1,2.11-.3,6.27,6.27,0,0,1,3.85,1.11,7.63,7.63,0,0,1,2.32,3h.1a11.12,11.12,0,0,1,3.13-3,8.2,8.2,0,0,1,4.13-1.11,9.12,9.12,0,0,1,2.32.3,5.77,5.77,0,0,1,2.21,1.11,6.52,6.52,0,0,1,1.71,2.32,9.18,9.18,0,0,1,.72,3.73v13.81h-3.43V242.92a9.13,9.13,0,0,0-.31-2.32,5.25,5.25,0,0,0-.81-1.51,3.61,3.61,0,0,0-1.31-.9,4.93,4.93,0,0,0-1.71-.31,6.36,6.36,0,0,0-3.32.91,10.87,10.87,0,0,0-2.62,2.62l-.1,14.81Zm34.26,0-.1-2.88a10.32,10.32,0,0,1-3.63,2.52,10.6,10.6,0,0,1-7.05.3,6.25,6.25,0,0,1-2.22-1.31,4.63,4.63,0,0,1-1.31-2,6.69,6.69,0,0,1-.4-2.42,6,6,0,0,1,2.42-5.14c1.61-1.21,4-1.92,7.25-1.92h4.53v-1.93a3.91,3.91,0,0,0-1.2-3.13,5.72,5.72,0,0,0-3.74-1.2,14.64,14.64,0,0,0-3.61.4,23.31,23.31,0,0,0-3.74,1.21V235.3c.51-.2,1-.3,1.62-.5a10.59,10.59,0,0,1,1.92-.41l2-.29a13.69,13.69,0,0,1,2.12-.11,13.88,13.88,0,0,1,3.52.4,6.92,6.92,0,0,1,2.73,1.31,7.54,7.54,0,0,1,1.71,2.22,8.65,8.65,0,0,1,.61,3.22v15Zm-.4-10H247a10.36,10.36,0,0,0-2.42.31,5.48,5.48,0,0,0-1.71.81,3.45,3.45,0,0,0-.91,1.2,4.74,4.74,0,0,0-.3,1.62,4.86,4.86,0,0,0,.2,1.2,2.24,2.24,0,0,0,.6,1,2.76,2.76,0,0,0,1.11.7,4.79,4.79,0,0,0,1.71.31,7,7,0,0,0,3-.74,14.8,14.8,0,0,0,3.52-2.52v-3.85Zm30.53,10h-5.19L267,244.53v11.69h-3.78V225.49h3.73v18.84l9.78-10h5l-10.28,10.07,10.88,11.79Zm15.12-21.88h3.43l.09,3.52a18.51,18.51,0,0,1,1.93-1.93,6.84,6.84,0,0,1,1.71-1.2,4.79,4.79,0,0,1,1.71-.6,11.4,11.4,0,0,1,1.93-.21,6.61,6.61,0,0,1,5.14,2c1.1,1.32,1.71,3.34,1.71,6.06V256.2h-3.72V242.32a6.12,6.12,0,0,0-.92-3.73,3.36,3.36,0,0,0-2.82-1.21,7.38,7.38,0,0,0-1.4.2,6.25,6.25,0,0,0-1.42.7,7,7,0,0,0-1.51,1.42,21.26,21.26,0,0,0-1.92,2.21v14.56h-3.73Zm40.2,3.13a5,5,0,0,1,.92,1.8,7.58,7.58,0,0,1-2,7.76,7.19,7.19,0,0,1-2.73,1.51,10,10,0,0,1-3.42.61,9.71,9.71,0,0,1-2.52-.3,6.36,6.36,0,0,1-1.92-.71,6.75,6.75,0,0,0-.71,1.11,2.67,2.67,0,0,0-.3,1.21,1.59,1.59,0,0,0,.81,1.41,3.66,3.66,0,0,0,2.11.61l5.78.19a15.45,15.45,0,0,1,3,.41,8.7,8.7,0,0,1,2.42,1.11,4.12,4.12,0,0,1,1.51,1.72,4.72,4.72,0,0,1,.6,2.41,6,6,0,0,1-.6,2.72,6.11,6.11,0,0,1-1.93,2.32,12.36,12.36,0,0,1-3.33,1.61,19.51,19.51,0,0,1-4.81.61,23.7,23.7,0,0,1-4.53-.4,8.16,8.16,0,0,1-3-1.22,4.75,4.75,0,0,1-2.32-4,5.45,5.45,0,0,1,.71-2.82,8.4,8.4,0,0,1,2.32-2.32,3.46,3.46,0,0,1-.91-.7,2.75,2.75,0,0,1-.71-.81,3.08,3.08,0,0,1-.39-1,3.14,3.14,0,0,1-.11-1,4.91,4.91,0,0,1,.7-2.62,11.45,11.45,0,0,1,1.62-2.23,4.72,4.72,0,0,1-.7-.9,4.42,4.42,0,0,1-.51-1,2.55,2.55,0,0,1-.3-1.21,6.89,6.89,0,0,1-.11-1.51,7.31,7.31,0,0,1,2.32-5.54,7.19,7.19,0,0,1,2.73-1.51,10.31,10.31,0,0,1,3.52-.61,8.52,8.52,0,0,1,1.51.1c.4.1.91.2,1.31.31h8v3.11l-3.94-.19Zm-13.19,21.89a2.28,2.28,0,0,0,1.6,2.23,11.32,11.32,0,0,0,4.54.7,15.39,15.39,0,0,0,3-.3,12.17,12.17,0,0,0,2-.81,3.23,3.23,0,0,0,1.11-1.21,3.4,3.4,0,0,0,.3-1.41,2,2,0,0,0-1.11-1.92,7.35,7.35,0,0,0-3.32-.7l-5.78-.21-1.21.91a6,6,0,0,0-.7.9,3.91,3.91,0,0,0-.41.91c0,.31-.09.6-.09.9Zm1.2-17.83a6.27,6.27,0,0,0,.31,1.92,3.66,3.66,0,0,0,2.41,2.43,6.37,6.37,0,0,0,1.93.3,4.5,4.5,0,0,0,2-.41,3.92,3.92,0,0,0,2.43-2.47,5.26,5.26,0,0,0,.29-1.72,6.57,6.57,0,0,0-.29-1.92,3.85,3.85,0,0,0-.92-1.51,3.71,3.71,0,0,0-1.51-.91,6,6,0,0,0-1.92-.29,4.38,4.38,0,0,0-2,.4,4,4,0,0,0-1.51,1,4,4,0,0,0-.9,1.51,4.64,4.64,0,0,0-.31,1.69Zm46.46,8.66a5.3,5.3,0,0,1-.4,2.12,5.74,5.74,0,0,1-1.11,1.6,8.41,8.41,0,0,1-1.51,1.22,12.11,12.11,0,0,1-1.93.81,21.09,21.09,0,0,1-2.12.5,7.46,7.46,0,0,1-2.11.09c-1.31,0-2.72-.09-4-.2a21.94,21.94,0,0,1-3.61-.6V252.2a29.71,29.71,0,0,0,7.55,1.11,9.26,9.26,0,0,0,4-.7,2.38,2.38,0,0,0,1.31-2.12,3.13,3.13,0,0,0-.2-1,2.26,2.26,0,0,0-.71-.91,5.5,5.5,0,0,0-1.71-.9,23.15,23.15,0,0,0-3.12-1c-.91-.3-1.82-.61-2.73-1a7.32,7.32,0,0,1-2.11-1.31,5.29,5.29,0,0,1-1.92-4.23,6.65,6.65,0,0,1,.4-2,5,5,0,0,1,1.42-2,7.23,7.23,0,0,1,2.72-1.51,12.75,12.75,0,0,1,4.33-.61,26.38,26.38,0,0,1,2.82.11,27.1,27.1,0,0,1,3.23.5v3.32a18.12,18.12,0,0,0-3.43-.6,24,24,0,0,0-2.82-.2,17.67,17.67,0,0,0-2.41.2,3.79,3.79,0,0,0-1.52.6,2.38,2.38,0,0,0,0,4,5.5,5.5,0,0,0,1.71.9,19.42,19.42,0,0,0,2.89.92,18.1,18.1,0,0,1,3.27,1.14,6.09,6.09,0,0,1,2.12,1.42,6.63,6.63,0,0,1,1.21,1.71,4.22,4.22,0,0,1,.5,2.12Zm25.7-6.05v1.31a3.18,3.18,0,0,1-.11,1H382.39a7,7,0,0,0,1.92,5.14,7.66,7.66,0,0,0,5.44,1.82,12.42,12.42,0,0,0,1.93-.11c.6-.1,1.31-.1,1.92-.2l1.72-.3a8.88,8.88,0,0,0,1.51-.41v3.15c-1.11.3-2.32.5-3.53.7a27.13,27.13,0,0,1-4,.3,13.36,13.36,0,0,1-4.81-.8,7.37,7.37,0,0,1-3.32-2.22,9.34,9.34,0,0,1-1.93-3.52,18.5,18.5,0,0,1-.6-4.74,13.18,13.18,0,0,1,2.61-8,9.45,9.45,0,0,1,7.37-3.42,11,11,0,0,1,4,.7,7.27,7.27,0,0,1,2.89,2,9.33,9.33,0,0,1,1.81,3.22,21.19,21.19,0,0,1,.51,4.35Zm-3.94-.6a7.3,7.3,0,0,0-.3-2.63,5.28,5.28,0,0,0-1.1-2.11,6.23,6.23,0,0,0-1.82-1.41,7,7,0,0,0-2.52-.5,5.53,5.53,0,0,0-2.22.5,4.49,4.49,0,0,0-1.71,1.31,7,7,0,0,0-1.2,2.11,11.13,11.13,0,0,0-.61,2.73Zm10-9.2h3.43l.1,3.52a18.41,18.41,0,0,1,1.92-1.93,7,7,0,0,1,1.71-1.2,4.77,4.77,0,0,1,1.72-.6,11.28,11.28,0,0,1,1.92-.21,6.59,6.59,0,0,1,5.14,2c1.21,1.32,1.71,3.34,1.71,6.06V256.2h-3.72V242.32a6.11,6.11,0,0,0-.9-3.73,3.39,3.39,0,0,0-2.83-1.21,7.37,7.37,0,0,0-1.41.2,6.62,6.62,0,0,0-1.41.7,6.84,6.84,0,0,0-1.52,1.42,26.89,26.89,0,0,0-1.92,2.21v14.56h-3.73Zm41.82,15.82a5.3,5.3,0,0,1-.4,2.12,5.93,5.93,0,0,1-1.11,1.61,6.47,6.47,0,0,1-1.62,1.21,10.84,10.84,0,0,1-1.92.81,21.57,21.57,0,0,1-2.11.5,15,15,0,0,1-2.12.09c-1.41,0-2.72-.09-4.13-.2a22.06,22.06,0,0,1-3.62-.6v-3.53a29.71,29.71,0,0,0,7.55,1.11,9.33,9.33,0,0,0,4-.7,2.36,2.36,0,0,0,1.3-2.12,3.13,3.13,0,0,0-.2-1,2.26,2.26,0,0,0-.71-.91,5.5,5.5,0,0,0-1.71-.9,23.15,23.15,0,0,0-3.12-1c-.91-.3-1.82-.61-2.73-1a7.57,7.57,0,0,1-2.11-1.32,5.32,5.32,0,0,1-1.93-4.23,6.38,6.38,0,0,1,.41-2,4.91,4.91,0,0,1,1.41-2,7.23,7.23,0,0,1,2.72-1.51,13,13,0,0,1,4.34-.61,26.59,26.59,0,0,1,2.82.11,26.93,26.93,0,0,1,3.22.5v3.32a18.12,18.12,0,0,0-3.43-.6,22.47,22.47,0,0,0-2.72-.2,17.82,17.82,0,0,0-2.42.2,4,4,0,0,0-1.51.6,2.42,2.42,0,0,0-1.21,2,2.3,2.3,0,0,0,1.12,2,5.52,5.52,0,0,0,1.71.91,20.63,20.63,0,0,0,2.89.91,18.32,18.32,0,0,1,3.22,1.2,6.09,6.09,0,0,1,2.12,1.42,5.43,5.43,0,0,1,1.21,1.71,3.52,3.52,0,0,1,.7,2.12Zm25.6-6v1.31a3.49,3.49,0,0,1-.1,1H455.85a7,7,0,0,0,1.92,5.14,7.68,7.68,0,0,0,5.45,1.82,12.3,12.3,0,0,0,1.92-.11c.6-.1,1.31-.1,1.93-.2l1.71-.3a9.58,9.58,0,0,0,1.51-.4v3.17c-1.11.3-2.32.5-3.53.7a27.13,27.13,0,0,1-4,.3,13.36,13.36,0,0,1-4.81-.8,7.4,7.4,0,0,1-3.33-2.22,9.21,9.21,0,0,1-1.93-3.52,19,19,0,0,1-.6-4.74,12.53,12.53,0,0,1,.71-4.33,12.29,12.29,0,0,1,1.92-3.63,8.22,8.22,0,0,1,3.12-2.42,8.62,8.62,0,0,1,4.23-.91,10.93,10.93,0,0,1,4,.71,7.4,7.4,0,0,1,2.89,2,9.3,9.3,0,0,1,1.8,3.22,11.71,11.71,0,0,1,.51,4.24Zm-3.93-.61a5.87,5.87,0,0,0-.3-2.63,5.19,5.19,0,0,0-1.12-2.11,6.23,6.23,0,0,0-1.81-1.41,7,7,0,0,0-2.52-.5,5.24,5.24,0,0,0-4,1.81,7,7,0,0,0-1.2,2.12,11,11,0,0,0-.61,2.72Z" fill="#010101"/><path d="M291.09,228.81a2.27,2.27,0,0,1-4.54-.3h0a2.29,2.29,0,0,1,2.22-2.11A2.43,2.43,0,0,1,291.09,228.81Z" fill="#010101" fill-rule="evenodd"/><path d="M287.16,235.57h3.45v20.65h-3.43ZM729.75,67a22.14,22.14,0,1,1,22.14-22.14A22.13,22.13,0,0,1,729.75,67Zm0-39.46a17.33,17.33,0,1,0,17.33,17.32,17.31,17.31,0,0,0-17.33-17.32Z" fill="#010101"/><path d="M728.54,43.06a4.08,4.08,0,0,0,2.67-.69A3,3,0,0,0,732,40.1a2.83,2.83,0,0,0-.81-2.26,4.14,4.14,0,0,0-2.67-.67h-2.49v5.89h2.49m-2.49,4.1v8.66h-5.93v-23h9.06c3,0,5.23.51,6.65,1.53a5.49,5.49,0,0,1,2.11,4.81,6,6,0,0,1-1.1,3.74,6.35,6.35,0,0,1-3.31,2.16,4.39,4.39,0,0,1,2.17,1.26,11.61,11.61,0,0,1,1.93,3l3.21,6.52h-6.31l-2.8-5.71A6.28,6.28,0,0,0,730,47.79a3.85,3.85,0,0,0-2.31-.63H726" fill="#010101"/></g></g></svg>