<svg width="24" height="25" viewBox="0 0 24 25" fill="none" xmlns="http://www.w3.org/2000/svg">
<path d="M23.1063 10.7485C22.9535 9.50797 22.593 8.32932 22.0516 7.21426C21.358 5.77986 20.3789 4.51119 19.1779 3.49041C17.6539 2.19044 15.9174 1.35906 13.9685 0.996288C13.5614 0.920168 13.1482 0.932213 12.7408 0.883072H11.1705C10.9282 0.922818 10.6814 0.904752 10.4393 0.936308C9.23409 1.09385 8.08566 1.46457 7.00144 2.02174C5.61257 2.73124 4.3832 3.73107 3.39206 4.95717C2.11316 6.53256 1.29847 8.3302 0.948 10.3501C0.881204 10.7317 0.892688 11.1185 0.841125 11.5003V13.2027C0.880032 13.4517 0.862454 13.7054 0.893157 13.9542C1.04644 15.1946 1.40597 16.3734 1.94925 17.4883C2.63919 18.9157 3.61169 20.1792 4.80441 21.1979C6.33816 22.5117 8.0873 23.3491 10.0518 23.7101C10.4231 23.779 10.7995 23.7672 11.1707 23.8199H12.741C13.0125 23.7795 13.2883 23.8016 13.5595 23.7665C14.7665 23.6099 15.9133 23.2392 16.9982 22.6825C18.387 21.9726 19.6163 20.9726 20.6076 19.7466C21.8865 18.1712 22.7014 16.3735 23.0521 14.3536C23.1189 13.9721 23.1075 13.5852 23.159 13.2036V11.5449C23.1189 11.2809 23.1386 11.0123 23.1063 10.7485ZM11.9943 22.2113C6.68808 22.2079 2.39503 17.7858 2.40605 12.335C2.4173 6.8881 6.708 2.48809 12.0051 2.4917C17.3114 2.49532 21.6044 6.91725 21.5934 12.368C21.5821 17.8149 17.2914 22.2149 11.9943 22.2113Z" fill="#23346B"/>
<path d="M12.783 10.8569C12.7813 10.4785 12.5955 10.1872 12.2887 10.0641C11.7564 9.85023 11.2211 10.2376 11.2176 10.8518C11.2117 11.9341 11.2159 13.0164 11.2162 14.0987C11.2162 15.1663 11.2131 16.2337 11.2173 17.301C11.2197 17.896 11.6873 18.2822 12.2113 18.1326C12.5678 18.0307 12.7827 17.717 12.7832 17.2839C12.7846 15.8582 12.7846 14.4325 12.7832 13.0068C12.7837 12.2902 12.7863 11.5735 12.783 10.8569Z" fill="#24B9EC"/>
<path d="M12.0073 6.53273C11.6006 6.52743 11.2521 6.86298 11.2207 7.3014C11.2087 7.47218 11.2188 7.64442 11.2188 7.81593C11.2188 7.98744 11.2092 8.15967 11.2209 8.33046C11.2509 8.76791 11.5725 9.08395 11.9824 9.09166C12.4059 9.09936 12.7498 8.79031 12.7762 8.34491C12.7963 7.99481 12.7963 7.64379 12.7762 7.29369C12.7651 7.09054 12.6797 6.89923 12.537 6.75811C12.3944 6.61699 12.2052 6.53648 12.0073 6.53273Z" fill="#24B9EC"/>
</svg>
