<svg fill="none" height="25" viewBox="0 0 24 25" width="24" xmlns="http://www.w3.org/2000/svg"><g fill="#000"><path d="m23.1065 10.7487c-.1528-1.2405-.5133-2.41915-1.0547-3.53421-.6936-1.4344-1.6727-2.70307-2.8737-3.72385-1.524-1.29997-3.2605-2.13135-5.2094-2.494123-.4071-.07612-.8203-.064075-1.2277-.113216h-1.5703c-.2423.039746-.4891.02168-.7312.053236-1.20523.157543-2.35366.528263-3.43788 1.085433-1.38887.7095-2.61824 1.70933-3.60938 2.93543-1.2789 1.57539-2.09359 3.37303-2.444056 5.3929-.066796.3816-.055312.7684-.106875 1.1502v1.7024c.038907.249.021329.5027.052032.7515.153279 1.2404.512809 2.4192 1.056089 3.5341.68994 1.4274 1.66244 2.6909 2.85516 3.7096 1.53375 1.3138 3.28289 2.1512 5.24741 2.5122.3713.0689.7477.0571 1.1189.1098h1.5703c.2715-.0404.5473-.0183.8185-.0534 1.207-.1566 2.3538-.5273 3.4387-1.084 1.3888-.7099 2.6181-1.7099 3.6094-2.9359 1.2789-1.5754 2.0938-3.3731 2.4445-5.393.0668-.3815.0554-.7684.1069-1.15v-1.6587c-.0401-.264-.0204-.5326-.0527-.7964zm-11.112 11.4628c-5.30624-.0034-9.59929-4.4255-9.58827-9.8763.01125-5.44687 4.30195-9.84688 9.59907-9.84327 5.3063.00362 9.5993 4.42555 9.5883 9.87627-.0113 5.4469-4.302 9.8469-9.5991 9.8433z"/><path d="m12.7829 10.857c-.0017-.3784-.1875-.6697-.4943-.7928-.5323-.21383-1.0676.1735-1.0711.7877-.0059 1.0823-.0017 2.1646-.0014 3.2469 0 1.0676-.0031 2.135.0011 3.2023.0024.595.47.9812.994.8316.3565-.1019.5714-.4156.5719-.8487.0014-1.4257.0014-2.8514 0-4.2771.0005-.7166.0031-1.4333-.0002-2.1499z"/><path d="m12.0073 6.53278c-.4067-.0053-.7552.33025-.7866.76867-.012.17078-.0019.34302-.0019.51453s-.0096.34374.0021.51453c.03.43745.3516.75349.7615.7612.4235.0077.7674-.30135.7938-.74675.0201-.3501.0201-.70112 0-1.05122-.0111-.20315-.0965-.39446-.2392-.53558-.1426-.14112-.3318-.22163-.5297-.22538z"/></g></svg>