<svg width="24" height="25" viewBox="0 0 24 25" fill="none" xmlns="http://www.w3.org/2000/svg">
<path d="M15.5087 14.9532C15.3292 15.0096 15.2457 15.1476 15.2635 15.3352C15.2729 15.4342 15.3132 15.5304 15.3439 15.6265C15.4698 16.0213 15.5701 16.4195 15.5314 16.8415C15.4974 17.219 15.2971 17.4372 14.9371 17.4919C14.6511 17.5357 14.3746 17.4919 14.0982 17.4225C13.2847 17.2178 12.5762 16.7837 11.8757 16.3356C10.3464 15.3572 9.05612 14.1009 7.89386 12.6983C7.12675 11.7723 6.44073 10.7876 5.93823 9.68142C5.69846 9.15461 5.49737 8.61141 5.49714 8.01715C5.49714 7.53008 5.7294 7.2598 6.19393 7.18657C6.29917 7.16995 6.40487 7.18416 6.51081 7.19693C6.59915 7.20887 6.68861 7.18589 6.76109 7.13263C6.83358 7.07937 6.88368 6.99981 6.90128 6.91004C6.93901 6.70191 6.83987 6.53233 6.64346 6.47476C6.5891 6.45844 6.53352 6.44675 6.47729 6.43983C5.53112 6.33071 4.78112 7.00976 4.77362 7.98704C4.76846 8.69283 4.99276 9.33888 5.27425 9.96808C5.81026 11.1655 6.55417 12.2225 7.3787 13.2227C8.80417 14.9515 10.4354 16.4284 12.3849 17.5124C12.7492 17.7149 13.1291 17.8802 13.5533 18.0409C12.703 18.3728 11.8949 18.6886 11.0875 19.0059C10.9989 19.0408 10.9234 19.0121 10.8439 18.9777C7.648 17.5919 5.59581 15.1789 4.68737 11.7386C4.60979 11.4445 4.55823 11.1448 4.50807 10.8444C4.47151 10.6257 4.28636 10.4831 4.10378 10.5089C3.90596 10.5366 3.778 10.7028 3.79018 10.9282C3.79819 11.0222 3.81228 11.1156 3.83237 11.2077C4.44175 14.4237 6.09057 16.921 8.75425 18.7141C9.14167 18.975 9.55323 19.194 10.0035 19.4231C9.81761 19.4953 9.67089 19.5541 9.52393 19.6112C8.32675 20.0769 7.1294 20.5417 5.9319 21.0054C5.86956 21.0295 5.81307 21.0929 5.72448 21.0163C4.85612 20.2662 4.24206 19.3465 3.96971 18.208C3.74729 17.2785 3.76815 16.3181 3.67065 15.3726C3.64089 15.0835 3.51526 14.9291 3.27409 14.9426C3.04815 14.9551 2.92604 15.1129 2.94596 15.4032C2.98253 15.9618 3.03971 16.519 3.07253 17.0776C3.15151 18.4106 3.55136 19.6167 4.37659 20.6627C4.57018 20.9074 4.78956 21.1256 5.01667 21.3641L2.00401 22.5343C2.18565 21.7601 2.35839 21.0298 2.52831 20.2984C2.58784 20.0426 2.49456 19.8545 2.28807 19.8003C2.06237 19.7413 1.8962 19.8528 1.82917 20.1243C1.70096 20.6439 1.58682 21.1661 1.453 21.6838C1.33979 22.12 1.27956 22.5707 1.11737 22.9937V23.2558C1.18816 23.3567 1.27426 23.4453 1.37237 23.5181H1.58495C1.59854 23.474 1.63956 23.4798 1.67073 23.4678C4.8537 22.2304 8.03706 20.9932 11.2208 19.756C12.6085 19.2171 13.9984 18.684 15.3859 18.1447C15.7703 17.9953 16.0421 17.7207 16.1682 17.3151C16.4047 16.5479 16.2069 15.8245 15.9235 15.1184C15.8537 14.9448 15.6852 14.8976 15.5087 14.9532Z" fill="#213065"/>
<path d="M22.7166 22.9058C22.7883 22.7109 22.8323 22.5065 22.8471 22.2987V21.8097C22.7754 21.0456 22.4381 20.4314 21.8456 19.9696C21.7105 19.8665 21.5936 19.7404 21.4999 19.5967C21.154 19.0633 20.721 18.5954 20.22 18.2135C19.542 17.6935 18.784 17.3635 17.9576 17.1922C17.6984 17.1387 17.4924 17.2596 17.4488 17.4861C17.4078 17.6978 17.5566 17.8729 17.8144 17.9283C17.9864 17.9654 18.1582 18.0064 18.3263 18.0589C19.1745 18.3253 19.8942 18.7982 20.5015 19.4936C20.1352 19.582 19.8131 19.7227 19.5377 19.9583C19.0486 20.3767 18.7681 20.8912 18.911 21.5628C19.0563 22.2448 19.6041 22.7138 20.2371 22.7333C20.959 22.7557 21.5213 22.3459 21.7289 21.6348C21.7812 21.4561 21.8065 21.2689 21.8461 21.0755C22.1859 21.5814 22.2256 22.2676 21.9565 22.8465C21.7999 23.1837 21.8159 23.2709 22.0737 23.5181H22.3287C22.5612 23.3822 22.6317 23.1387 22.7166 22.9058ZM21.0994 20.9322C21.0994 21.4828 20.918 21.8179 20.5648 21.9497C20.4281 22.0006 20.2797 22.0076 20.139 21.97C19.9984 21.9323 19.8721 21.8516 19.777 21.7387C19.5853 21.5122 19.5448 21.1707 19.6887 20.9081C19.8872 20.5468 20.1987 20.3353 20.5868 20.2464C20.7977 20.1982 20.9316 20.2832 21.0246 20.4926C21.084 20.6309 21.1095 20.7821 21.0989 20.9329L21.0994 20.9322Z" fill="#24B9EC"/>
<path d="M2.89112 1.52218C2.8269 1.68189 2.72214 1.82666 2.67339 1.98998C2.58362 2.29012 2.3905 2.40141 2.10128 2.41538C1.88425 2.42598 1.66932 2.47657 1.45253 2.50138C1.28565 2.52017 1.20362 2.64326 1.11737 2.76635V2.98483C1.33956 3.29799 1.63768 3.53333 1.8969 3.80866C1.96721 3.88237 1.99745 3.94428 1.97612 4.05364C1.91776 4.3521 1.88518 4.65586 1.828 4.95407C1.79401 5.13257 1.83573 5.27373 1.97495 5.37538C2.10995 5.47366 2.2562 5.45126 2.39682 5.37538C2.60776 5.26072 2.82714 5.15858 3.02964 5.0261C3.21714 4.90373 3.37393 4.89 3.56612 5.02417C3.75831 5.15834 3.97745 5.24482 4.18065 5.36141C4.33534 5.44933 4.48534 5.47583 4.63698 5.3655C4.78862 5.25518 4.79659 5.10053 4.77011 4.9348C4.7244 4.64887 4.67823 4.36246 4.61987 4.07918C4.59643 3.96451 4.62151 3.88984 4.70284 3.81155C4.92175 3.59524 5.1369 3.37242 5.35487 3.15562C5.46807 3.04217 5.4955 2.90341 5.45096 2.75527C5.40409 2.60351 5.29182 2.5245 5.13737 2.50282C4.8369 2.46091 4.53737 2.41129 4.23667 2.37274C4.14292 2.3607 4.0855 2.32698 4.04448 2.23448C3.93948 1.99793 3.81503 1.77005 3.71307 1.53205C3.63971 1.36054 3.53636 1.2283 3.37042 1.14953H3.24292C3.07018 1.21794 2.9619 1.34657 2.89112 1.52218ZM3.27901 2.34504C3.68261 3.12238 3.48737 2.99543 4.34964 3.14695C3.88089 3.44854 3.70885 3.83685 3.93878 4.37547C3.50823 4.04449 3.10323 3.99848 2.67315 4.37402C2.84495 3.84817 2.73198 3.44661 2.27471 3.13659C2.8419 3.17393 3.1555 2.90004 3.27901 2.34504Z" fill="#24B9EC"/>
<path d="M9.37067 2.58687C9.7309 2.43728 9.917 2.00875 9.78317 1.63586C9.69387 1.3875 9.49817 1.25526 9.27927 1.14854H8.93919C8.88317 1.17601 8.82622 1.20178 8.77091 1.23069C8.60947 1.32087 8.48726 1.47057 8.42891 1.64964C8.37056 1.82872 8.38038 2.02386 8.45642 2.19579C8.53245 2.36771 8.66904 2.50364 8.83868 2.57621C9.00832 2.64878 9.19841 2.65258 9.37067 2.58687Z" fill="#24B9EC"/>
<path d="M19.5624 2.08726C19.7154 1.83096 19.5994 1.30775 19.3543 1.1478H19.1417C18.8965 1.32004 18.7889 1.7982 18.9343 2.07136C18.9653 2.12817 19.0101 2.1757 19.0644 2.20931C19.1187 2.24291 19.1806 2.26142 19.2439 2.26302C19.3073 2.26463 19.37 2.24927 19.4258 2.21845C19.4816 2.18764 19.5287 2.14243 19.5624 2.08726Z" fill="#24B9EC"/>
<path d="M21.9817 8.2742C21.9245 8.30407 21.8763 8.34957 21.8426 8.4057C21.8089 8.46183 21.7908 8.52643 21.7905 8.59241C21.7862 8.73815 21.8549 8.85738 21.9848 8.92965C22.2482 9.07731 22.7198 8.96048 22.8827 8.70731V8.48883C22.7111 8.23831 22.2468 8.12847 21.9817 8.2742Z" fill="#24B9EC"/>
<path d="M20.654 8.4146C20.5466 8.22478 20.3533 8.18624 20.1001 8.30981C17.9008 9.38625 15.7015 10.4624 13.5025 11.5384C13.1978 11.6878 12.8905 11.833 12.5866 11.9845C12.4016 12.0768 12.332 12.237 12.3852 12.4369C12.4321 12.6103 12.5575 12.6951 12.7335 12.6956C12.8294 12.6971 12.9098 12.6527 12.993 12.612C14.7595 11.7474 16.5262 10.8837 18.2929 10.0208C19.0112 9.66961 19.7298 9.31985 20.4463 8.96502C20.6966 8.84049 20.7726 8.62369 20.654 8.4146Z" fill="#24B9EC"/>
<path d="M8.34845 11.9308C8.56174 12.0139 8.74689 11.9094 8.85705 11.6401C8.9508 11.4141 9.03729 11.185 9.13432 10.9608C9.79901 9.42755 10.1998 7.83409 10.1832 6.2086C10.1832 6.06407 10.1832 5.98457 10.1832 5.90436C10.1774 5.15625 10.0903 4.41114 9.92346 3.68291C9.87659 3.47744 9.72073 3.36181 9.54401 3.37819C9.37291 3.39409 9.21799 3.54272 9.21025 3.71808C9.20604 3.81058 9.2276 3.90573 9.24611 3.99775C9.58393 5.67062 9.52604 7.32896 9.07244 8.97276C8.84674 9.79683 8.49541 10.5696 8.18181 11.3575C8.07751 11.6184 8.14759 11.8516 8.34845 11.9308Z" fill="#24B9EC"/>
<path d="M15.194 13.4313C14.091 13.4219 13.0143 13.638 11.9343 13.8287C11.7581 13.8598 11.6552 13.9916 11.6519 14.1862C11.6486 14.3703 11.7412 14.4907 11.9031 14.5476C11.9969 14.5808 12.0972 14.5565 12.1961 14.5398C12.907 14.4194 13.6143 14.2705 14.3338 14.2161C15.9241 14.0936 17.5216 14.3183 19.0213 14.8754C19.1081 14.9074 19.1936 14.9493 19.2866 14.9342C19.465 14.905 19.5878 14.8039 19.6075 14.6114C19.6291 14.4025 19.5306 14.2756 19.3377 14.2019C18.002 13.6845 16.6171 13.4489 15.194 13.4313Z" fill="#24B9EC"/>
<path d="M14.951 7.85893C15.5241 7.86503 16.0973 7.86503 16.6706 7.85893C16.941 7.8558 17.069 7.71729 17.0742 7.43738C17.08 7.14663 17.0756 6.85564 17.0756 6.56464C17.0756 6.2592 17.0809 5.95352 17.0739 5.64807C17.0678 5.37587 16.9417 5.24844 16.679 5.24676C16.0987 5.24322 15.5184 5.24322 14.9381 5.24676C14.6638 5.24844 14.5368 5.37491 14.534 5.66084C14.5279 6.24973 14.5275 6.83885 14.5328 7.42822C14.5356 7.71897 14.6678 7.8558 14.951 7.85893ZM15.2957 6.02626C15.4038 5.91666 15.6306 6.00796 15.8048 5.98989C15.9789 6.00868 16.2063 5.91594 16.3134 6.02699C16.4205 6.13804 16.3434 6.37049 16.3427 6.54923C16.342 6.72797 16.4202 6.96163 16.3127 7.07219C16.2051 7.18276 15.9782 7.10423 15.8043 7.10375C15.6304 7.10327 15.4042 7.1842 15.2964 7.07147C15.1886 6.95873 15.2662 6.72724 15.2662 6.54802C15.2662 6.3688 15.1877 6.13611 15.2957 6.02626Z" fill="#24B9EC"/>
<path d="M9.85531 12.0999C9.91296 12.2471 10.0334 12.3167 10.1628 12.3317C10.325 12.3317 10.4206 12.2442 10.5144 12.1566C11.4186 11.3215 12.3226 10.4856 13.2265 9.64893C13.4947 9.40106 13.7656 9.15705 14.03 8.90436C14.2048 8.73574 14.2175 8.52496 14.0769 8.36357C13.9304 8.19495 13.7417 8.18628 13.5516 8.34285C13.5076 8.37899 13.4654 8.41801 13.4234 8.45703C12.537 9.27845 11.6495 10.1 10.7609 10.9218C10.4933 11.1697 10.2255 11.4178 9.95749 11.6661C9.82859 11.7863 9.79085 11.9357 9.85531 12.0999Z" fill="#24B9EC"/>
<path d="M19.9836 15.6795C19.982 16.3104 20.4524 16.7957 21.0683 16.7957C21.2115 16.796 21.3534 16.7672 21.4857 16.7109C21.6181 16.6547 21.7383 16.5721 21.8396 16.468C21.9408 16.3638 22.021 16.2401 22.0756 16.1041C22.1302 15.968 22.1581 15.8221 22.1577 15.6749C22.153 15.0713 21.6615 14.5669 21.0744 14.5618C20.931 14.5604 20.7889 14.5883 20.6561 14.6439C20.5234 14.6996 20.4027 14.7818 20.3012 14.8858C20.1997 14.9898 20.1193 15.1136 20.0648 15.2498C20.0103 15.3861 19.9827 15.5322 19.9836 15.6795ZM21.0592 15.3088C21.2495 15.3049 21.4295 15.4858 21.4302 15.6814C21.4302 15.8816 21.2614 16.05 21.0617 16.0478C20.8524 16.0456 20.7078 15.8907 20.7116 15.673C20.7127 15.5779 20.7494 15.487 20.8142 15.4191C20.879 15.3513 20.9667 15.3117 21.0592 15.3088Z" fill="#24B9EC"/>
<path d="M12.3634 6.36106C12.9765 6.36106 13.4476 5.87303 13.4467 5.2407C13.4466 5.0943 13.4184 4.94936 13.3638 4.81415C13.3092 4.67893 13.2292 4.5561 13.1284 4.45265C13.0276 4.34921 12.908 4.26719 12.7763 4.21127C12.6447 4.15534 12.5036 4.12662 12.3612 4.12673C12.0735 4.12695 11.7977 4.24462 11.5944 4.45385C11.4938 4.55745 11.414 4.6804 11.3596 4.8157C11.3052 4.951 11.2772 5.09599 11.2773 5.24239C11.2754 5.38964 11.3022 5.53579 11.356 5.67225C11.4099 5.8087 11.4898 5.9327 11.591 6.03694C11.6922 6.14118 11.8127 6.22356 11.9453 6.27922C12.078 6.33489 12.2201 6.36271 12.3634 6.36106ZM12.3564 4.87383C12.5495 4.86926 12.7222 5.0451 12.7229 5.24648C12.7197 5.34346 12.6798 5.43529 12.6115 5.50236C12.5433 5.56942 12.4523 5.60639 12.3579 5.60535C12.2635 5.60431 12.1732 5.56535 12.1064 5.4968C12.0396 5.42825 12.0015 5.33555 12.0004 5.23854C12.0058 5.04824 12.1717 4.87817 12.3564 4.87383Z" fill="#24B9EC"/>
<path d="M19.9079 2.99999C19.991 3.01565 20.0754 3.02203 20.1598 3.01902C20.518 3.02095 20.6989 2.89858 20.7071 2.64998C20.716 2.39681 20.5313 2.26866 20.158 2.27179C20.0944 2.27179 20.0305 2.26746 19.9672 2.27179C19.7661 2.28745 19.6313 2.41633 19.6128 2.60711C19.5952 2.7897 19.714 2.9547 19.9079 2.99999Z" fill="#24B9EC"/>
<path d="M20.3357 6.77369C20.3294 6.88965 20.33 7.00589 20.3375 7.12177C20.356 7.33857 20.5178 7.48984 20.7125 7.4831C20.9153 7.4766 21.05 7.32797 21.0599 7.09768C21.0622 7.03963 21.0599 6.98158 21.0599 6.92352C21.0599 6.8727 21.0599 6.82187 21.0599 6.77128C21.0533 6.5304 20.916 6.36997 20.7111 6.3637C20.5018 6.35937 20.3436 6.52799 20.3357 6.77369Z" fill="#24B9EC"/>
<path d="M19.6114 3.40225C19.6032 3.16691 19.476 3.02526 19.2685 3.01876C19.0517 3.01202 18.8999 3.15727 18.8882 3.39117C18.8814 3.51425 18.8814 3.63762 18.8882 3.76069C18.902 3.98158 19.0539 4.1266 19.2571 4.12347C19.4666 4.12033 19.6004 3.97893 19.6107 3.75009C19.6133 3.69228 19.6107 3.63423 19.6107 3.57617C19.6107 3.51812 19.6135 3.46007 19.6114 3.40225Z" fill="#24B9EC"/>
<path d="M20.3437 10.0336C20.3296 10.1112 20.3357 10.1926 20.3355 10.2723C20.3355 10.652 20.4618 10.8466 20.7072 10.8428C20.946 10.8391 21.062 10.657 21.0613 10.2851C21.0613 10.2196 21.0641 10.1543 21.0613 10.089C21.0501 9.88211 20.9069 9.7277 20.7198 9.71662C20.5441 9.70771 20.3772 9.8426 20.3437 10.0336Z" fill="#24B9EC"/>
<path d="M21.9487 7.84083C22.0684 7.74063 22.1774 7.62757 22.2738 7.50359C22.3626 7.38892 22.3617 7.24969 22.2972 7.11648C22.2307 6.97942 22.1156 6.92377 21.9639 6.91341C21.7265 6.93919 21.6124 7.15117 21.4626 7.30437C21.3257 7.44409 21.3356 7.65462 21.4574 7.79506C21.5859 7.94369 21.7928 7.97163 21.9487 7.84083Z" fill="#24B9EC"/>
<path d="M18.0605 2.9925C18.1506 3.02478 18.241 3.01659 18.3322 3.01659C18.4025 3.01659 18.474 3.02478 18.5431 3.0149C18.7613 2.98431 18.8947 2.82918 18.8865 2.62226C18.8783 2.41534 18.7393 2.28141 18.5089 2.27201C18.3822 2.26511 18.2551 2.26639 18.1285 2.27587C17.9429 2.29201 17.8318 2.40547 17.8116 2.59384C17.7908 2.78895 17.8728 2.92554 18.0605 2.9925Z" fill="#24B9EC"/>
<path d="M21.9232 9.34632C21.8021 9.25936 21.6727 9.26755 21.5466 9.34199C21.4245 9.41425 21.3727 9.53132 21.371 9.66767C21.3687 9.88446 21.7646 10.2798 21.9785 10.2822C22.0421 10.2864 22.1055 10.2715 22.161 10.2394C22.2165 10.2072 22.2616 10.1591 22.291 10.101C22.3613 9.97142 22.3643 9.83291 22.2811 9.71175C22.1832 9.56964 22.0621 9.44601 21.9232 9.34632Z" fill="#24B9EC"/>
<path d="M19.1596 7.04134C19.0361 7.18033 19.0148 7.34558 19.1313 7.49589C19.2339 7.62471 19.3486 7.74283 19.4737 7.84855C19.5785 7.93936 19.7064 7.9449 19.83 7.87697C19.9535 7.80904 20.0311 7.69968 20.0369 7.50986C20.0027 7.26416 19.7927 7.11505 19.597 6.96883C19.4465 6.85658 19.2829 6.90307 19.1596 7.04134Z" fill="#24B9EC"/>
</svg>
