<svg fill="none" height="24" viewBox="0 0 24 24" width="24" xmlns="http://www.w3.org/2000/svg"><path d="m14.8414 14.3998c-.1352.0425-.1981.1465-.1847.2878.0071.0746.0374.147.0605.2194.0949.2974.1704.5974.1413.9153-.0256.2844-.1765.4488-.4477.49-.2155.033-.4238 0-.632-.0523-.6128-.1542-1.1466-.4812-1.6743-.8188-1.152-.737-2.12401-1.6834-2.99958-2.7401-.57788-.6975-1.09468-1.4393-1.47323-2.2727-.18062-.3968-.33211-.80604-.33228-1.25371 0-.36693.17496-.57054.52491-.6257.07928-.01252.15891-.00182.23871.0078.06655.00899.13394-.00832.18855-.04844s.09235-.10006.10561-.16768c.02842-.15679-.04627-.28454-.19423-.32791-.04095-.0123-.08282-.0211-.12518-.02631-.71278-.08221-1.27777.42934-1.28342 1.16555-.00389.53169.16508 1.0184.37714 1.4924.40379.902.9642 1.6983 1.58534 2.4518 1.07385 1.3023 2.30266 2.4149 3.77126 3.2315.2745.1526.5607.2771.8802.3982-.6405.25-1.2493.4879-1.8575.7269-.0668.0263-.1237.0047-.1835-.0212-2.40759-1.044-3.95356-2.8618-4.63792-5.4534-.05844-.2216-.09728-.4474-.13507-.6737-.02754-.1647-.16702-.2721-.30456-.2527-.14903.0209-.24542.1461-.23625.3159.00604.0708.01665.1411.03179.2105.45906 2.4227 1.70116 4.304 3.70779 5.6548.29182.1966.60192.3615.94112.5341-.1401.0544-.2506.0987-.3613.1417-.90187.3508-1.80387.701-2.70598 1.0503-.04696.0182-.08951.0659-.15625.0082-.65416-.565-1.11675-1.2579-1.32192-2.1155-.16756-.7003-.15184-1.4238-.22529-2.136-.02242-.2178-.11706-.3341-.29874-.324-.17021.0094-.2622.1283-.24719.347.02755.4208.07062.8406.09535 1.2614.0595 1.0042.36071 1.9128.98238 2.7007.14584.1844.31111.3488.48219.5284l-2.26952.8816c.13684-.5832.26697-1.1334.39497-1.6844.04485-.1927-.02542-.3344-.18098-.3752-.17002-.0445-.29521.0395-.3457.2441-.09658.3914-.18257.7848-.28338 1.1748-.08528.3286-.13066.6681-.25284.9868v.1974c.05333.076.11819.1428.1921.1976h.16014c.01024-.0332.04114-.0288.06462-.0379 2.39782-.9322 4.79594-1.8642 7.19434-2.7962 1.0454-.406 2.0924-.8076 3.1377-1.2138.2896-.1126.4943-.3194.5893-.625.1782-.5779.0292-1.1229-.1843-1.6548-.0526-.1308-.1796-.1664-.3125-.1245z" fill="#5c5b5b"/><g fill="#969696"><path d="m20.2713 20.3908c.054-.1468.0872-.3008.0983-.4573v-.3684c-.054-.5756-.3081-1.0383-.7544-1.3862-.1018-.0777-.1899-.1727-.2605-.2809-.2605-.4018-.5867-.7543-.9641-1.042-.5108-.3917-1.0818-.6403-1.7044-.7694-.1952-.0403-.3504.0508-.3833.2214-.0309.1595.0812.2914.2755.3331.1295.028.2589.0589.3856.0984.639.2007 1.1811.557 1.6386 1.0808-.2759.0666-.5186.1726-.726.3501-.3685.3152-.5798.7028-.4721 1.2087.1094.5138.5221.8671.9989.8818.5439.0169.9675-.2919 1.1239-.8275.0394-.1347.0584-.2757.0882-.4214.256.3811.2859.8981.0832 1.3342-.118.254-.1059.3197.0883.5059h.1921c.1752-.1024.2283-.2858.2922-.4613zm-1.2183-1.4867c0 .4147-.1366.6672-.4027.7665-.103.0383-.2148.0436-.3208.0153-.1059-.0284-.201-.0892-.2727-.1743-.1444-.1706-.1749-.4279-.0665-.6257.1496-.2722.3842-.4315.6766-.4985.1589-.0363.2597.0278.3298.1855.0447.1042.0639.2181.056.3317z"/><path d="m5.33622 4.28195c-.04838.12031-.1273.22937-.16403.35241-.06762.2261-.2131.30994-.43098.32046-.1635.00799-.32541.0461-.48872.06479-.12572.01415-.18752.10688-.25249.19961v.16458c.16738.23592.39196.41321.58724.62062.05297.05553.07575.10217.05968.18455-.04396.22484-.06851.45367-.11158.67832-.02561.13447.00582.24081.1107.31738.1017.07404.21187.05717.31781 0 .1589-.08637.32417-.16332.47672-.26312.14125-.09218.25936-.10253.40414-.00145.14479.10107.30987.16622.46295.25405.11653.06623.22953.0862.34376.00308.11424-.08311.12024-.19961.10029-.32446-.03443-.2154-.06921-.43116-.11318-.64456-.01765-.08638.00124-.14264.06251-.20161.16491-.16296.32699-.33081.49119-.49413.08528-.08547.10594-.19.07239-.3016-.03531-.11432-.11989-.17384-.23624-.19018-.22635-.03157-.452-.06895-.67852-.09799-.07063-.00907-.11388-.03447-.14478-.10416-.0791-.1782-.17286-.34986-.24967-.52916-.05526-.1292-.13312-.22882-.25812-.28816h-.09605c-.13013.05154-.2117.14844-.26502.28073zm.29221.61988c.30404.5856.15696.48996.80653.6041-.35312.2272-.48272.51973-.30951.92548-.32435-.24933-.62944-.28399-.95344-.00109.12943-.39614.04432-.69864-.30015-.93219.42728.02813.66352-.1782.75657-.5963z"/><path d="m10.2173 5.08402c.2714-.11269.4115-.43551.3107-.71642-.0672-.1871-.2147-.28672-.3796-.36711h-.25616c-.04221.02069-.08511.04011-.12677.06188-.12162.06794-.21369.18071-.25764.31561-.04396.13491-.03656.28191.02072.41143.05728.12951.16017.23191.28797.28658.12779.05467.27098.05753.40078.00803z"/><path d="m17.8952 4.70772c.1153-.19308.0279-.58723-.1567-.70772h-.1602c-.1847.12975-.2658.48996-.1562.69574.0233.0428.0571.07861.098.10393.0409.02531.0875.03925.1352.04046.0478.00121.095-.01036.137-.03358.0421-.02321.0775-.05727.1029-.09883z"/><path d="m19.7179 9.36851c-.0431.02251-.0794.05678-.1048.09907-.0254.04228-.039.09095-.0392.14065-.0033.10979.0485.19961.1463.25405.1985.11124.5537.02323.6765-.16749v-.16459c-.1293-.18872-.4791-.27147-.6788-.16169z"/><path d="m18.7173 9.47442c-.0809-.143-.2265-.17203-.4173-.07894-1.6568.81092-3.3136 1.62162-4.9701 2.43222-.2296.1125-.4611.2219-.69.336-.1394.0695-.1918.1902-.1517.3408.0353.1306.1298.1945.2624.1949.0722.0011.1328-.0323.1954-.063 1.3308-.6513 2.6617-1.302 3.9926-1.952.5411-.2646 1.0825-.528 1.6222-.79534.1886-.09381.2458-.25713.1565-.41464z"/><path d="m9.44736 12.1228c.16067.0626.30015-.0161.38314-.219.07062-.1703.13578-.3428.2089-.5117.5007-1.1551.8026-2.35548.7901-3.58 0-.10888 0-.16877 0-.2292-.0043-.56357-.07-1.12488-.1956-1.67348-.0354-.15479-.1528-.24189-.2859-.22955-.1289.01197-.2456.12394-.2514.25605-.0032.06968.013.14136.027.21068.2545 1.26022.2109 2.5095-.13084 3.74782-.17003.62078-.43469 1.20298-.67094 1.79648-.07857.1965-.02578.3722.12554.4319z"/><path d="m14.6045 13.2534c-.831-.0071-1.6421.1557-2.4557.2994-.1327.0234-.2102.1227-.2127.2693-.0025.1387.0673.2294.1892.2722.0707.025.1463.0067.2208-.0058.5355-.0907 1.0683-.2029 1.6104-.2439 1.198-.0923 2.4014.077 3.5312.4967.0654.0241.1298.0556.1998.0443.1344-.022.2269-.0982.2418-.2432.0163-.1574-.058-.253-.2033-.3085-1.0062-.3898-2.0495-.5672-3.1215-.5805z"/><path d="m14.4213 9.05552c.4318.00459.8636.00459 1.2955 0 .2037-.00236.3001-.10671.304-.31757.0044-.21903.0011-.43824.0011-.65746 0-.2301.004-.46037-.0013-.69048-.0046-.20505-.0996-.30105-.2975-.30232-.4372-.00266-.8743-.00266-1.3115 0-.2066.00127-.3023.09654-.3044.31194-.0046.44363-.0049.88743-.0009 1.33142.0021.21903.1017.32211.315.32447zm.2597-1.38061c.0814-.08256.2523-.01378.3835-.0274.1312.01416.3025-.0557.3832.02795.0807.08366.0226.25877.022.39342-.0005.13465.0584.31067-.0225.39396-.0811.0833-.252.02414-.383.02378s-.3014.0606-.3827-.02432c-.0812-.08493-.0227-.25932-.0227-.39433s-.0591-.3103.0222-.39306z"/><path d="m10.5823 12.2504c.0435.1109.1342.1634.2317.1747.1222 0 .1942-.0659.2649-.1319.6811-.6291 1.3621-1.2588 2.0431-1.8891.202-.1867.4061-.3706.6053-.56091.1316-.12703.1412-.28581.0353-.40739-.1104-.12703-.2525-.13356-.3957-.01561-.0332.02722-.065.05662-.0966.08601-.6678.6188-1.3363 1.2377-2.0057 1.8568-.2016.1867-.4034.3736-.6053.5607-.0971.0905-.1255.2031-.077.3267z"/><path d="m18.2124 14.9468c-.0012.4752.3532.8408.8172.8408.1078.0003.2147-.0214.3144-.0638s.1903-.1046.2666-.183c.0762-.0785.1366-.1717.1778-.2742.0411-.1025.0621-.2124.0618-.3233-.0035-.4547-.3738-.8347-.8161-.8385-.108-.0011-.215.0199-.3151.0618-.0999.042-.1909.1039-.2673.1823-.0765.0783-.1371.1716-.1781.2742-.0411.1026-.0619.2127-.0612.3237zm.8103-.2793c.1434-.0029.279.1334.2795.2807 0 .1508-.1272.2777-.2776.276-.1577-.0016-.2666-.1183-.2638-.2823.0009-.0717.0285-.1401.0773-.1913.0488-.0511.1149-.0809.1846-.0831z"/><path d="m12.4721 7.92733c.4618 0 .8167-.36765.8161-.844-.0001-.11029-.0214-.21948-.0625-.32134s-.1014-.19439-.1773-.27232c-.076-.07793-.1661-.13972-.2653-.18184-.0991-.04214-.2054-.06377-.3127-.06369-.2167.00017-.4245.08881-.5776.24643-.0758.07804-.1359.17067-.1769.27259-.041.10193-.0621.21115-.062.32144-.0015.11093.0187.22103.0593.32383.0406.10279.1008.1962.177.27473.0762.07852.167.14058.2669.18251.1.04194.207.0629.315.06166zm-.0053-1.12038c.1455-.00344.2756.12903.2761.28073-.0024.07306-.0325.14224-.0839.19276s-.12.07837-.1911.07759c-.0711-.00079-.1391-.03014-.1894-.08178-.0504-.05164-.0791-.12147-.0799-.19455.0041-.14336.1291-.27148.2682-.27475z"/><path d="m18.1552 5.39524c.0626.0118.1262.0166.1898.01433.2698.00146.4061-.09073.4123-.278.0067-.19072-.1324-.28726-.4136-.28491-.048 0-.0961-.00326-.1438 0-.1515.0118-.253.10889-.267.25261-.0132.13755.0763.26185.2223.29597z"/><path d="m18.4779 8.23812c-.0048.08735-.0043.17492.0013.26222.014.16332.1358.27727.2825.2722.1528-.0049.2543-.11687.2617-.29035.0018-.04373 0-.08746 0-.1312 0-.03829 0-.07658 0-.11469-.005-.18146-.1084-.30232-.2627-.30704-.1577-.00326-.2769.12376-.2828.30886z"/><path d="m17.9324 5.69824c-.0061-.17729-.102-.28399-.2583-.28889-.1633-.00508-.2777.10434-.2865.28055-.0051.09272-.0051.18565 0 .27837.0104.1664.1249.27565.2779.27329.1579-.00237.2587-.10889.2664-.28128.002-.04355 0-.08728 0-.13102 0-.04373.0021-.08746.0005-.13102z"/><path d="m18.4841 10.6939c-.0106.0585-.006.1198-.0062.1798 0 .2861.0952.4327.28.4298.1799-.0028.2673-.1399.2668-.4201 0-.0494.0021-.0985 0-.1477-.0085-.1559-.1163-.2722-.2573-.2806-.1323-.0067-.2581.0949-.2833.2388z"/><path d="m19.6927 9.04216c.0902-.07549.1723-.16066.2449-.25405.0669-.08639.0662-.19127.0176-.29163-.0501-.10325-.1368-.14517-.251-.15297-.1789.01942-.2648.17911-.3777.29452-.1031.10525-.0957.26385-.0039.36965.0968.11197.2527.13301.3701.03448z"/><path d="m16.7641 5.38956c.0679.02432.136.01815.2047.01815.0529 0 .1068.00617.1589-.00128.1643-.02304.2648-.1399.2586-.29578-.0061-.15588-.1108-.25678-.2844-.26386-.0955-.00519-.1912-.00423-.2866.00291-.1398.01216-.2235.09763-.2387.23954-.0157.14698.0461.24988.1875.30032z"/><path d="m19.6738 10.1761c-.0912-.0655-.1887-.0593-.2837-.0032-.092.0544-.131.1426-.1323.2453-.0017.1633.2965.4612.4577.463.0479.0032.0956-.0081.1375-.0323.0418-.0242.0757-.0604.0979-.1042.0529-.0977.0552-.202-.0075-.2933-.0737-.107-.165-.2002-.2696-.2753z"/><path d="m17.5919 8.43964c-.0931.10471-.1091.22919-.0213.34243.0772.09704.1637.18602.2579.26567.0789.06841.1753.07258.2684.02141.093-.05118.1515-.13356.1559-.27656-.0258-.18509-.184-.29742-.3314-.40757-.1134-.08456-.2366-.04954-.3295.05462z"/></g></svg>