<svg fill="none" height="24" viewBox="0 0 24 24" width="24" xmlns="http://www.w3.org/2000/svg"><path d="m14.3229 13.7191c-.9987-1.5779-2.2399-2.9694-3.5472-4.30885-.0949-.09701-.1325-.03992-.1932.02111-.69495.69964-1.35971 1.42504-1.98646 2.18384-.82978 1.0045-1.59421 2.0474-2.16527 3.2176-.4153.8527-.55689 1.7336-.30701 2.6539.46955 1.7289 1.59277 2.8499 3.35733 3.357.23817.0684.48599.1049.72951.1562h.9042c.0125-.0371.0452-.0297.0739-.0317.3181-.022.6318-.0849.9328-.1873 1.4912-.5042 2.5134-1.4741 3.019-2.9319.2113-.6087.3072-1.2388.1827-1.8812-.1594-.8212-.5564-1.5476-1.0003-2.2487zm.1882 4.0341c-.5382 1.4007-1.573 2.2804-3.0801 2.5635-2.13177.4015-4.15895-.8952-4.69364-2.944-.202-.7741-.10809-1.5123.23015-2.2343.36804-.7853.84252-1.5073 1.36755-2.1982.67949-.8953 1.411-1.7521 2.19094-2.5664.0528-.0549.1069-.1086.1656-.1685 1.2044 1.2877 2.3568 2.5982 3.2657 4.0921.2721.4471.5084.912.6637 1.4105.2162.6929.1453 1.3807-.1099 2.0453z" fill="#5c5b5b"/><path d="m9.69592 7.02443c.55488.02196 1.14628-.23594 1.45608-.85155.154-.30601.2152-.61881.0467-.95476-.2454-.48926-.5378-.94877-.8483-1.3999-.189-.27427-.40994-.52738-.57433-.81822h-.03617c-.48312.65873-.97383 1.31386-1.36262 2.03368-.14919.27646-.23878.55113-.14385.86812.17344.57868.67669 1.0917 1.46249 1.12263zm-.85484-1.50249c.25049-.51741.5388-1.01245.90889-1.47716.34383.45196.64063.93602.88583 1.44501.0426.08704.0381.16349.0142.25152-.1083.40082-.4658.67091-.8988.6731-.41961.0022-.80758-.28126-.90704-.66971-.01809-.07066-.03987-.14711-.00308-.22276z" fill="#969696"/><path d="m17.8613 7.22908c-.4015-.68709-.8291-1.35321-1.3091-1.98859-.3699-.49026-.762-.96435-1.179-1.43385-.906 1.06316-1.77 2.12672-2.435 3.32782-.2852.51521-.4618 1.04539-.3263 1.64424.4284 1.8973 2.5717 2.7892 4.2729 1.7718.9322-.55735 1.7624-1.977.9765-3.32142zm-1.22 2.74054c-.7038.47568-1.4641.53898-2.233.17048-.769-.36848-1.1654-1.00209-1.218-1.8319-.0144-.22496.0791-.43436.1765-.63478.4315-.88709 1.0213-1.67478 1.6319-2.4493.1204-.1529.2466-.30201.3744-.45911.3191.37108.6164.75195.9041 1.142.3765.51362.7398 1.03682 1.0242 1.60492.458.91465.2069 1.87181-.6601 2.45769z" fill="#969696"/><path d="m10.1935 18.5599c-.0925.009-.1907-.02-.28379-.0414-.92862-.2157-1.54406-.8641-1.69674-1.7839-.04891-.2955-.04891-.2955-.34174-.2955-.03006.0029-.06035.0029-.09041 0-.19337-.0387-.24392.0504-.21269.2182.01377.0747.02261.1501.03391.225.18165 1.2087 1.26583 2.1945 2.51586 2.2879.2579.02.2579.02.2577-.2251-.0028-.0585-.0024-.1172.001-.1757.0142-.1349-.0021-.2273-.1831-.2095z" fill="#5c5b5b"/></svg>