<svg width="19" height="28" viewBox="0 0 19 28" fill="none" xmlns="http://www.w3.org/2000/svg">
<path d="M12.9468 16.6743C11.3933 14.2197 9.46256 12.0551 7.4289 9.97152C7.28122 9.8206 7.22273 9.90941 7.12843 10.0044C6.04735 11.0928 5.01326 12.2212 4.03831 13.4015C2.74753 14.964 1.55841 16.5864 0.670084 18.4067C0.0240583 19.7332 -0.196185 21.1035 0.192517 22.535C0.922933 25.2244 2.67018 26.9682 5.41507 27.757C5.78555 27.8635 6.17105 27.9203 6.54985 28.0001H7.95634C7.97584 27.9423 8.02666 27.9538 8.07141 27.9507C8.56621 27.9165 9.05413 27.8186 9.52234 27.6594C11.8421 26.8751 13.4321 25.3663 14.2187 23.0986C14.5473 22.1518 14.6966 21.1715 14.5029 20.1723C14.2549 18.8948 13.6373 17.7649 12.9468 16.6743ZM13.2396 22.9495C12.4024 25.1284 10.7927 26.4969 8.44829 26.9372C5.13217 27.5619 1.97876 25.5448 1.14701 22.3577C0.83279 21.1535 0.978873 20.0052 1.50503 18.8821C2.07753 17.6605 2.81562 16.5374 3.63234 15.4627C4.68933 14.07 5.82724 12.7371 7.04052 11.4704C7.12267 11.385 7.20674 11.3015 7.29816 11.2083C9.17167 13.2114 10.9643 15.25 12.3781 17.5739C12.8014 18.2694 13.169 18.9926 13.4106 19.768C13.7469 20.8458 13.6366 21.9158 13.2396 22.9495Z" fill="#24356F"/>
<path d="M5.74915 6.26027C6.61223 6.29443 7.5322 5.89325 8.01424 4.93562C8.25367 4.4596 8.34893 3.97303 8.08681 3.45043C7.70514 2.68936 7.25026 1.97456 6.76726 1.2728C6.47318 0.846151 6.12954 0.452419 5.87382 0H5.81756C5.06604 1.0247 4.3027 2.0438 3.69791 3.16352C3.46584 3.59358 3.32647 4.02085 3.47415 4.51394C3.74394 5.41412 4.52678 6.21215 5.74915 6.26027ZM4.41938 3.92304C4.80904 3.11818 5.25752 2.34811 5.83322 1.62523C6.36813 2.32828 6.82974 3.08126 7.21126 3.87304C7.27743 4.00843 7.2704 4.12735 7.23332 4.26429C7.06486 4.8878 6.50866 5.30793 5.83514 5.31134C5.1824 5.31476 4.57889 4.87383 4.42417 4.26957C4.39604 4.15965 4.36216 4.04072 4.41938 3.92304Z" fill="#24356F"/>
<path d="M18.451 6.57881C17.8264 5.51 17.1612 4.47381 16.4145 3.48543C15.8391 2.7228 15.2292 1.98532 14.5806 1.25498C13.1712 2.9088 11.8271 4.56324 10.7927 6.43162C10.349 7.23307 10.0744 8.0578 10.2851 8.98935C10.9515 11.9408 14.2856 13.3282 16.932 11.7455C18.382 10.8785 19.6734 8.67014 18.451 6.57881ZM16.5532 10.8419C15.4584 11.5819 14.2756 11.6803 13.0795 11.1071C11.8833 10.5339 11.2667 9.54828 11.1849 8.25746C11.1625 7.90751 11.308 7.58178 11.4595 7.27002C12.1307 5.89008 13.0482 4.66478 13.9979 3.45997C14.1852 3.22211 14.3815 2.99016 14.5803 2.74578C15.0767 3.32303 15.5392 3.9155 15.9868 4.52225C16.5724 5.32121 17.1375 6.13508 17.5799 7.01881C18.2924 8.4416 17.9018 9.93053 16.5532 10.8419Z" fill="#24356F"/>
<path d="M6.52328 24.2046C6.37943 24.2186 6.22663 24.1735 6.08183 24.1403C4.6373 23.8047 3.67993 22.7961 3.44243 21.3653C3.36635 20.9057 3.36635 20.9057 2.91084 20.9057C2.86407 20.9102 2.81696 20.9102 2.77019 20.9057C2.46939 20.8455 2.39076 20.984 2.43934 21.2451C2.46076 21.3612 2.47451 21.4786 2.49209 21.5951C2.77466 23.4752 4.46117 25.0088 6.40564 25.1541C6.80681 25.1852 6.80681 25.1852 6.80649 24.8039C6.80222 24.7128 6.80276 24.6216 6.80809 24.5306C6.83015 24.3207 6.80489 24.177 6.52328 24.2046Z" fill="#24B9EC"/>
</svg>
