<svg width="24" height="24" viewBox="0 0 24 24" fill="none" xmlns="http://www.w3.org/2000/svg">
<path d="M13.8281 24C13.6842 23.9273 13.5272 23.8725 13.3997 23.7778C13.1231 23.5734 13.0111 23.2842 13.0186 22.9401C13.0373 22.1236 12.9689 21.3155 12.6562 20.5523C11.8594 18.6005 10.4259 17.3986 8.33813 17.0634C6.49734 16.7681 4.89 17.3222 3.57422 18.6356C2.48391 19.7241 1.98563 21.0731 1.98047 22.6111C1.98047 22.7358 1.98047 22.8609 1.98047 22.9861C1.96875 23.4741 1.72125 23.7989 1.24828 23.9531C1.22101 23.9656 1.19535 23.9813 1.17188 24H0.84375C0.408281 23.873 0.125625 23.5931 0 23.1562V22.0312C0.0628125 21.6562 0.111562 21.2784 0.190313 20.9062C0.832969 17.8636 3.37125 15.5016 6.44297 15.0938C8.89031 14.7694 11.0152 15.4777 12.7748 17.1933C14.077 18.4631 14.798 20.0372 14.9517 21.8578C14.9756 22.1391 14.9714 22.4203 14.9934 22.6987C15.0441 23.347 14.8036 23.8026 14.1562 23.9991L13.8281 24Z" fill="#24356F"/>
<path d="M17.8593 0C18.1471 0.0623438 18.4392 0.109687 18.7218 0.1875C20.7726 0.762187 22.0785 2.625 21.9768 4.81781C21.8854 6.78656 20.3263 8.53219 18.3285 8.90391C15.7795 9.37781 13.3898 7.63828 13.0443 5.06016C12.7162 2.61703 14.5443 0.28875 16.9818 0.0445312C17.041 0.0342325 17.0993 0.0193438 17.1562 0L17.8593 0ZM17.3774 7.00688C18.6899 7.12266 19.8979 6.04734 20.0142 4.66313C20.1215 3.38531 19.0682 2.13188 17.8218 2.00203C16.3724 1.85016 15.1453 2.85562 14.9999 4.23047C14.8495 5.68922 15.8789 6.87516 17.3774 7.00688Z" fill="#24B9EC"/>
<path d="M23.9999 18.1875C23.8753 18.465 23.7454 18.7355 23.4501 18.8808C22.8046 19.1991 22.0537 18.7758 22.0256 18.0492C21.9909 17.1445 21.8142 16.2816 21.3426 15.503C20.3114 13.8033 18.786 12.9591 16.8079 12.9928C15.6754 13.0125 14.6587 13.4184 13.7887 14.1567C13.4986 14.4033 13.1981 14.5931 12.7945 14.4975C12.4036 14.4038 12.1457 14.1694 12.0417 13.7799C11.9376 13.3903 12.0323 13.043 12.3384 12.8091C12.8325 12.4317 13.3289 12.0352 13.8806 11.7614C16.7475 10.3411 20.0371 10.9688 22.192 13.3313C23.2279 14.467 23.8087 15.8156 23.9526 17.3513C23.9639 17.4277 23.9795 17.5035 23.9995 17.5781L23.9999 18.1875Z" fill="#24356F"/>
<path d="M7.50984 4.02C8.10052 4.02043 8.6853 4.13752 9.23059 4.36457C9.77589 4.59162 10.271 4.92415 10.6874 5.34307C11.1038 5.76198 11.4334 6.25903 11.6572 6.80566C11.881 7.3523 11.9946 7.93777 11.9916 8.52844C11.9831 10.9781 9.95765 12.9872 7.50046 12.9816C6.90985 12.9817 6.32502 12.8653 5.77945 12.6391C5.23387 12.4129 4.73827 12.0813 4.32102 11.6633C3.90377 11.2453 3.57306 10.7492 3.34783 10.2032C3.12259 9.65721 3.00726 9.07217 3.00843 8.48156C3.01499 6.01031 5.0264 4.01625 7.50984 4.02ZM7.51406 5.99203C7.18356 5.98956 6.85582 6.05232 6.54962 6.17672C6.24342 6.30112 5.96477 6.4847 5.72963 6.71697C5.49449 6.94923 5.30749 7.2256 5.17934 7.53025C5.05119 7.8349 4.9844 8.16184 4.98281 8.49235C4.96874 9.86016 6.11999 11.0156 7.49999 11.0156C8.87999 11.0156 10.0041 9.89391 10.0181 8.49469C10.0312 7.13438 8.88984 5.99344 7.51406 5.99203Z" fill="#24B9EC"/>
</svg>
