<svg fill="none" height="18" viewBox="0 0 18 18" width="18" xmlns="http://www.w3.org/2000/svg" xmlns:xlink="http://www.w3.org/1999/xlink"><clipPath id="a"><path d="m0 0h18v18h-18z"/></clipPath><mask id="b" height="18" maskUnits="userSpaceOnUse" width="18" x="0" y="0"><path d="m18 0h-18v18h18z" fill="#fff"/></mask><g clip-path="url(#a)"><g fill="#000" mask="url(#b)"><path d="m14.625 18h-11.25c-.02481-.0131-.05098-.0235-.07805-.0309-1.47902-.2247-2.506989-1.0259-3.054372-2.4195-.115664-.2942-.1634764-.6156-.242578-.9246v-9.73828c.0467578-.21481.0829687-.43277.140625-.64442.211188-.76578.661553-1.44404 1.285385-1.93582.62384-.49179 1.3885-.77136 2.18243-.79793.29039-.00984.58148 0 .89086 0 0-.21093.0109-.39621-.00211-.580777-.03235-.464414.15609-.777304.60047-.927773h.3164c.44789.163125.62473.492188.59133.954492-.01266.177538-.00211.356488-.00211.535778h5.99342c0-.1923.0099-.37336-.0021-.553004-.0299-.458789.1529-.777305.5913-.937266h.3164c.4451.149766.6329.464062.5995.926016-.0127.184574-.0022.370894-.0022.575864h.6796c1.6242.00527 2.9883.91089 3.5603 2.39062.123.31641.1758.66164.2605.99352v9.73898c-.0132.0247-.0234.0509-.0306.078-.2246 1.4794-1.0265 2.5067-2.4194 3.0548-.2946.1156-.616.1631-.925.2422zm-13.12172-10.49062v.17226 6.50386c-.00406.1406.00465.2812.02602.4202.2148 1.1496 1.09898 1.8896 2.27074 1.8907 3.46266.003 6.92536.003 10.38796 0 .1406.0041.2812-.0048.4201-.0268 1.1567-.2183 1.8872-1.1046 1.8883-2.29.0014-2.1621.0014-4.32425 0-6.48636v-.18386zm14.99102-1.51805c0-.27879.0077-.54703 0-.81492-.0426-1.22063-1.0196-2.17618-2.2367-2.17723-3.5026-.00387-7.00522-.02145-10.50748.00738-1.575.01301-2.48555 1.32645-2.21485 2.98477z"/><path d="m10.125 11.2433c.0013.2225-.0634.4404-.1859.6262-.12252.1857-.29736.3309-.50242.4173s-.43112.11-.6496.0679-.41957-.1481-.57783-.3045c-.15827-.1564-.2666-.3562-.31131-.5742-.0447-.2179-.02377-.4443.06016-.6503.08392-.2061.22707-.3827.41133-.5074.18427-.1247.40138-.192.62388-.1933.14774-.0009.2942.0274.43103.0831s.26134.1379.36643.2417.18869.2274.24603.3635c.0573.1362.0873.2823.0882.43z"/><path d="m6.37117 11.2636c-.00879.6356-.51187 1.1201-1.15312 1.1109-.60293-.0087-1.11058-.5361-1.09617-1.138.00241-.1492.03437-.2965.09402-.4334.05965-.1368.14581-.2605.25351-.3638.1077-.1034.23481-.1844.37398-.2383.13918-.054.28766-.0798.43689-.0761.60925.0102 1.09933.5217 1.09089 1.1387z"/><path d="m11.6285 11.2372c.0085-.6353.5119-1.1208 1.1524-1.1116.6033.0088 1.1096.534 1.0969 1.1376-.0023.1493-.0343.2966-.0939.4334-.0596.1369-.1457.2606-.2534.364-.1076.1033-.2347.1844-.3739.2384-.1391.054-.2876.0799-.4368.0762-.6089-.0098-1.0997-.5214-1.0913-1.138z"/></g></g></svg>