<svg width="18" height="18" viewBox="0 0 18 18" fill="none" xmlns="http://www.w3.org/2000/svg">
<g clip-path="url(#clip0)">
<path d="M14.625 18H3.375C3.35019 17.9869 3.32402 17.9765 3.29695 17.9691C1.81793 17.7444 0.789961 16.9432 0.242578 15.5496C0.126914 15.2554 0.0791016 14.934 0 14.625V4.88672C0.0467578 4.67191 0.0829687 4.45395 0.140625 4.2423C0.351813 3.47652 0.802178 2.79826 1.42601 2.30648C2.04985 1.81469 2.81451 1.53512 3.60844 1.50855C3.89883 1.49871 4.18992 1.50855 4.4993 1.50855C4.4993 1.29762 4.5102 1.11234 4.49719 0.927773C4.46484 0.463359 4.65328 0.150469 5.09766 0H5.41406C5.86195 0.163125 6.03879 0.492188 6.00539 0.954492C5.99273 1.13203 6.00328 1.31098 6.00328 1.49027H11.9967C11.9967 1.29797 12.0066 1.11691 11.9946 0.937266C11.9647 0.478477 12.1475 0.159961 12.5859 0H12.9023C13.3474 0.149766 13.5352 0.464062 13.5018 0.926016C13.4891 1.11059 13.4996 1.29691 13.4996 1.50188C13.738 1.50188 13.9584 1.50188 14.1792 1.50188C15.8034 1.50715 17.1675 2.41277 17.7395 3.8925C17.8625 4.20891 17.9153 4.55414 18 4.88602V14.625C17.9868 14.6497 17.9766 14.6759 17.9694 14.703C17.7448 16.1824 16.9429 17.2097 15.55 17.7578C15.2554 17.8734 14.934 17.9209 14.625 18ZM1.50328 7.50938V7.68164C1.50328 9.84984 1.50328 12.0178 1.50328 14.1855C1.49922 14.3261 1.50793 14.4667 1.5293 14.6057C1.7441 15.7553 2.62828 16.4953 3.80004 16.4964C7.2627 16.4994 10.7254 16.4994 14.188 16.4964C14.3286 16.5005 14.4692 16.4916 14.6081 16.4696C15.7648 16.2513 16.4953 15.365 16.4964 14.1796C16.4978 12.0175 16.4978 9.85535 16.4964 7.69324V7.50938H1.50328ZM16.4943 5.99133C16.4943 5.71254 16.502 5.4443 16.4943 5.17641C16.4517 3.95578 15.4747 3.00023 14.2576 2.99918C10.755 2.99531 7.25238 2.97773 3.75012 3.00656C2.17512 3.01957 1.26457 4.33301 1.53527 5.99133H16.4943Z" fill="#24356F"/>
<path d="M10.1251 11.2433C10.1264 11.4658 10.0617 11.6837 9.93916 11.8695C9.81664 12.0552 9.6418 12.2004 9.43674 12.2868C9.23168 12.3732 9.00562 12.3968 8.78714 12.3547C8.56866 12.3126 8.36757 12.2066 8.20931 12.0502C8.05104 11.8938 7.94271 11.694 7.898 11.476C7.8533 11.2581 7.87423 11.0317 7.95816 10.8257C8.04208 10.6196 8.18523 10.443 8.36949 10.3183C8.55376 10.1936 8.77087 10.1263 8.99337 10.125C9.14111 10.1241 9.28757 10.1524 9.4244 10.2081C9.56123 10.2638 9.68574 10.346 9.79083 10.4498C9.89592 10.5536 9.97952 10.6772 10.0369 10.8133C10.0942 10.9495 10.1242 11.0956 10.1251 11.2433Z" fill="#24B9EC"/>
<path d="M6.37137 11.2637C6.36258 11.8993 5.8595 12.3838 5.21825 12.3746C4.61532 12.3659 4.10767 11.8385 4.12208 11.2366C4.12449 11.0874 4.15645 10.9401 4.2161 10.8032C4.27575 10.6664 4.36191 10.5427 4.46961 10.4394C4.57731 10.336 4.70442 10.255 4.84359 10.2011C4.98277 10.1471 5.13125 10.1213 5.28048 10.125C5.88973 10.1352 6.37981 10.6467 6.37137 11.2637Z" fill="#24B9EC"/>
<path d="M11.6286 11.237C11.6371 10.6017 12.1405 10.1162 12.781 10.1254C13.3843 10.1342 13.8906 10.6594 13.8779 11.263C13.8756 11.4123 13.8436 11.5596 13.784 11.6964C13.7244 11.8333 13.6383 11.957 13.5306 12.0604C13.423 12.1637 13.2959 12.2448 13.1567 12.2988C13.0176 12.3528 12.8691 12.3787 12.7199 12.375C12.111 12.3652 11.6202 11.8536 11.6286 11.237Z" fill="#24B9EC"/>
</g>
<defs>
<clipPath id="clip0">
<rect width="18" height="18" fill="white"/>
</clipPath>
</defs>
</svg>
