<svg fill="none" height="18" viewBox="0 0 18 18" width="18" xmlns="http://www.w3.org/2000/svg" xmlns:xlink="http://www.w3.org/1999/xlink"><clipPath id="a"><path d="m0 0h18v18h-18z"/></clipPath><mask id="b" height="18" maskUnits="userSpaceOnUse" width="18" x="0" y="0"><path d="m18 0h-18v18h18z" fill="#fff"/></mask><g clip-path="url(#a)"><g fill="#000" mask="url(#b)"><path d="m0 9.52734v-1.05468c.0453516-.33399.0794531-.67008.137812-1.00196.395508-2.24789 1.496958-4.08304 3.269528-5.51074 1.25438-1.010741 2.6884-1.62914 4.28555-1.859765.25945-.0372653.51996-.0671481.77977-.100195h1.05468c.30059.0372656.60366.0622266.90176.113555 2.2838.393047 4.1607 1.488515 5.6127 3.296605.9981 1.23301 1.6406 2.71519 1.858 4.2866.0373.25875.0672.51855.1002.77765v1.05469c-.0454.33399-.0795.6701-.1378 1.002-.3955 2.2478-1.497 4.083-3.2695 5.5107-1.2548 1.0111-2.6888 1.6291-4.2859 1.8598-.2595.0372-.52.0671-.77981.1002h-1.05433c-.30059-.0373-.60364-.0623-.90176-.1136-2.2841-.3948-4.16074-1.4903-5.6127-3.2966-.998128-1.233-1.640575-2.7152-1.858005-4.2866-.0372653-.2588-.0671481-.51855-.100195-.77766zm16.6004-.53367c-.0084-4.20187-3.4221-7.60781-7.6113-7.59375-4.20152.01371-7.58637 3.40242-7.58953 7.59762-.00316 4.19516 3.40523 7.60536 7.60254 7.60286 4.19729-.0024 7.60639-3.4129 7.59829-7.60673z"/><path d="m8.299 6.95611c0-.68519-.00351-1.37109.00176-2.05558.00246-.29918.13289-.53402.41344-.65883.26297-.11672.51574-.08015.73828.10547.18914.15645.25067.37055.25067.60961-.00176 1.18898 0 2.37796-.00422 3.56694 0 .13817.04465.21938.15433.30094.78044.57844 1.55734 1.16156 2.33054 1.74944.297.2253.3811.5625.2316.8708-.1951.4039-.6764.5238-1.0547.2482-.515-.3755-1.0219-.7629-1.53204-1.1454-.39305-.295-.78258-.59523-1.18055-.88351-.24434-.17578-.35157-.40957-.34946-.70593.00211-.66692 0-1.33453.00035-2.00215z"/></g></g></svg>