<svg width="18" height="18" viewBox="0 0 18 18" fill="none" xmlns="http://www.w3.org/2000/svg">
<g clip-path="url(#clip0)">
<path d="M0 9.52734V8.47266C0.0453516 8.13867 0.0794531 7.80258 0.137812 7.4707C0.53332 5.22281 1.63477 3.38766 3.40734 1.95996C4.66172 0.949219 6.09574 0.33082 7.69289 0.100195C7.95234 0.0629297 8.21285 0.0330469 8.47266 0H9.52734C9.82793 0.0372656 10.131 0.0622266 10.4291 0.113555C12.7129 0.506602 14.5898 1.60207 16.0418 3.41016C17.0399 4.64317 17.6824 6.12535 17.8998 7.69676C17.9371 7.95551 17.967 8.21531 18 8.47441V9.5291C17.9546 9.86309 17.9205 10.1992 17.8622 10.5311C17.4667 12.7789 16.3652 14.6141 14.5927 16.0418C13.3379 17.0529 11.9039 17.6709 10.3068 17.9016C10.0473 17.9388 9.7868 17.9687 9.52699 18.0018H8.47266C8.17207 17.9645 7.86902 17.9395 7.5709 17.8882C5.2868 17.4934 3.41016 16.3979 1.9582 14.5916C0.960072 13.3586 0.317625 11.8764 0.100195 10.305C0.0629297 10.0462 0.0330469 9.78645 0 9.52734ZM16.6004 8.99367C16.592 4.7918 13.1783 1.38586 8.9891 1.39992C4.78758 1.41363 1.40273 4.80234 1.39957 8.99754C1.39641 13.1927 4.8048 16.6029 9.00211 16.6004C13.1994 16.598 16.6085 13.1875 16.6004 8.99367Z" fill="#24356F"/>
<path d="M8.29898 6.95635C8.29898 6.27116 8.29547 5.58526 8.30074 4.90077C8.3032 4.60159 8.43363 4.36675 8.71418 4.24194C8.97715 4.12522 9.22992 4.16179 9.45246 4.34741C9.6416 4.50386 9.70313 4.71796 9.70313 4.95702C9.70137 6.146 9.70313 7.33498 9.69891 8.52396C9.69891 8.66213 9.74356 8.74334 9.85324 8.8249C10.6337 9.40334 11.4106 9.98646 12.1838 10.5743C12.4808 10.7996 12.5649 11.1368 12.4154 11.4451C12.2203 11.849 11.739 11.9689 11.3607 11.6933C10.8457 11.3178 10.3388 10.9304 9.82864 10.5479C9.43559 10.2529 9.04606 9.95271 8.64809 9.66443C8.40375 9.48865 8.29652 9.25486 8.29863 8.9585C8.30074 8.29158 8.29863 7.62397 8.29898 6.95635Z" fill="#24B9EC"/>
</g>
<defs>
<clipPath id="clip0">
<rect width="18" height="18" fill="white"/>
</clipPath>
</defs>
</svg>
