<svg fill="none" height="24" viewBox="0 0 24 24" width="24" xmlns="http://www.w3.org/2000/svg" xmlns:xlink="http://www.w3.org/1999/xlink"><clipPath id="a"><path d="m3 3h18v18h-18z"/></clipPath><mask id="b" height="18" maskUnits="userSpaceOnUse" width="18" x="3" y="3"><path d="m20.9776 3h-17.9776v17.9743h17.9776z" fill="#fff"/></mask><g clip-path="url(#a)"><g mask="url(#b)"><path d="m20.0648 3h-6.4256c-.686.21982-.9253.70507-.9158 1.4035.022 1.57355.0071 3.1471.0071 4.72065 0 1.07085-.0025 2.14135 0 3.21175.002.6495.4939 1.153 1.1376 1.1543 1.9949.0044 3.99.0044 5.9852 0 .2296-.0008.4535-.0714.6419-.2025.1885-.131.3326-.3163.4132-.5312.022-.0577.0125-.129.0681-.1734v-8.67066c-.0353-.46949-.4422-.87719-.9117-.91244zm-.3264 9.7329c-1.9248-.0096-3.8496-.0046-5.7745-.005-.3562 0-.4699-.1145-.4699-.4728 0-1.3397 0-2.67917 0-4.01851 0-1.33935 0-2.67885 0-4.01848 0-.34092.1215-.46452.4637-.46452h5.7919c.3497 0 .4733.12443.4733.47572 0 2.67345.0011 5.34662.0033 8.01949.0016.3082-.1348.4857-.4878.4841z" fill="#969696"/><path d="m11.2432 4.1053c-.0034-.40645-.195-.72871-.545-.94313-.1112-.06802-.2393-.10908-.36-.16217h-6.42527c-.01238.01136-.02635.02086-.04147.0282-.57152.1659-.87097.56115-.87097 1.15632v3.6676c0 .63788.48608 1.14263 1.12313 1.14429 1.99493.00497 3.98986.00497 5.98478 0 .1483.00149.2954-.02638.4328-.08192.1374-.05553.2626-.13769.3682-.24175s.1896-.22799.2472-.36461c.0575-.13661.0875-.28327.0882-.43154.0072-1.25668.0067-2.51378-.0016-3.77129zm-.7607 3.69124c0 .31023-.1265.43756-.4346.43798-.97718 0-1.95404 0-2.93064 0h-2.91359c-.31853 0-.44876-.12443-.44959-.44295-.00166-1.19889-.00166-2.39793 0-3.5971 0-.30774.13106-.44005.43714-.44046 1.94821-.00166 3.89626-.00166 5.84418 0 .3198 0 .4467.13023.4467.44585.0011 1.1989.0012 2.39779.0004 3.59668z" fill="#666"/><path d="m20.9379 15.7928c-.0682-.2348-.2105-.4412-.4058-.5883-.1953-.1472-.433-.2271-.6775-.2279-2.001-.0033-4.002-.0033-6.003 0-.2967.0011-.5809.1194-.7907.3292-.2097.2098-.3281.494-.3291.7906-.007 1.2581-.007 2.5162 0 3.7742.003.2958.1233.5783.3344.7855.2111.2073.4958.3223.7916.3198h6.0026c.2289-.001.4519-.072.6391-.2036.2564-.1721.382-.4297.4762-.7097v-4.1789c-.0378-.0191-.0282-.0589-.0378-.0909zm-.7146 3.9708c0 .3281-.1294.4562-.4562.4562-1.9355 0-3.8718 0-5.8089 0-.3405 0-.4621-.1244-.4621-.4661 0-1.1873 0-2.3746 0-3.5619 0-.3339.1195-.4529.4563-.4529h2.9131 2.9132c.3173 0 .4471.1244.4475.445 0 1.1934-.0009 2.3866-.0029 3.5797z" fill="#666"/><path d="m11.2458 11.6173c.0011-.1497-.0275-.2981-.0844-.4366-.0568-.1384-.1407-.2642-.2467-.3699s-.232-.1892-.3706-.2456-.2871-.0847-.4368-.0831c-1.99078-.0041-3.98019-.0041-5.96821 0-.64907 0-1.13806.5006-1.13848 1.1476v4.089 4.1247c-.00224.1491.02553.2972.08167.4355.05614.1382.13951.2637.24514.3691s.23137.1884.36974.2442.28654.0832.43571.0805h5.96823c.6387 0 1.143-.4852 1.1439-1.124.0049-2.7428.0052-5.4866.0008-8.2314zm-.7623 8.1373c0 .3393-.1244.4641-.4641.4645-1.93055 0-3.86118 0-5.79196 0-.34964 0-.47323-.1244-.47323-.4765 0-2.6729-.00111-5.3461-.00332-8.0196 0-.3048.13189-.4848.48816-.4831 1.92442.0095 3.84927.0045 5.77415.0045.3566 0 .4699.1141.4703.4728z" fill="#969696"/></g></g></svg>