<svg id="Layer_1" data-name="Layer 1" xmlns="http://www.w3.org/2000/svg" viewBox="0 0 433.46 433.38"><path d="M432.87-550.77H277.94c-16.54,5.3-22.31,17-22.08,33.84.53,37.94.17,75.88.17,113.82,0,25.82-.06,51.63,0,77.44.05,15.66,11.91,27.8,27.43,27.83q72.15.16,144.31,0a27.27,27.27,0,0,0,25.44-17.69c.53-1.39.3-3.11,1.64-4.18V-528.77C454-540.09,444.19-549.92,432.87-550.77ZM425-316.1c-46.41-.23-92.82-.11-139.23-.12-8.59,0-11.33-2.76-11.33-11.4q0-48.45,0-96.89t0-96.89c0-8.22,2.93-11.2,11.18-11.2q69.83,0,139.65,0c8.43,0,11.41,3,11.41,11.47q0,96.69.08,193.36C436.8-320.34,433.51-316.06,425-316.1Z" transform="translate(-21.42 550.77)" fill="#303f6b"/><path d="M220.18-524.12c-.08-9.8-4.7-17.57-13.14-22.74-2.68-1.64-5.77-2.63-8.68-3.91H43.44a4.18,4.18,0,0,1-1,.68c-13.78,4-21,13.53-21,27.88q0,44.21,0,88.43c0,15.38,11.72,27.55,27.08,27.59q72.15.18,144.3,0a27.13,27.13,0,0,0,27.4-27Q220.48-478.64,220.18-524.12Zm-18.34,89c0,7.48-3.05,10.55-10.48,10.56q-35.34,0-70.66,0H50.45c-7.68,0-10.82-3-10.84-10.68q-.06-43.36,0-86.73c0-7.42,3.16-10.61,10.54-10.62q70.46-.06,140.91,0c7.71,0,10.77,3.14,10.77,10.75Q201.87-478.48,201.84-435.12Z" transform="translate(-21.42 550.77)" fill="#4fb0c5"/><path d="M453.93-242.32A27.29,27.29,0,0,0,427.81-262q-72.37-.12-144.74,0a27.1,27.1,0,0,0-27,27q-.25,45.5,0,91a26.93,26.93,0,0,0,27.15,26.65q72.36,0,144.73,0a27,27,0,0,0,15.41-4.91c6.18-4.15,9.21-10.36,11.48-17.11V-240.13C453.93-240.59,454.16-241.55,453.93-242.32ZM436.7-146.58c0,7.91-3.12,11-11,11q-70,0-140.06,0c-8.21,0-11.14-3-11.14-11.24q0-42.94,0-85.88c0-8.05,2.88-10.92,11-10.92q35.11,0,70.24,0t70.24,0c7.65,0,10.78,3,10.79,10.73Q436.77-189.73,436.7-146.58Z" transform="translate(-21.42 550.77)" fill="#4fb0c5"/><path d="M220.23-343a27.16,27.16,0,0,0-27.45-27.37q-72-.15-143.9,0c-15.65,0-27.44,12.07-27.45,27.67q0,49.29,0,98.59,0,49.72,0,99.45a26.83,26.83,0,0,0,27.3,27.23q72,0,143.9,0c15.4,0,27.56-11.7,27.58-27.1Q220.39-243.73,220.23-343Zm-18.38,196.2c0,8.18-3,11.19-11.19,11.2q-69.82,0-139.65,0c-8.43,0-11.41-3-11.41-11.49q0-96.67-.08-193.36c0-7.35,3.18-11.69,11.77-11.65,46.4.23,92.81.11,139.22.11,8.6,0,11.33,2.75,11.34,11.4Z" transform="translate(-21.42 550.77)" fill="#283566"/></svg>