<svg width="25" height="25" viewBox="0 0 25 25" fill="none" xmlns="http://www.w3.org/2000/svg">
<path d="M23.542 16.2238C23.2805 14.3484 22.3613 12.8418 20.853 11.6987C20.6695 11.5595 20.5923 11.4106 20.5935 11.1794C20.6018 9.61301 20.5982 8.0466 20.5977 6.48019C20.5977 6.17014 20.5899 5.86154 20.5601 5.55124C20.4402 4.30026 19.374 3.28854 18.1201 3.25388C17.8194 3.24558 17.8186 3.24558 17.8013 2.94919C17.7564 2.18576 17.4138 1.61691 16.7178 1.27267C16.4915 1.16086 16.2442 1.1904 16.0081 1.14621H15.8306C15.8124 1.15849 15.7916 1.16612 15.7698 1.16843C15.0022 1.22531 14.4055 1.71823 14.2127 2.45212C14.1691 2.63161 14.1425 2.81478 14.1331 2.99924C14.1201 3.186 14.0459 3.25192 13.8579 3.25143C11.9315 3.24704 10.0048 3.24704 8.0779 3.25143C7.90041 3.25143 7.83376 3.19235 7.82643 3.00949C7.7881 1.936 7.27858 1.33932 6.25002 1.14743H5.67433C5.51662 1.20871 5.34084 1.18454 5.18434 1.26682C4.50905 1.62155 4.15285 2.17282 4.13942 2.93845C4.13454 3.22629 4.1277 3.23654 3.89162 3.24753C2.44777 3.3154 1.39162 4.41599 1.39015 5.86081C1.38836 10.1997 1.38779 14.5385 1.38844 18.8772C1.38972 19.0916 1.41337 19.3053 1.459 19.5149C1.66481 20.489 2.49953 21.2998 3.47853 21.4638C3.74079 21.509 4.00636 21.5322 4.27248 21.5332C6.54152 21.5305 8.81081 21.5412 11.0798 21.5227C11.4907 21.5195 11.7844 21.6347 12.0669 21.9331C12.8618 22.7719 13.8416 23.3164 14.9478 23.6494C15.3548 23.7715 15.772 23.7959 16.1863 23.8549H17.4282C17.7456 23.8005 18.073 23.8196 18.3889 23.7397C20.0281 23.3247 21.3609 22.4514 22.344 21.0717C23.3777 19.6167 23.7883 17.9904 23.542 16.2238ZM15.1924 3.77536H15.1948C15.1948 3.49484 15.1858 3.21384 15.197 2.93405C15.2153 2.46555 15.5169 2.15988 15.9509 2.1528C16.385 2.14572 16.7305 2.44577 16.7476 2.89914C16.7703 3.50339 16.752 4.10934 16.7576 4.71433C16.7576 4.82419 16.7046 4.82932 16.6218 4.82883C16.1939 4.82687 15.7659 4.82419 15.3379 4.83054C15.2229 4.83225 15.1863 4.80124 15.1895 4.68405C15.1985 4.38058 15.1931 4.07712 15.1931 3.77536H15.1924ZM5.18263 3.77121H5.18483C5.18483 3.48312 5.17873 3.19504 5.1863 2.90695C5.19777 2.47458 5.53908 2.15353 5.9756 2.15378C6.42384 2.15378 6.77736 2.4819 6.78127 2.91672C6.78786 3.50046 6.78127 4.08395 6.78566 4.66769C6.78688 4.78684 6.76344 4.83347 6.63161 4.83078C6.19582 4.82224 5.75978 4.82297 5.32399 4.83078C5.20339 4.83273 5.17751 4.79269 5.17946 4.68015C5.18703 4.37717 5.18215 4.07419 5.18215 3.77121H5.18263ZM2.43532 7.11594C2.4634 6.60007 2.39821 6.08102 2.47267 5.56662C2.58424 4.79562 3.29884 4.23727 4.08083 4.29221C4.2029 4.30075 4.20534 4.35446 4.20436 4.44455C4.20119 4.71799 4.20046 4.99167 4.20436 5.26511C4.20876 5.61667 4.386 5.80222 4.73219 5.8049C5.56748 5.8093 6.40269 5.8093 7.23781 5.8049C7.5735 5.80295 7.75685 5.61325 7.76149 5.28122C7.76515 5.00778 7.7715 4.73386 7.7588 4.46091C7.75197 4.31711 7.80275 4.29318 7.93337 4.29343C9.9734 4.29733 12.0134 4.29733 14.0535 4.29343C14.179 4.29343 14.2175 4.32614 14.2129 4.45309C14.2031 4.71872 14.2041 4.98532 14.2107 5.25119C14.2207 5.65134 14.3845 5.80637 14.7861 5.80661C15.5768 5.80661 16.3677 5.80661 17.1587 5.80661C17.5615 5.80661 17.7339 5.63059 17.7361 5.22482C17.7376 4.96628 17.7437 4.70725 17.7329 4.44894C17.7276 4.3176 17.7754 4.29562 17.8953 4.29343C18.857 4.27731 19.5208 4.9194 19.5369 5.89694C19.544 6.31198 19.5286 6.72507 19.5432 7.13864C19.5498 7.32297 19.4973 7.37131 19.313 7.37058C17.2212 7.36398 15.1294 7.36643 13.0386 7.36643H10.9966C8.22495 7.36643 5.45314 7.36822 2.68117 7.3718C2.47292 7.37082 2.42409 7.31101 2.43483 7.11496L2.43532 7.11594ZM10.9697 20.4616H8.18312C6.81593 20.4616 5.44875 20.4592 4.08156 20.4616C3.42238 20.4631 2.91164 20.2141 2.60109 19.6113C2.48366 19.383 2.4402 19.1369 2.43996 18.8855C2.43768 15.4349 2.43548 11.9839 2.43337 8.5322C2.43337 8.33688 2.52394 8.34421 2.65944 8.34421C5.07594 8.34616 7.49245 8.34665 9.90895 8.34567C13.0349 8.34567 16.1608 8.34429 19.2866 8.34152C19.489 8.34152 19.5459 8.39035 19.5425 8.59616C19.5296 9.38571 19.5374 10.1758 19.5374 10.9621C16.49 9.88791 13.7781 10.3891 11.6851 12.8965C9.77345 15.1877 9.67482 17.7768 10.9697 20.4616ZM16.8418 22.8615C13.5947 22.8654 11.1072 20.2592 11.1135 17.1301C11.1199 13.9489 13.6716 11.4311 16.8379 11.4106C20.0374 11.4406 22.573 13.9704 22.5586 17.1577C22.5427 20.3581 20.0051 22.8574 16.8418 22.8615Z" fill="#23346B"/>
<path d="M18.8282 17.9007C18.2076 17.8924 17.5865 17.8888 16.9662 17.9037C16.7618 17.9085 16.7206 17.8431 16.7269 17.6541C16.7411 17.2259 16.7313 16.797 16.7313 16.3683C16.7313 15.9249 16.7313 15.4815 16.7313 15.0379C16.7313 14.9354 16.7313 14.8326 16.6791 14.7364C16.6299 14.6414 16.5502 14.5656 16.4528 14.5213C16.3554 14.477 16.2459 14.4668 16.142 14.4923C15.8978 14.5453 15.7548 14.7301 15.7535 15.0328C15.7495 16.1192 15.7495 17.2057 15.7535 18.2921C15.755 18.6566 15.9457 18.8695 16.3038 18.8746C17.1464 18.8866 17.9884 18.8839 18.8314 18.8746C19.109 18.8717 19.2928 18.7191 19.3407 18.5018C19.4152 18.1642 19.2057 17.9059 18.8282 17.9007Z" fill="#24B9EC"/>
</svg>
