<svg fill="none" height="24" viewBox="0 0 24 24" width="24" xmlns="http://www.w3.org/2000/svg"><path d="m20.9437 14.9512c-.2118-1.4865-.9563-2.6807-2.178-3.5868-.1486-.1103-.2111-.2283-.2101-.4116.0067-1.24161.0038-2.48322.0034-3.72483 0-.24576-.0064-.49037-.0305-.73633-.0971-.99159-.9607-1.79353-1.9763-1.821-.2436-.00658-.2442-.00658-.2582-.24151-.0364-.60513-.3139-1.05603-.8776-1.32889-.1833-.08863-.3836-.06521-.5748-.10024h-.1438c-.0148.00973-.0316.01578-.0493.01761-.6217.04509-1.105.4358-1.2611 1.01752-.0354.14227-.0569.28746-.0645.43367-.0105.14803-.0706.20029-.2229.1999-1.5603-.00348-3.12088-.00348-4.68159 0-.14376 0-.19774-.04683-.20368-.19178-.03105-.85089-.44374-1.32385-1.27683-1.47595h-.46629c-.12774.04857-.27011.02941-.39687.09463-.54696.28118-.83547.71814-.84634 1.32501-.00396.22816-.0095.23629-.20071.245-1.16946.05379-2.0249.92617-2.02609 2.07141-.00145 3.43918-.00192 6.87838-.00139 10.31738.00104.17.02019.3394.05715.5055.1667.7721.84279 1.4148 1.63574 1.5448.21242.0358.42752.0542.64307.055 1.83783-.0021 3.67587.0063 5.51363-.0083.3328-.0026.5707.0888.7995.3253.6439.6649 1.4375 1.0965 2.3335 1.3604.3296.0968.6675.1161 1.0031.1629h1.0059c.2571-.0431.5222-.028.7781-.0913 1.3277-.329 2.4072-1.0212 3.2035-2.1148.8372-1.1533 1.1698-2.4424.9703-3.8427zm-6.7628-9.86721h.0019c0-.22235-.0073-.44509.0018-.66686.0148-.37136.2591-.61365.6106-.61926.3516-.00561.6315.23222.6453.59159.0184.47895.0036.95926.0081 1.4388 0 .08708-.0429.09115-.11.09076-.3466-.00155-.6932-.00368-1.0399.00136-.0931.00135-.1228-.02323-.1202-.11612.0073-.24054.0029-.48108.0029-.72027zm-8.10755-.00329h.00179c0-.22835-.00494-.4567.00119-.68505.00929-.34272.28573-.5972.6393-.597.36306 0 .64939.26008.65256.60474.00534.4627 0 .9252.00356 1.3879.00098.09445-.018.13141-.12478.12928-.35297-.00677-.70615-.00619-1.05912 0-.09768.00154-.11864-.0302-.11706-.1194.00613-.24016.00218-.48031.00218-.72047zm-2.22521 2.65119c.02275-.4089-.03006-.82032.03025-1.22806.09037-.61113.66917-1.05371 1.30255-1.01016.09887.00677.10085.04934.10005.12075-.00256.21674-.00315.43368 0 .65042.00357.27866.14713.42574.42753.42786.67655.00349 1.35304.00349 2.02945 0 .2719-.00155.4204-.15191.42416-.41509.00296-.21675.00811-.43387-.00218-.65022-.00553-.11398.0356-.13295.1414-.13275 1.65234.00309 3.30465.00309 4.95705 0 .1017 0 .1328.02592.1291.12655-.0079.21055-.0071.42187-.0018.63261.0081.31718.1408.44007.4661.44026h1.9217c.3263 0 .4659-.13953.4677-.46116.0012-.20493.0061-.41025-.0026-.615-.0043-.1041.0344-.12153.1315-.12326.779-.01278 1.3166.49617 1.3296 1.27102.0058.32898-.0067.65641.0051.98423.0054.1461-.0371.18442-.1864.18384-1.6943-.00523-3.3886-.00329-5.082-.00329h-1.654c-2.24489 0-4.48994.00142-6.73513.00426-.16867-.00078-.20822-.04819-.19953-.20358zm6.91256 10.57841h-2.25707c-1.10737 0-2.21473-.0019-3.3221 0-.53391.0012-.94759-.1962-1.19912-.674-.09511-.1809-.13032-.376-.13051-.5753-.00185-2.7351-.00363-5.4705-.00534-8.20651 0-.15482.07336-.14901.18311-.14901 1.95727.00154 3.91455.00193 5.87182.00116 2.53191 0 5.06371-.0011 7.59551-.00329.164 0 .21.0387.2073.20184-.0105.62583-.0041 1.25211-.0041 1.87541-2.4683-.85151-4.6649-.4542-6.3601 1.5332-1.54836 1.8162-1.62825 3.8684-.5794 5.9965zm4.7561 1.9023c-2.63.0031-4.6448-2.0627-4.6397-4.543.0052-2.5216 2.072-4.5173 4.6366-4.5335 2.5914.0237 4.6452 2.029 4.6335 4.5554-.0129 2.5368-2.0682 4.5178-4.6304 4.5211z" fill="#969696"/><path d="m16.8449 16.1919c-.4018-.0052-.804-.0075-1.2057.0019-.1323.0031-.159-.0383-.1549-.1581.0092-.2713.0028-.5432.0028-.8148 0-.281 0-.562 0-.8431 0-.0649 0-.1301-.0338-.191-.0318-.0602-.0834-.1082-.1465-.1363s-.134-.0345-.2012-.0184c-.1582.0336-.2508.1507-.2516.3425-.0026.6884-.0026 1.377 0 2.0654.001.231.1244.3658.3563.3691.5456.0076 1.0908.0059 1.6367 0 .1798-.0019.2988-.0985.3298-.2362.0482-.2139-.0874-.3777-.3319-.381z" fill="#666"/></svg>