<svg width="24" height="24" viewBox="0 0 24 24" fill="none" xmlns="http://www.w3.org/2000/svg">
<g clip-path="url(#clip0)">
<path d="M12 0C9.62662 0 7.30654 0.703788 5.33315 2.02236C3.35976 3.34094 1.82169 5.21509 0.913443 7.4078C0.0051918 9.60051 -0.232448 12.0133 0.230574 14.3411C0.693597 16.6689 1.83649 18.8071 3.51472 20.4853C5.19295 22.1635 7.33114 23.3064 9.65891 23.7694C11.9867 24.2324 14.3995 23.9948 16.5922 23.0866C18.7849 22.1783 20.6591 20.6402 21.9776 18.6668C23.2962 16.6935 24 14.3734 24 12C23.9966 8.81846 22.7312 5.76821 20.4815 3.51852C18.2318 1.26883 15.1815 0.00344108 12 0V0ZM20.647 7H17.426C16.705 5.32898 15.7556 3.76609 14.605 2.356C17.1515 3.04893 19.3223 4.71747 20.647 7ZM16.5 12C16.4918 13.0181 16.3313 14.0293 16.024 15H7.976C7.66865 14.0293 7.50821 13.0181 7.5 12C7.50821 10.9819 7.66865 9.97068 7.976 9H16.024C16.3313 9.97068 16.4918 10.9819 16.5 12ZM8.778 17H15.222C14.3732 18.6757 13.2882 20.2208 12 21.588C10.7114 20.2212 9.62624 18.676 8.778 17ZM8.778 7C9.62676 5.32427 10.7118 3.77916 12 2.412C13.2886 3.77877 14.3738 5.32396 15.222 7H8.778ZM9.4 2.356C8.24766 3.76578 7.29658 5.3287 6.574 7H3.353C4.67885 4.71643 6.85166 3.04775 9.4 2.356ZM2.461 9H5.9C5.64076 9.97914 5.50636 10.9871 5.5 12C5.50636 13.0129 5.64076 14.0209 5.9 15H2.461C1.84634 13.0472 1.84634 10.9528 2.461 9ZM3.353 17H6.574C7.29658 18.6713 8.24766 20.2342 9.4 21.644C6.85166 20.9522 4.67885 19.2836 3.353 17ZM14.605 21.644C15.7556 20.2339 16.705 18.671 17.426 17H20.647C19.3223 19.2825 17.1515 20.9511 14.605 21.644ZM21.539 15H18.1C18.3592 14.0209 18.4936 13.0129 18.5 12C18.4936 10.9871 18.3592 9.97914 18.1 9H21.537C22.1517 10.9528 22.1517 13.0472 21.537 15H21.539Z" fill="#23346B"/>
</g>
<defs>
<clipPath id="clip0">
<rect width="24" height="24" fill="white"/>
</clipPath>
</defs>
</svg>
