<svg fill="none" height="24" viewBox="0 0 24 24" width="24" xmlns="http://www.w3.org/2000/svg" xmlns:xlink="http://www.w3.org/1999/xlink"><clipPath id="a"><path d="m0 0h24v24h-24z"/></clipPath><mask id="b" height="24" maskUnits="userSpaceOnUse" width="24" x="0" y="0"><path d="m24 0h-24v24h24z" fill="#fff"/></mask><g clip-path="url(#a)"><g mask="url(#b)"><path d="m12 0c-2.37337 0-4.69345.703788-6.66684 2.02236-1.97339 1.31858-3.51146 3.19273-4.419709 5.38544-.90825157 2.19271-1.145891 4.6055-.682869 6.9333.463023 2.3278 1.605918 4.466 3.284148 6.1442s3.81642 2.8211 6.14419 3.2841c2.32778.463 4.74058.2254 6.93328-.6828 2.1927-.9083 4.0669-2.4464 5.3854-4.4198 1.3186-1.9733 2.0224-4.2934 2.0224-6.6668-.0034-3.18154-1.2688-6.23179-3.5185-8.48148s-5.3-3.51507892-8.4815-3.51852zm8.647 7h-3.221c-.721-1.67102-1.6704-3.23391-2.821-4.644 2.5465.69293 4.7173 2.36147 6.042 4.644zm-4.147 5c-.0082 1.0181-.1687 2.0293-.476 3h-8.04799c-.30735-.9707-.46779-1.9819-.476-3 .00821-1.0181.16865-2.02932.476-3h8.04799c.3073.97068.4678 1.9819.476 3zm-7.72199 5h6.44399c-.8488 1.6757-1.9338 3.2208-3.222 4.588-1.2886-1.3668-2.37375-2.912-3.22199-4.588zm0-10c.84876-1.67573 1.93379-3.22084 3.22199-4.588 1.2886 1.36677 2.3738 2.91196 3.222 4.588zm.622-4.644c-1.15234 1.40978-2.10342 2.9727-2.826 4.644h-3.221c1.32585-2.28357 3.49866-3.95225 6.047-4.644zm-6.939 6.644h3.439c-.25924.97914-.39364 1.9871-.4 3 .00636 1.0129.14076 2.0209.4 3h-3.439c-.61466-1.9528-.61466-4.0472 0-6zm.892 8h3.221c.72258 1.6713 1.67366 3.2342 2.826 4.644-2.54834-.6918-4.72115-2.3604-6.047-4.644zm11.25199 4.644c1.1506-1.4101 2.1-2.973 2.821-4.644h3.221c-1.3247 2.2825-3.4955 3.9511-6.042 4.644zm6.934-6.644h-3.439c.2592-.9791.3936-1.9871.4-3-.0064-1.0129-.1408-2.02086-.4-3h3.437c.6147 1.9528.6147 4.0472 0 6z" fill="#000"/></g></g></svg>