<svg width="24" height="24" viewBox="0 0 24 24" fill="none" xmlns="http://www.w3.org/2000/svg">
<g clip-path="url(#clip0)">
<path d="M24 8.3906C23.9292 8.79654 23.8781 9.20716 23.7844 9.60935C23.4708 10.9542 22.8647 12.1725 22.1292 13.3312C20.8013 15.4228 19.1381 17.2284 17.348 18.9244C15.8292 20.365 14.2163 21.7029 12.5198 22.9293C12.3553 23.0484 12.1884 23.1637 11.9963 23.2987C11.5884 23.0034 11.1689 22.71 10.7606 22.4011C8.78438 20.9044 6.91688 19.2801 5.20219 17.49C3.72328 15.9454 2.36859 14.3039 1.33406 12.4218C0.718594 11.3011 0.2475 10.125 0.0684375 8.84857C0.046875 8.69529 0.0229688 8.54294 0 8.3906V7.21872C0.0201562 7.08888 0.0417187 6.95904 0.0604687 6.82919C0.3 5.19466 1.00922 3.80107 2.23172 2.68732C3.375 1.64294 4.73438 1.00216 6.28125 0.957162C8.66156 0.890599 10.4948 1.94904 11.8125 3.92154C11.8711 4.00966 11.925 4.10107 11.9967 4.21544C12.0436 4.14607 12.0787 4.10622 12.105 4.06169C12.4818 3.4113 12.9765 2.83681 13.5637 2.36763C14.9353 1.28951 16.4789 0.748568 18.2316 1.00122C20.8973 1.38513 23.0958 3.37826 23.7628 5.9831C23.8669 6.38857 23.9227 6.80622 24.0009 7.21826L24 8.3906ZM11.0475 7.95138C11.0379 7.93205 11.0304 7.91179 11.025 7.89091C11.0222 7.84404 11.0217 7.79716 11.0208 7.75029C10.987 5.94044 10.2122 4.54216 8.67703 3.58169C7.98422 3.14763 7.21078 2.84622 6.39656 2.92029C4.53984 3.08904 3.18047 4.05326 2.40141 5.75201C1.75031 7.17185 1.875 8.62497 2.40516 10.0575C2.93953 11.5008 3.79031 12.7608 4.74047 13.9561C6.42375 16.0744 8.37422 17.9268 10.4559 19.6458C10.9598 20.0615 11.4769 20.4614 11.9869 20.8683C12.0755 20.805 12.1397 20.7623 12.2011 20.715C14.2069 19.1779 16.0917 17.5045 17.8088 15.6497C18.8869 14.4858 19.8895 13.259 20.6995 11.8893C21.3994 10.7053 21.9553 9.47154 22.012 8.06107C22.0814 6.34966 21.4795 4.93826 20.1253 3.88919C19.2595 3.21841 18.2733 2.81622 17.1478 2.94372C15.1434 3.1706 13.4245 4.79716 13.0739 6.78747C13.0064 7.16763 12.9862 7.55622 12.9431 7.95091L11.0475 7.95138Z" fill="#24356F"/>
<path d="M4.01581 8.22276C4.03013 7.65793 4.20758 7.10931 4.52675 6.64308C5.07237 5.85511 5.8594 5.57808 6.24987 5.47824C7.39409 5.19371 8.31003 5.68074 8.51581 5.79746" stroke="#24B9EC" stroke-miterlimit="10"/>
</g>
<defs>
<clipPath id="clip0">
<rect width="24" height="24" fill="white"/>
</clipPath>
</defs>
</svg>
