<svg fill="none" height="24" viewBox="0 0 24 24" width="24" xmlns="http://www.w3.org/2000/svg" xmlns:xlink="http://www.w3.org/1999/xlink"><clipPath id="a"><path d="m0 0h24v24h-24z"/></clipPath><mask id="b" height="24" maskUnits="userSpaceOnUse" width="24" x="0" y="0"><path d="m24 0h-24v24h24z" fill="#fff"/></mask><g clip-path="url(#a)"><g mask="url(#b)"><path d="m24 8.39072c-.0708.40594-.1219.81656-.2156 1.21875-.3136 1.34483-.9197 2.56313-1.6552 3.72183-1.3279 2.0916-2.9911 3.8972-4.7812 5.5932-1.5188 1.4406-3.1317 2.7785-4.8282 4.0049-.1645.1191-.3314.2344-.5235.3694-.4079-.2953-.8274-.5887-1.2357-.8976-1.97622-1.4967-3.84372-3.121-5.55841-4.9111-1.47891-1.5446-2.8336-3.1861-3.86813-5.0682-.615466-1.1207-1.08656-2.2968-1.2656225-3.57321-.0215625-.15328-.0454687-.30563-.0684375-.45797v-1.17188c.0201562-.12984.0417187-.25968.0604687-.38953.2395313-1.63453.9487513-3.02812 2.1712513-4.14187 1.14328-1.04438 2.50266-1.68516 4.04953-1.730154 2.38031-.066563 4.21355.991874 5.53125 2.964374.0586.08812.1125.17953.1842.2939.0469-.06937.082-.10922.1083-.15375.3768-.65039.8715-1.22488 1.4587-1.69406 1.3716-1.07812 2.9152-1.619058 4.6679-1.36641 2.6657.38391 4.8642 2.37704 5.5312 4.98188.1041.40547.1599.82312.2381 1.23516zm-12.9525-.43922c-.0096-.01933-.0171-.03959-.0225-.06047-.0028-.04687-.0033-.09375-.0042-.14062-.0338-1.80985-.8086-3.20813-2.34377-4.1686-.69281-.43406-1.46625-.73547-2.28047-.6614-1.85672.16875-3.21609 1.13297-3.99515 2.83172-.6511 1.41984-.52641 2.87296.00375 4.30547.53437 1.4433 1.38515 2.7033 2.33531 3.8986 1.68328 2.1183 3.63375 3.9707 5.71543 5.6897.5039.4157 1.021.8156 1.531 1.2225.0886-.0633.1528-.106.2142-.1533 2.0058-1.5371 3.8906-3.2105 5.6077-5.0653 1.0781-1.1639 2.0807-2.3907 2.8907-3.7604.6999-1.184 1.2558-2.41774 1.3125-3.82821.0694-1.71141-.5325-3.12281-1.8867-4.17188-.8658-.67078-1.852-1.07297-2.9775-.94547-2.0044.22688-3.7233 1.85344-4.0739 3.84375-.0675.38016-.0877.76875-.1308 1.16344z" fill="#000"/><path d="m4.01562 8.22306c.01433-.56483.19178-1.11345.51095-1.57968.54562-.78797 1.33264-1.065 1.72311-1.16484 1.14422-.28453 2.06017.2025 2.26594.31922" stroke="#000" stroke-miterlimit="10"/></g></g></svg>