<svg xmlns="http://www.w3.org/2000/svg" viewBox="0 0 512 512">
    <path d="M512 244v8c-8.08 14.69-18.54 16.1-30.48 4.08-2.87-2.89-5.62-5.9-8.43-8.85l-1.1.67v199.75C472 476.29 452.31 496 423.7 496H88.31C59.73 496 40 476.25 40 447.66v-200c-5.21 3.74-9 8-13.09 11.87a15.76 15.76 0 01-23.73-2.07A57.48 57.48 0 010 252v-8c2.89-3.77 5.42-7.9 8.73-11.25 19.55-19.79 39.28-39.4 59-59.07q67.48-67.49 135-135c15.15-15.3 33.46-23.14 55.02-22.68 20.78.47 38.05 8.91 52.72 23.64q96.28 96.63 192.81 193c3.33 3.36 5.83 7.56 8.72 11.36zM336 464h87.5c11.14 0 16.53-5.41 16.54-16.54q0-114.27-.12-228.53a11.4 11.4 0 00-3-7.27q-74.42-74.79-149.1-149.31c-19.35-19.35-44.3-19.34-63.62 0q-74.43 74.42-148.9 148.8a10.53 10.53 0 00-3.39 8.27q.14 113.76.07 227.52C72 458.76 77.21 464 89 464h82c1.6 0 3.19-.14 5-.23v-6.43-119c0-28.22 22.19-50.26 50.45-50.32q29-.06 58 0c29.66 0 51.48 21.75 51.5 51.29v118zm-32.22-.21c.12-1.05.22-1.55.22-2V338.34c0-10.6-7.77-18.26-18.34-18.31-19-.09-38 0-57 0-13.56 0-20.67 7-20.68 20.51V463.9z" fill="#24356f"/>
    <path d="M303.77 463.8H208v-5.36-118C208 327 215.11 320 228.67 320c19 0 38-.06 57 0 10.57.05 18.32 7.71 18.34 18.31q.11 61.72 0 123.45c-.01.49-.12.99-.24 2.04z" fill="#24b9ec"/>
</svg>

