<svg fill="none" height="512" viewBox="0 0 512 512" width="512" xmlns="http://www.w3.org/2000/svg" xmlns:xlink="http://www.w3.org/1999/xlink"><clipPath id="a"><path d="m0 0h512v512h-512z"/></clipPath><g clip-path="url(#a)" fill="#000"><path d="m512 244v8c-8.08 14.69-18.54 16.1-30.48 4.08-2.87-2.89-5.62-5.9-8.43-8.85l-1.1.67v199.75c.01 28.64-19.68 48.35-48.29 48.35h-335.39c-28.58 0-48.31-19.75-48.31-48.34v-200c-5.21 3.74-9 8-13.09 11.87-1.6222 1.572-3.5634 2.777-5.6921 3.534-2.1287.756-4.3951 1.046-6.6455.849-2.2505-.196-4.4325-.874-6.39807-1.987-1.96559-1.114-3.66884-2.637-4.99433-4.466-1.15931-1.76-2.22091-3.583-3.18-5.46v-8c2.89-3.77 5.42-7.9 8.73-11.25 19.55-19.79 39.28-39.4 59-59.07 44.987-44.993 89.987-89.9932 135-134.9999 15.15-15.3 33.46-23.14 55.02-22.68 20.78.47 38.05 8.91 52.72 23.64 64.187 64.4199 128.457 128.7529 192.81 192.9999 3.33 3.36 5.83 7.56 8.72 11.36zm-176 220h87.5c11.14 0 16.53-5.41 16.54-16.54 0-76.18-.04-152.357-.12-228.53-.106-2.702-1.169-5.279-3-7.27-49.613-49.86-99.313-99.63-149.1-149.3099-19.35-19.35-44.3-19.34-63.62 0-49.62 49.6129-99.253 99.2129-148.9 148.7999-1.137 1.046-2.0301 2.328-2.616 3.758-.5858 1.429-.8501 2.969-.774 4.512.0933 75.84.1167 151.68.07 227.52.02 11.82 5.23 17.06 17.02 17.06h82c1.6 0 3.19-.14 5-.23v-6.43-119c0-28.22 22.19-50.26 50.45-50.32 19.333-.04 38.667-.04 58 0 29.66 0 51.48 21.75 51.5 51.29v118zm-32.22-.21c.12-1.05.22-1.55.22-2v-123.45c0-10.6-7.77-18.26-18.34-18.31-19-.09-38 0-57 0-13.56 0-20.67 7-20.68 20.51v123.36z"/><path d="m303.77 463.8h-95.77v-5.36-118c0-13.44 7.11-20.44 20.67-20.44 19 0 38-.06 57 0 10.57.05 18.32 7.71 18.34 18.31.073 41.146.073 82.296 0 123.45-.01.49-.12.99-.24 2.04z"/></g></svg>