<svg fill="none" height="24" viewBox="0 0 24 24" width="24" xmlns="http://www.w3.org/2000/svg"><g fill="#000"><path d="m11.4377 0h1.125c.075.0164062.1495.0365625.2255.046875.4847.073125.9806.101719 1.4531.222187 3.6534.932348 6.1167 3.180468 7.3214 6.756098.5297 1.57125.6586 3.18754.2236 4.81404-.4012 1.5-1.0631 2.8931-1.8047 4.2497-1.1053 2.0222-2.385 3.9338-3.75 5.7881-.7228.9844-1.6912 1.6275-2.8753 1.9327-.323.083-.6562.128-.9844.1903h-.7936c-.0492-.0203-.1002-.036-.1523-.0469-1.46157-.1622-2.68126-.7997-3.56251-1.9687-.82593-1.0955-1.59375-2.2374-2.34375-3.3881-1.15406-1.7733-2.19422-3.6094-2.94234-5.6007-.50813-1.3519-.74344-2.7342-.54797-4.1756.22969-1.69828.81422-3.26109 1.83422-4.64812 1.64125-2.22813 3.82875-3.57188 6.56245-4.031255.3347-.0553125.6741-.09375 1.0116-.140625zm8.4797 9.9375c-.0581-.45562-.0937-.915-.1781-1.36641-.7547-4.11796-4.7953-7.01062-8.911-6.3075-3.18746.54375-5.32121 2.39954-6.35434 5.46516-.43687 1.29656-.53625 2.63295-.0675 3.95245.25164.7287.54222 1.4433.87047 2.1408 1.15313 2.3907 2.61844 4.5938 4.19016 6.7252 1.28671 1.7447 3.82221 1.7189 5.09391-.0347.6641-.9156 1.3056-1.8472 1.9247-2.7947 1.0781-1.6458 2.0808-3.3347 2.8059-5.1722.3305-.8362.607-1.6879.6258-2.6081z"/><path d="m11.9762 13.9791c-1.0567-.008-2.06695-.4355-2.8085-1.1884-.74154-.7529-1.15363-1.7695-1.14561-2.8262.00802-1.05672.43549-2.06697 1.18837-2.80852.75289-.74154 1.76954-1.15363 2.82624-1.14561 2.1839.01312 3.9609 1.81875 3.9464 4.00873-.0003.5239-.1046 1.0425-.3066 1.5259-.2021.4834-.498.9218-.8706 1.2901s-.8146.659-1.3003.8554c-.4857.1963-1.0055.2944-1.5294.2886zm.0094-1.9711c.2642.0012.5261-.0496.7706-.1496.2446-.1.467-.2472.6547-.4332s.3369-.4071.4391-.6507.1554-.505.1566-.7692c.0012-.26422-.0496-.52607-.1496-.77062s-.2472-.46701-.4332-.65468-.4071-.33687-.6507-.43909c-.2436-.10221-.505-.15544-.7692-.15664-1.0946-.00844-2.01564.90562-2.0208 2.00672-.00038.53251.21 1.04361.5852 1.42151.3752.378.8848.592 1.4173.5955z"/></g></svg>