<svg width="24" height="24" viewBox="0 0 24 24" fill="none" xmlns="http://www.w3.org/2000/svg">
<path d="M11.4375 0H12.5625C12.6375 0.0164062 12.712 0.0365625 12.788 0.046875C13.2727 0.12 13.7686 0.148594 14.2411 0.269062C17.8945 1.20141 20.3578 3.44953 21.5625 7.02516C22.0922 8.59641 22.2211 10.2127 21.7861 11.8392C21.3849 13.3392 20.723 14.7323 19.9814 16.0889C18.8761 18.1111 17.5964 20.0227 16.2314 21.877C15.5086 22.8614 14.5402 23.5045 13.3561 23.8097C13.0331 23.8927 12.6999 23.9377 12.3717 24H11.5781C11.5289 23.9797 11.4779 23.964 11.4258 23.9531C9.96423 23.7909 8.74454 23.1534 7.86329 21.9844C7.03736 20.8889 6.26954 19.747 5.51954 18.5963C4.36548 16.823 3.32532 14.9869 2.5772 12.9956C2.06907 11.6437 1.83376 10.2614 2.02923 8.82C2.25892 7.12172 2.84345 5.55891 3.86345 4.17188C5.5047 1.94375 7.6922 0.6 10.4259 0.140625C10.7606 0.0853125 11.1 0.046875 11.4375 0ZM19.9172 9.9375C19.8591 9.48188 19.8235 9.0225 19.7391 8.57109C18.9844 4.45313 14.9438 1.56047 10.8281 2.26359C7.64064 2.80734 5.50689 4.66313 4.47376 7.72875C4.03689 9.02531 3.93751 10.3617 4.40626 11.6812C4.6579 12.4099 4.94848 13.1245 5.27673 13.822C6.42986 16.2127 7.89517 18.4158 9.46689 20.5472C10.7536 22.2919 13.2891 22.2661 14.5608 20.5125C15.2249 19.5969 15.8664 18.6653 16.4855 17.7178C17.5636 16.072 18.5663 14.3831 19.2914 12.5456C19.6219 11.7094 19.8984 10.8577 19.9172 9.9375Z" fill="#24356F"/>
<path d="M11.9761 13.9791C10.9194 13.9711 9.90915 13.5436 9.1676 12.7907C8.42606 12.0378 8.01397 11.0212 8.02199 9.9645C8.03001 8.90778 8.45748 7.89753 9.21036 7.15598C9.96325 6.41444 10.9799 6.00235 12.0366 6.01037C14.2205 6.02349 15.9975 7.82912 15.983 10.0191C15.9827 10.543 15.8784 11.0616 15.6764 11.545C15.4743 12.0284 15.1784 12.4668 14.8058 12.8351C14.4332 13.2034 13.9912 13.4941 13.5055 13.6905C13.0198 13.8868 12.5 13.9849 11.9761 13.9791ZM11.9855 12.008C12.2497 12.0092 12.5116 11.9584 12.7561 11.8584C13.0007 11.7584 13.2231 11.6112 13.4108 11.4252C13.5985 11.2392 13.7477 11.0181 13.8499 10.7745C13.9521 10.5309 14.0053 10.2695 14.0065 10.0053C14.0077 9.74108 13.9569 9.47923 13.8569 9.23468C13.7569 8.99013 13.6097 8.76767 13.4237 8.58C13.2377 8.39233 13.0166 8.24313 12.773 8.14091C12.5294 8.0387 12.268 7.98547 12.0038 7.98427C10.9092 7.97583 9.98816 8.88989 9.983 9.99099C9.98262 10.5235 10.193 11.0346 10.5682 11.4125C10.9434 11.7905 11.453 12.0045 11.9855 12.008Z" fill="#24B9EC"/>
</svg>
