<svg fill="none" height="24" viewBox="0 0 24 24" width="24" xmlns="http://www.w3.org/2000/svg"><g fill="#000"><path d="m24 5.62508v12.75002c-.0205.057-.0361.1157-.0469.1753-.2343 2.4408-2.3615 4.4151-4.8309 4.4241-4.74.0178-9.48017.0178-14.22048 0-2.15625-.0057-4.078126-1.486-4.673908-3.5569-.097968-.3394-.152812-.6947-.227812-1.0425v-12.75002c.0204695-.05704.0361487-.11568.046875-.17531.231562-2.44407 2.380315-4.42032 4.853905-4.42594 4.72469-.01094 9.44942-.01094 14.17402 0 2.1741.00422 4.1072 1.48406 4.7054 3.58031.0956.33234.1476.67875.2198 1.02094zm-22.02047 1.85344v.39656 9.77112c0 .2029.00844.4059.02297.6093.11156 1.5272 1.41047 2.7521 2.93953 2.7535 4.70906.0037 9.41847.0037 14.12817 0 .2104-.0008.4201-.0269.6243-.0778 1.4189-.3525 2.3194-1.5239 2.3218-3.038.0059-3.375.0059-6.7492 0-10.12265 0-.07453-.0085-.1486-.0132-.22313l-.1026-.08015c-.0441.08296-.0708.18234-.1341.24609-2.092 2.09391-4.1719 4.19904-6.2873 6.27004-1.2657 1.2393-2.8055 1.6584-4.5469 1.3125-1.12267-.2241-2.00064-.8541-2.79189-1.6533-1.96875-1.9875-3.95062-3.95768-5.92781-5.93487-.05625-.06703-.11766-.12093-.23297-.22921zm10.02467-4.48829c-2.35826 0-4.71701-.01968-7.07482.00844-1.215.01406-2.08782.63563-2.64704 1.70813-.0689.13218-.05625.21515.0511.32203 2.50968 2.50375 5.01812 5.00877 7.52531 7.51497.65955.6563 1.46675.9507 2.40285.8747.7575-.0614 1.3907-.382 1.9218-.9131 2.4819-2.4778 4.9627-4.95548 7.4424-7.43298.1406-.14062.1617-.25078.0675-.42187-.5864-1.05563-1.4667-1.64907-2.6846-1.65703-2.3348-.0136-4.6696-.00329-7.0045-.00329z"/><path d="m8.11875 13.6359c.79125.7997 1.66922 1.4297 2.79185 1.6538 1.74.3473 3.2813-.0713 4.5469-1.3125 2.1145-2.071 4.1953-4.1761 6.2873-6.27001.0201-.02128.0373-.04506.0511-.07077v-2.22658c.0002-.14454-.0513-.28438-.1453-.39422-.0156.01924-.0324.03754-.0501.05485-2.4841 2.47406-4.9647 4.95173-7.4419 7.43293-.5316.5311-1.1644.8518-1.9219.9132-.9375.0759-1.7437-.2185-2.40279-.8747-2.51313-2.5-5.02157-5.00502-7.52532-7.51503-.00328-.00328-.00562-.00656-.0089-.00937-.09283.10963-.14367.24869-.14344.39234v2.25469l.03609.03516c1.97579 1.97859 3.95954 3.94921 5.92641 5.93621z"/></g></svg>