<svg fill="none" height="24" viewBox="0 0 24 24" width="24" xmlns="http://www.w3.org/2000/svg" xmlns:xlink="http://www.w3.org/1999/xlink"><mask id="a" height="12" maskUnits="userSpaceOnUse" width="18" x="3" y="6"><path d="m21 6h-18v12h18z" fill="#fff"/></mask><g mask="url(#a)"><path d="m20.9612 16.3646c-.3691-2.1672-2.7461-3.4281-4.8603-2.5726-.1061.0429-.1575.0278-.2307-.053-1.2009-1.3048-2.7099-1.8823-4.5084-1.683-1.3058.1447-2.38877.7326-3.24358 1.6953-.06654.0756-.11497.0832-.20298.046-.4181-.1755-.86849-.269-1.32473-.275-.80092-.016-1.58355.231-2.21851.7002-.63495.4692-1.08423 1.1324-1.27356 1.8801-.03387.1323-.02855.2749-.09844.3991v.5066c.01168.0113.02223.0235.0315.0367.10493.1811.2701.2659.44197.2256.18978-.0442.29531-.1823.30692-.3971.00783-.1739.02882-.3471.0628-.5181.315-1.5374 2.08288-2.4812 3.60804-1.9289.11339.0411.12304.0717.06575.1727-.39236.6917-.58234 1.4371-.60734 2.2216-.00551.1533.03052.2887.16832.3832.25436.1755.58037.028.61562-.2887.02539-.2286.01968-.4603.05748-.6883.43311-2.568 3.24694-4.1165 5.78994-3.1861 1.6086.5892 2.7042 2.07 2.7534 3.7246.003.1012.0034.2033.0494.2971.0736.1497.261.2424.4207.2109.2009-.0398.3308-.2011.3257-.4212-.0198-.7971-.2093-1.5531-.6084-2.2548-.0591-.1032-.0449-.1323.0674-.1725 1.0056-.3592 2.2193-.0743 2.9393.6914.4701.4999.7067 1.0867.7317 1.7565.009.2392.1589.3996.3762.4047.2022.0049.3138-.1176.4036-.2693v-.4728c-.0624-.0459-.0291-.114-.0388-.1709z" fill="#5c5b5b"/><g fill="#969696"><path d="m11.9998 11.2663c1.509 0 2.7418-1.1869 2.742-2.6392 0-1.44034-1.2336-2.62615-2.7332-2.6271-1.5144 0-2.74921 1.17844-2.75079 2.6271-.00157 1.4487 1.23439 2.6392 2.74199 2.6392zm-.1037-4.50822c.2587-.01316.5177.02326.7617.10714.2439.08388.4681.21355.6594.38145.1914.16791.346.3707.4549.59655.109.22586.17.47028.1796.71903.045 1.04153-.8126 1.90045-1.8399 1.93955-1.0329.0728-2.0041-.70174-2.0636-1.77448-.05547-1.00144.7463-1.90986 1.8479-1.96924z"/><path d="m6.58065 12.7623c1.08082 0 1.94449-.8309 1.94901-1.8721.00078-.2473-.0493-.4923-.14739-.7209-.09807-.22869-.24222-.43648-.42414-.61149-.18192-.175-.39804-.31376-.63594-.40831-.23791-.09456-.49293-.14304-.75039-.14266-1.06684 0-1.95177.85093-1.95315 1.87626-.00157 1.0381.87686 1.88 1.962 1.8792zm0-3.00361c.2311.00102.45672.06762.64854.19143.1918.12378.34123.29928.42952.50448.08828.2051.11148.4307.06668.6485-.04482.2177-.15562.4179-.31851.5754-.1629.1574-.3706.2651-.59703.3096-.22642.0444-.46146.0235-.67558-.06-.21413-.0835-.39778-.2259-.52789-.4093-.13011-.1835-.20088-.3998-.2034-.6217-.00807-.6178.53509-1.14352 1.17689-1.13841z"/><path d="m17.4888 12.7631c.2561-.0007.5095-.0499.7458-.1448.2362-.0949.4507-.2336.6311-.4081s.3233-.3815.4204-.609c.0972-.2276.1467-.4713.1457-.7173-.0056-1.04266-.886-1.88356-1.9664-1.87752-1.0737.00624-1.9567.86777-1.9473 1.90042.0095 1.0277.8952 1.8622 1.9707 1.8563zm-.0021-3.00393c.2311.00173.4566.06905.648.19352.1914.12451.3402.30051.4278.50601.0875.2055.1098.4313.0642.6489-.0458.2177-.1575.4175-.3211.5743-.1636.1569-.3719.2637-.5985.3072-.2267.0435-.4617.0216-.6755-.0629s-.3968-.2278-.5259-.4119c-.1293-.1841-.1989-.4008-.2002-.6228-.0005-.6237.5401-1.14216 1.1812-1.13233z"/></g></g></svg>