<svg width="24" height="16" viewBox="0 0 24 16" fill="none" xmlns="http://www.w3.org/2000/svg">
<path d="M23.9483 13.8195C23.4561 10.9299 20.2868 9.24865 17.4679 10.3893C17.3264 10.4465 17.2579 10.4264 17.1602 10.3187C15.559 8.579 13.547 7.80899 11.1491 8.07474C9.40801 8.26762 7.96404 9.05149 6.82429 10.3351C6.73557 10.4359 6.671 10.446 6.55366 10.3964C5.99619 10.1624 5.39566 10.0377 4.78735 10.0298C3.71945 10.0084 2.67595 10.3378 1.82934 10.9633C0.982728 11.5889 0.383689 12.4732 0.131247 13.4701C0.0860977 13.6466 0.093185 13.8367 0 14.0023V14.6778C0.0155777 14.6928 0.0296402 14.7091 0.0419988 14.7267C0.181908 14.9682 0.402139 15.0812 0.631296 15.0275C0.884339 14.9685 1.02504 14.7844 1.04052 14.498C1.05096 14.2661 1.07895 14.0352 1.12426 13.8072C1.54425 11.7573 3.90143 10.499 5.93497 11.2354C6.08616 11.2902 6.09903 11.331 6.02264 11.4656C5.49949 12.3879 5.24619 13.3818 5.21285 14.4277C5.2055 14.6321 5.25354 14.8127 5.43728 14.9387C5.77642 15.1727 6.21111 14.976 6.2581 14.5537C6.29196 14.2489 6.28435 13.94 6.33474 13.636C6.91223 10.212 10.664 8.14735 14.0547 9.38783C16.1995 10.1735 17.6603 12.1479 17.7259 14.354C17.7298 14.4889 17.7304 14.6251 17.7918 14.7501C17.8899 14.9498 18.1398 15.0734 18.3527 15.0313C18.6205 14.9783 18.7937 14.7632 18.7869 14.4698C18.7606 13.407 18.5079 12.399 17.9758 11.4634C17.897 11.3257 17.9159 11.2869 18.0656 11.2334C19.4064 10.7544 21.0246 11.1343 21.9846 12.1552C22.6114 12.8218 22.9269 13.6042 22.9603 14.4972C22.9723 14.8162 23.1721 15.03 23.4619 15.0368C23.7315 15.0434 23.8803 14.88 24 14.6778V14.0474C23.9168 13.9862 23.9612 13.8954 23.9483 13.8195Z" fill="#24356F"/>
<path d="M11.9995 7.02175C14.0115 7.02175 15.6553 5.43914 15.6555 3.5028C15.6555 1.58235 14.0107 0.00126064 12.0113 0C9.99197 0 8.34561 1.57126 8.34351 3.5028C8.34141 5.43435 9.98934 7.02175 11.9995 7.02175ZM11.8612 1.01078C12.2062 0.993225 12.5515 1.04178 12.8768 1.15363C13.2021 1.26547 13.501 1.43836 13.7561 1.66223C14.0112 1.8861 14.2174 2.15649 14.3626 2.45763C14.5079 2.75877 14.5893 3.08467 14.6021 3.41633C14.662 4.80504 13.5186 5.95021 12.1489 6.0024C10.7716 6.09946 9.47669 5.06675 9.39742 3.63643C9.3234 2.30117 10.3925 1.08995 11.8612 1.01078Z" fill="#24B9EC"/>
<path d="M4.77421 9.01646C6.2153 9.01646 7.36686 7.9086 7.37289 6.52038C7.37393 6.19064 7.30715 5.86395 7.17637 5.55908C7.0456 5.2542 6.85341 4.97714 6.61085 4.7438C6.36829 4.51047 6.08013 4.32545 5.76292 4.19938C5.44571 4.07331 5.10569 4.00867 4.7624 4.00917C3.33995 4.00917 2.16004 5.14375 2.15821 6.5108C2.15611 7.89499 3.32735 9.01747 4.77421 9.01646ZM4.77421 5.01164C5.08234 5.013 5.38317 5.1018 5.63892 5.26688C5.89466 5.43196 6.0939 5.66595 6.21162 5.93947C6.32933 6.21298 6.36026 6.51381 6.30052 6.80416C6.24077 7.09451 6.09303 7.36142 5.87584 7.57136C5.65865 7.7813 5.38171 7.9249 5.07981 7.98412C4.77791 8.04334 4.46453 8.01554 4.17903 7.90421C3.89353 7.79288 3.64866 7.60298 3.47518 7.35839C3.3017 7.11379 3.20734 6.8254 3.20398 6.52946C3.19322 5.70575 3.91743 5.00483 4.77316 5.01164H4.77421Z" fill="#24B9EC"/>
<path d="M19.3187 9.0172C19.6601 9.01618 19.998 8.95054 20.313 8.82405C20.628 8.69755 20.914 8.51267 21.1545 8.27998C21.3951 8.04728 21.5856 7.77133 21.7151 7.4679C21.8446 7.16447 21.9106 6.8395 21.9093 6.51156C21.9019 5.12133 20.728 4.00012 19.2875 4.00818C17.8558 4.0165 16.6785 5.1652 16.6911 6.54207C16.7037 7.91238 17.8847 9.02502 19.3187 9.0172ZM19.3158 5.0119C19.624 5.0142 19.9246 5.10397 20.1799 5.26993C20.4351 5.43589 20.6335 5.67062 20.7502 5.94462C20.8669 6.21862 20.8967 6.51965 20.8358 6.80984C20.7748 7.10004 20.6259 7.36645 20.4077 7.57557C20.1896 7.7847 19.9119 7.9272 19.6097 7.98515C19.3074 8.0431 18.9941 8.01392 18.7091 7.90128C18.424 7.78864 18.18 7.59757 18.0078 7.35209C17.8355 7.10661 17.7426 6.81768 17.7409 6.52164C17.7403 5.69013 18.4611 4.99879 19.3158 5.0119Z" fill="#24B9EC"/>
</svg>
