<svg fill="none" height="24" viewBox="0 0 24 24" width="24" xmlns="http://www.w3.org/2000/svg"><path d="m6.0791 22.5c.00035-.3977.15862-.7789.44-1.06l7.672-7.672c.2322-.2321.4164-.5078.5421-.8111.1257-.3034.1904-.6285.1904-.9569 0-.3283-.0647-.6535-.1904-.9568-.1257-.3034-.3099-.579-.5421-.8112l-7.662-7.66698c-.27324-.28291-.42443-.66181-.42101-1.0551.00342-.3933.16117-.769519.43928-1.047631s.65433-.4358654 1.04763-.4392831c.39329-.0034176.7722.1477741 1.0551.4210111l7.662 7.661003c1.0302 1.03226 1.6089 2.43108 1.6089 3.88948s-.5787 2.8573-1.6089 3.8895l-7.672 7.672c-.20948.2096-.47636.3525-.76695.4106-.2906.0581-.59189.0288-.86586-.0842-.27397-.1129-.50834-.3045-.67353-.5506-.16519-.246-.25381-.5354-.25466-.8318z" fill="#000"/></svg>