<svg width="24" height="24" viewBox="0 0 24 24" fill="none" xmlns="http://www.w3.org/2000/svg">
<path d="M6.07901 22.5C6.07936 22.1023 6.23763 21.7211 6.51901 21.44L14.191 13.768C14.4232 13.5359 14.6074 13.2602 14.7331 12.9569C14.8588 12.6535 14.9235 12.3284 14.9235 12C14.9235 11.6717 14.8588 11.3465 14.7331 11.0432C14.6074 10.7398 14.4232 10.4642 14.191 10.232L6.52901 2.56502C6.25577 2.28211 6.10458 1.90321 6.108 1.50992C6.11142 1.11662 6.26917 0.740401 6.54728 0.462289C6.82539 0.184177 7.20161 0.0264236 7.59491 0.0230059C7.9882 0.0195883 8.36711 0.17078 8.65001 0.444017L16.312 8.10502C17.3422 9.13728 17.9209 10.5361 17.9209 11.9945C17.9209 13.4529 17.3422 14.8518 16.312 15.884L8.64001 23.556C8.43053 23.7656 8.16365 23.9085 7.87306 23.9666C7.58246 24.0247 7.28117 23.9954 7.0072 23.8824C6.73323 23.7695 6.49886 23.5779 6.33367 23.3318C6.16848 23.0858 6.07986 22.7964 6.07901 22.5Z" fill="#374957"/>
</svg>
