<svg fill="none" height="33" viewBox="0 0 35 33" width="35" xmlns="http://www.w3.org/2000/svg" xmlns:xlink="http://www.w3.org/1999/xlink"><clipPath id="a"><path d="m0 0h35v33h-35z"/></clipPath><g clip-path="url(#a)" fill="#000"><path d="m35 23.6967c0-.2866-.0648-.3611-.3776-.3583-1.6207.0172-3.242.0079-4.897.0079.1479-.3318.1936-.6536.1906-.9882-.008-1.3372.0041-2.6745-.01-4.0131-.0022-.2462.0587-.3114.3255-.3085 1.3043.0147 2.6094 0 3.9138.0122.2328 0 .2881-.0592.2873-.2731-.0091-1.9449-.0091-3.8899 0-5.8351 0-.215-.0564-.2755-.2885-.2723-.9526.0129-1.9052 0-2.856.0097-.2008.0021-.2572-.0524-.2511-.2387.0137-.4525.0054-.9061.0042-1.3591-.006-.98737-.3354-1.94905-.9435-2.75408s-1.4652-1.4143-2.4547-1.74485c-.1346-.04479-.2896-.04407-.4085-.14332 1.4434-1.46908 1.1778-3.39573-.0141-4.511873-1.2327-1.151258-3.2169-1.242986-4.5392-.196713-.695.548936-1.1142 1.250866-1.2125 2.095766-.1234 1.06132.2702 1.96391 1.0914 2.72318-.7069.1684-1.3654.3601-1.9853.64818-1.4359.66647-2.858 1.35944-4.306 2.00655-.7849.35008-1.4861.91728-2.4315.89758-.1074-.00215-.2172.07166-.325.11573l-3.81591 1.48735c-.60664.2365-1.2129.4737-1.88203.7353 1.14698-1.59668.67675-3.43554-.67028-4.41086-1.39237-1.00794-3.31289-.85314-4.52656.3515-1.33636 1.32576-1.21366 2.95856.36201 4.70826-1.92243.9574-2.9676637 2.4121-2.97223633 4.4638-.00889129 4.8184-.00965346 9.6366-.00228639 14.4547 0 1.0642.87642772 1.8908 1.99863272 1.8908 10.88366 0 21.76756.0021 32.65146.0061.274 0 .343-.0613.343-.3225-.0099-2.9608-.0093-5.9222.0019-8.884zm-3.958-10.362c.0171-.5955.0171-.5955.6409-.5955.423 0 .8467.0129 1.2693-.005.2568-.0108.3597.034.3555.3131-.0194 1.2154-.0148 2.4312-.0023 3.6469.0023.2261-.0476.2971-.3025.2931-1.0338-.015-2.0684-.0061-3.1029-.0061-1.0346 0-2.0688-.0057-3.103.0047-.2103.0021-.2774-.0387-.2751-.2508.0117-1.2486.0117-2.4975 0-3.7465 0-.2061.0572-.2867.2736-.2509.0235.0018.047.0018.0705 0 .2461.0029.5556-.0784.7213.0316.181.12.0484.43.0694.6557.0762.837.8501 1.4558 1.7932 1.4332.8383-.0186 1.5688-.7198 1.5921-1.5235zm-3.9546 4.9447c-.0031-.1892.0571-.244.2553-.2372.3986.014.8002.01 1.1976 0 .1666-.0036.2504.0165.2493.2082-.0088 1.4354 0 2.8711-.0088 4.3065-.0054.2073-.097.4043-.2551.5489-.1581.1445-.3701.225-.5906.2242-.2205-.0007-.4319-.0827-.5889-.2283-.1569-.1456-.247-.3432-.2508-.5505-.0122-.7166-.0031-1.4354-.0031-2.1531-.0003-.7066.0065-1.4132-.0049-2.1187zm-2.2654-17.21691c.5988-.0003 1.1734.22204 1.5986.61854.4252.39649.6663.93498.671 1.49802.0038 1.17239-1.0289 2.12765-2.2997 2.12694-1.1881 0-2.2067-.96744-2.2139-2.10294-.0084-1.16845 1.0067-2.13626 2.244-2.14056zm-9.2055 8.65862c2.207-1.00327 4.3059-2.23407 6.6353-2.97757 1.5189-.4848 3.1197-.5475 4.6912-.23004 1.6987.34326 2.9341 1.83814 2.9653 3.47563.0199 1.07167.0073 2.14377.0038 3.21587 0 .3644-.2198.5887-.5555.5923-.3521.0039-.5689-.2225-.5716-.6117-.0034-.8957.0038-1.7915-.0027-2.6855-.0076-1.04485-.4009-1.95282-1.1161-2.74755-.1379-.15336-.2225-.13975-.3536-.00323-.1803.18883-.4706.33395-.5445.54929-.074.21535.2534.37659.381.57653.4325.66789.5312 1.39746.5083 2.15956-.019.6417-.0038.6421-.6977.6421-.4233 0-.8474.0165-1.2693-.0061-.2602-.014-.3014.0749-.2995.2963.0111 1.3702-.0023 2.7404.0126 4.1106.0027.2483-.0793.3382-.3292.3909-.5122.1075-1.0155.2533-1.5243.382-.6737.1705-.9762.5374-.9766 1.1913v4.3761c0 .5586-.3536.9377-.8593.9291-.4954-.0082-.8314-.3784-.8326-.9208-.0015-1.0389-.0015-2.078 0-3.1174 0-1.0169 0-2.0335 0-3.0499 0-.7059.3254-1.2222 1.0026-1.5408.7007-.3282 1.3958-.6675 2.1015-.986.2039-.0921.2907-.1896.2888-.4178-.0129-1.6905-.0129-3.3813 0-5.0723 0-.23111-.0621-.27339-.3048-.29417-.6829-.05841-1.2727.13293-1.8702.4228-1.8493.89579-3.7161 1.76147-5.5779 2.63507-.5438.2551-1.0254.1075-1.2194-.363-.1429-.3601-.0488-.75605.3144-.92159zm8.0879 12.01999c.0053-1.1921.0076-2.3846-.0042-3.5767 0-.1899.0556-.2716.2465-.315.4081-.0924.8147-.1931 1.216-.3096.1905-.0555.2686-.0218.2351.167-.0469.2641.0411.3942.3471.3393.2469-.0451.2195.1154.2191.2613v3.8085c0 .4074-.0263.8169.1944 1.224h-2.6293c.2465-.5246.173-1.0653.1753-1.5988zm-8.0887-9.4577c.0861-.0774.1768-.0903.2873-.082.4104.0308.7823-.0817 1.1462-.2537 1.9528-.9216 3.9079-1.8396 5.8652-2.75402.0614-.02867.1235-.05554.2287-.10176 0 1.24158-.0038 2.43648.0042 3.62828 0 .1705-.0633.2508-.2222.3225-.4954.2207-.9843.4586-1.4762.6879-1.1275.5264-1.6991 1.3727-1.6946 2.5634.0061 1.8568.0001 3.7132.0035 5.5696 0 .4923-.0701.9932.1955 1.4831h-2.5828c-1.81 0-3.6201.0039-5.4301-.0047-.1032-.0041-.2062.0127-.3019.0492-.0958.0364-.1821.0918-.2533.1622-.3776.3479-.7731.6779-1.1637 1.0173-.1109-.0606-.0553-.1591-.0556-.2355-.005-.8599 0-1.7238-.0039-2.5859-.0012-.7025-.29879-1.3758-.82748-1.8721-.52868-.4963-1.24522-.7751-1.99229-.7751-.56549-.0022-.56549-.0022-.56549-.5307 0-.6632.01487-1.3257-.00762-1.989-.008-.2483.07888-.3644.31323-.4658 2.66739-1.1705 5.33215-2.3462 7.99415-3.5272.1905-.0856.3853-.1673.5392-.306zm-12.7886-2.74108c.00343-1.16452 1.02885-2.11906 2.27414-2.11405 1.22243.00645 2.23604.96315 2.23947 2.11405.00343 1.16628-1.01818 2.13048-2.25776 2.13048-1.23957 0-2.25928-.9631-2.25585-2.13048zm0 15.95998c0 1.8238.00381 3.6476-.00228 5.4714 0 .6729-.67904 1.071-1.25749.7496-.32618-.181-.43592-.4626-.43516-.8109.00533-2.2215.00622-4.443.00267-6.6646v-1.4386c.49537.3257.98198.5088 1.51888.5303.21949.009.173.1272.17338.2397.00077.6409.00064 1.2819-.00038 1.9231zm-1.69264-4.8828c-.00229-1.3701-.00229-2.7402 0-4.1102.00762-2.1319 1.74637-3.8443 4.00603-3.7475 1.70904.0716 3.24164-.2978 4.75824-.9675 1.28837-.5676 2.62167-1.0455 3.93707-1.5586.0815-.0319.1593-.0982.277-.0656-.0347.4859.0865.9316.4119 1.3257.1631.1971-.0838.1878-.1581.2211-1.3066.5862-2.619 1.1627-3.9294 1.7425-1.49987.6654-2.99818 1.3336-4.50259 1.9893-.20463.0893-.29646.1792-.29379.4107.01524 1.3365.01524 2.6733 0 4.0106-.00343.2601.08078.3092.33266.2984.45727-.0193.91453-.0104 1.37447-.0043.92939.0126 1.67893.7055 1.68388 1.5766.00877 1.6576.00457 3.3148 0 4.9723 0 .5077-.36124.8743-.84442.8761s-.84442-.3673-.84594-.8736c-.00343-1.0939 0-2.1878 0-3.2818 0-.7166-.46336-1.1487-1.22814-1.1494-1.06963 0-2.13887 0-3.20811 0-1.04257-.0022-1.76924-.6858-1.77076-1.6648zm2.81714 2.9228c0-.1648.05678-.201.21987-.1989.59864.0083 1.19766.0115 1.79629 0 .20349-.0046.25074.0563.24921.2397-.00914 1.0266 0 2.0532-.00724 3.0815-.00228.3365.04611.6583.21606.9549.0644.1129.07621.1874-.0381.2835-.79717.6808-1.58862 1.3669-2.43342 2.0957.00114-2.1979.00304-4.3273-.00267-6.4564zm29.9163 8.0201c0 .2017-.0328.2795-.2786.2795-9.8716-.0067-19.7431-.0087-29.61446-.0061-.05639 0-.11431-.0057-.17414-.009.01029-.1995.10441-.3378.25035-.4636 1.04791-.903 2.09213-1.8096 3.13266-2.72.12651-.111.22635-.1354.40125-.087 1.35199.3748 2.59764-.4999 2.56484-1.831-.0118-.4726.0926-.8291.516-1.0972.1675-.1033.3161-.2314.4401-.3794.5967-.7399 1.384-.8657 2.3378-.86 6.6749.0359 13.3499.0215 20.0248.0136.3049 0 .4066.0509.4043.3652-.0167 2.2649-.0118 4.5298-.0049 6.795z"/><path d="m24.6165 26c-.554 0-.554 0-.554.5415 0 .5553 0 .5553.5398.5553.554 0 .5539 0 .5539-.5415 0-.5553 0-.5553-.5397-.5553z"/><path d="m27.6763 26c-.52 0-.5201 0-.5201.5071 0 .5897 0 .5897.5743.5897.5195 0 .5195 0 .5195-.5071 0-.5897 0-.5897-.5737-.5897z"/><path d="m30.7679 26c-.5179 0-.5179 0-.5179.5092 0 .5876 0 .5876.5758.5876.518 0 .518 0 .518-.5069 0-.5899 0-.5899-.5759-.5899z"/></g></svg>