<svg fill="none" height="512" viewBox="0 0 512 512" width="512" xmlns="http://www.w3.org/2000/svg"><g fill="#000"><path d="m183.855 3.41311h144.295c1.052.43232 2.142.76273 3.258.9867 53.639 5.62339 95.045 50.02009 95.194 102.70419.18 99.113.18 198.226 0 297.339-.07 48.234-34.582 90.352-82.368 101.065-5.301 1.194-10.693 2.063-16.033 3.079h-144.346c-1.048-.431-2.135-.762-3.247-.987-53.42-5.603-94.9946-49.812-95.1449-102.209-.2672-99.436-.2672-198.875 0-298.317.1905-48.0271 34.8609-90.0065 82.3589-100.59262 5.321-1.174 10.702-2.08158 16.033-3.06826v-.00003zm200.621 336.93089v-4.934c0-75.967 0-151.934 0-227.902.052-2.641-.126-5.281-.532-7.8925-5.772-32.8338-31.063-54.2624-65.232-54.5486-41.927-.3256-83.852-.2467-125.769 0-40.753.2073-65.815 32.8141-65.544 65.3521.621 74.477.2 148.975.2 223.453v6.421zm-257.578 41.92c.741 12.096 0 23.975 2.455 35.161 6.694 30.239 32.336 49.331 64.813 49.459 41.395.158 82.79.07 124.185 0 4.004.097 8.01-.204 11.954-.898 44.37-9.017 59.172-44.743 53.348-83.722z"/><path d="m277.046 424.684c.126 2.833-.34 5.66-1.368 8.308s-2.6 5.06-4.611 7.086c-2.014 2.027-4.43 3.625-7.095 4.696-2.666 1.071-5.528 1.593-8.406 1.53-2.879-.061-5.714-.703-8.33-1.888-2.617-1.183-4.96-2.883-6.882-4.994-1.921-2.111-3.384-4.589-4.294-7.276-.911-2.69-1.251-5.536-1.001-8.36.466-5.239 2.937-10.109 6.916-13.62 3.978-3.513 9.164-5.403 14.504-5.287 5.342.114 10.439 2.223 14.259 5.902 3.818 3.677 6.073 8.648 6.308 13.904z"/></g></svg>