<svg fill="none" height="24" viewBox="0 0 24 24" width="24" xmlns="http://www.w3.org/2000/svg"><path d="m14.5648 21.9464c.8007.0523 1.6022.095 2.4026.1504.4062.0281.5283-.0302.7111-.4002.3485-.7057.7001-1.4099 1.0406-2.1197.0629-.1372.1708-.2471.3047-.3105.7031-.3594 1.3981-.7311 2.1017-1.0867.2578-.1301.3595-.3167.3403-.6104-.0539-.8228-.0905-1.6467-.1374-2.47-.0109-.1152.0175-.2306.0802-.3267.4746-.7332.9443-1.4694 1.4161-2.205.0058-.0089.0234-.0101.0349-.015v-.4384c-.3576-.4755-.6455-.9994-.9771-1.4935-.0361-.0537-.0619-.1168-.1048-.1638-.4038-.4427-.4788-.96349-.4106-1.54884.0703-.60775.0785-1.22321.1172-1.83482.0173-.27317-.0938-.45287-.3331-.57499-.7265-.37169-1.4496-.7547-2.1764-1.12831-.0953-.04605-.1721-.12462-.2175-.22234-.3607-.74024-.7265-1.47783-1.0917-2.21614-.1563-.31556-.2843-.38229-.6281-.36133-.8222.0501-1.6451.0925-2.4673.14453-.0977.00626-.161-.04529-.2301-.09226-.6392-.43247-1.2778-.86574-1.9156-1.29982-.1045-.07082-.2093-.14092-.3138-.21125h-.2559c.0091.08768-.0661.10382-.1153.13778-.6851.47166-1.3779.93102-2.06491 1.40075-.12352.08455-.24727.1137-.39844.11057-.66727-.01373-1.33125-.09636-1.99875-.09852-.09375 0-.18352-.02048-.27516-.03277-.34711-.04576-.53343.05083-.69328.37458-.32508.6581-.65109 1.31572-.96094 1.98152-.1132.2445-.26929.40951-.50859.52658-.6293.30689-1.24828.6357-1.87101.95656-.40805.21029-.49219.37578-.42047.84309.04875.31845.03679.64124.05367.96066.02344.45093.06703.90211.06422 1.35522 0 .14284-.05368.25293-.12586.36301-.42446.64844-.81821 1.31854-1.26 1.95454-.1875.2681-.18071.501-.00633.7614.38297.5716.72141 1.1755 1.12242 1.7325.25195.35.3007.7156.24891 1.1141-.04688.363-.03727.7282-.06422 1.0917-.02344.3042-.03586.6113-.05344.917-.0143.2544.07992.4276.30094.5519.64242.3613 1.30265.6872 1.96055 1.0168.26226.1312.44531.3032.57234.5781.29391.6407.60937 1.2711.92086 1.903.19734.4008.33773.4728.76476.4126.28852-.0407.58079-.0335.87118-.053.4739-.0323.94922-.052 1.42382-.0814.09797-.0063.18165.0284.25993.0817.7231.4921 1.452.9748 2.1738 1.4694.0394.0269.0917.0481.079.1149h.256c.7534-.5118 1.5069-1.0247 2.2605-1.5386.0581-.0388.1137-.0756.1938-.0706zm-2.4487.4866c-.1052.0723-.1744.0742-.2813 0-.6286-.4352-1.2656-.859-1.89514-1.2921-.13334-.0971-.29514-.144-.4582-.1329-.75164.0467-1.50375.0831-2.25492.1353-.15914.0111-.23438-.0387-.30469-.1847-.32273-.6781-.66234-1.3475-.98789-2.0235-.07831-.1716-.2123-.3099-.37898-.3912-.62789-.3165-1.24735-.6504-1.87828-.9609-.21094-.1035-.34735-.2148-.26766-.4205.04078-.7097.06797-1.3663.1207-2.0211.02578-.3203-.03023-.5925-.21281-.8616-.40125-.5911-.77344-1.2023-1.16672-1.8001-.07031-.1082-.07289-.1805 0-.2891.3886-.5914.75539-1.1982 1.15617-1.7804.19899-.2891.24868-.58075.22125-.92281-.05484-.6911-.0764-1.38485-.12-2.07667-.00843-.13803.03633-.20066.15586-.26136.67196-.33989 1.33594-.69423 2.00742-1.03725.15384-.07573.27788-.20322.35157-.36133.33468-.68917.67968-1.37305 1.00781-2.06535.06398-.13466.13594-.17127.27375-.16236.75844.04938 1.51781.08744 2.27625.13538.17953.01132.33117-.04119.47789-.14188.62512-.4283 1.25462-.84864 1.87802-1.28031.1065-.07371.1754-.07226.2801 0 .6218.43046 1.2516.85105 1.8762 1.28079.1474.10117.2981.1532.4774.14188.7514-.04818 1.5038-.08455 2.2549-.13514.1566-.0106.2344.03373.3068.18476.3254.68556.6699 1.36149 1.0011 2.04416.0735.1582.1976.28572.3515.36132.6701.34351 1.336.69857 2.0077 1.03701.1312.06601.1687.13586.1596.28184-.049.77228-.0846 1.54528-.1296 2.3178-.0123.18931.0393.37712.1462.53182.4153.6343.8203 1.2767 1.2345 1.9105.0703.1079.0686.1804 0 .2869-.4186.6407-.8271 1.2885-1.245 1.9297-.0988.1426-.1468.3158-.136.4905.0446.758.0757 1.5175.1299 2.2737.0143.1982-.0415.2929-.2133.3784-.6548.3257-1.3001.6718-1.9514 1.005-.154.0754-.2782.203-.3516.3613-.3342.6889-.6797 1.3716-1.0101 2.0627-.0645.1352-.1362.1761-.2759.167-.7584-.0482-1.5178-.087-2.2762-.1352-.1798-.0113-.331.0417-.4779.1424-.6267.4256-1.2563.8464-1.879 1.2776z" fill="#969696"/><path d="m18.769 12.3156c-.0253-3.86622-3.0736-6.97822-6.8032-6.96497-3.72072.01325-6.78611 3.08743-6.78611 6.98057 0 3.9045 3.07031 6.9879 6.80251 6.9864 3.7631-.0142 6.8119-3.1597 6.7868-7.002zm-6.7924 6.0672c-3.24379 0-5.87957-2.7076-5.88285-6.0427-.00422-3.32922 2.63578-6.05171 5.87275-6.05604 3.244-.00434 5.9062 2.72851 5.899 6.05534-.0073 3.3269-2.6517 6.0441-5.8889 6.0434z" fill="#5c5b5b"/><path d="m14.9247 10.1717c-.1789-.0932-.3966-.0378-.5935.1532-1.0125.9821-2.0268 1.9601-3.0328 2.9509-.1462.1445-.2135.1221-.3403-.0166-.4423-.4844-.8986-.9554-1.35067-1.4304-.04385-.0474-.09285-.0895-.14602-.1255-.14343-.0944-.29601-.1019-.4439-.0147s-.24141.2221-.23649.4237c-.00586.1549.0886.2746.19313.3854.5739.608 1.14915 1.2146 1.72565 1.8197.2914.3054.5206.3132.8218.0219.8343-.8045 1.6667-1.6106 2.497-2.4182.3358-.3255.6764-.6461 1.0045-.9812.2496-.2568.1962-.6147-.0984-.7682z" fill="#6e6e6e"/></svg>