<svg width="24" height="25" viewBox="0 0 24 25" fill="none" xmlns="http://www.w3.org/2000/svg">
<path d="M14.5646 21.9463C15.3653 21.9986 16.1668 22.0413 16.9672 22.0967C17.3734 22.1248 17.4955 22.0665 17.6783 21.6965C18.0268 20.9908 18.3784 20.2866 18.7189 19.5768C18.7818 19.4396 18.8897 19.3297 19.0236 19.2663C19.7267 18.9069 20.4217 18.5352 21.1253 18.1796C21.3831 18.0495 21.4848 17.8629 21.4656 17.5692C21.4117 16.7464 21.3751 15.9225 21.3282 15.0992C21.3173 14.984 21.3457 14.8686 21.4084 14.7725C21.883 14.0393 22.3527 13.3031 22.8245 12.5675C22.8303 12.5586 22.8479 12.5574 22.8594 12.5525V12.1141C22.5018 11.6386 22.2139 11.1147 21.8823 10.6206C21.8462 10.5669 21.8204 10.5038 21.7775 10.4568C21.3737 10.0141 21.2987 9.49329 21.3669 8.90794C21.4372 8.30019 21.4454 7.68473 21.4841 7.07312C21.5014 6.79995 21.3903 6.62025 21.151 6.49813C20.4245 6.12644 19.7014 5.74343 18.9746 5.36982C18.8793 5.32377 18.8025 5.2452 18.7571 5.14748C18.3964 4.40724 18.0306 3.66965 17.6654 2.93134C17.5091 2.61578 17.3811 2.54905 17.0373 2.57001C16.2151 2.62011 15.3922 2.66251 14.57 2.71454C14.4723 2.7208 14.409 2.66925 14.3399 2.62228C13.7007 2.18981 13.0621 1.75654 12.4243 1.32246C12.3198 1.25164 12.215 1.18154 12.1105 1.11121H11.8546C11.8637 1.19889 11.7885 1.21503 11.7393 1.24899C11.0542 1.72065 10.3614 2.18001 9.67441 2.64974C9.55089 2.73429 9.42714 2.76344 9.27597 2.76031C8.6087 2.74658 7.94472 2.66395 7.27722 2.66179C7.18347 2.66179 7.0937 2.64131 7.00206 2.62902C6.65495 2.58326 6.46863 2.67985 6.30878 3.0036C5.9837 3.6617 5.65769 4.31932 5.34784 4.98512C5.23464 5.22962 5.07855 5.39463 4.83925 5.5117C4.20995 5.81859 3.59097 6.1474 2.96824 6.46826C2.56019 6.67855 2.47605 6.84404 2.54777 7.31135C2.59652 7.6298 2.58456 7.95259 2.60144 8.27201C2.62488 8.72294 2.66847 9.17412 2.66566 9.62723C2.66566 9.77007 2.61198 9.88016 2.5398 9.99024C2.11534 10.6387 1.72159 11.3088 1.2798 11.9448C1.0923 12.2129 1.09909 12.4458 1.27347 12.7062C1.65644 13.2778 1.99488 13.8817 2.39589 14.4387C2.64784 14.7887 2.69659 15.1543 2.6448 15.5528C2.59792 15.9158 2.60753 16.281 2.58058 16.6445C2.55714 16.9487 2.54472 17.2558 2.52714 17.5615C2.51284 17.8159 2.60706 17.9891 2.82808 18.1134C3.4705 18.4747 4.13073 18.8006 4.78863 19.1302C5.05089 19.2614 5.23394 19.4334 5.36097 19.7083C5.65488 20.349 5.97034 20.9794 6.28183 21.6113C6.47917 22.0121 6.61956 22.0841 7.04659 22.0239C7.33511 21.9832 7.62738 21.9904 7.91777 21.9709C8.39167 21.9386 8.86699 21.9189 9.34159 21.8895C9.43956 21.8832 9.52324 21.9179 9.60152 21.9712C10.3246 22.4633 11.0535 22.946 11.7753 23.4406C11.8147 23.4675 11.867 23.4887 11.8543 23.5555H12.1103C12.8637 23.0437 13.6172 22.5308 14.3708 22.0169C14.4289 21.9781 14.4845 21.9413 14.5646 21.9463ZM12.1159 22.4329C12.0107 22.5052 11.9415 22.5071 11.8346 22.4329C11.206 21.9977 10.569 21.5739 9.93948 21.1408C9.80614 21.0437 9.64434 20.9968 9.48128 21.0079C8.72964 21.0546 7.97753 21.091 7.22636 21.1432C7.06722 21.1543 6.99198 21.1045 6.92167 20.9585C6.59894 20.2804 6.25933 19.611 5.93378 18.935C5.85547 18.7634 5.72148 18.6251 5.5548 18.5438C4.92691 18.2273 4.30745 17.8934 3.67652 17.5829C3.46558 17.4794 3.32917 17.3681 3.40886 17.1624C3.44964 16.4527 3.47683 15.7961 3.52956 15.1413C3.55534 14.821 3.49933 14.5488 3.31675 14.2797C2.9155 13.6886 2.54331 13.0774 2.15003 12.4796C2.07972 12.3714 2.07714 12.2991 2.15003 12.1905C2.53863 11.5991 2.90542 10.9923 3.3062 10.4101C3.50519 10.121 3.55488 9.82933 3.52745 9.48727C3.47261 8.79617 3.45105 8.10242 3.40745 7.4106C3.39902 7.27257 3.44378 7.20994 3.56331 7.14924C4.23527 6.80935 4.89925 6.45501 5.57073 6.11199C5.72457 6.03626 5.84861 5.90877 5.9223 5.75066C6.25698 5.06149 6.60198 4.37761 6.93011 3.68531C6.99409 3.55065 7.06605 3.51404 7.20386 3.52295C7.9623 3.57233 8.72167 3.61039 9.48011 3.65833C9.65964 3.66965 9.81128 3.61714 9.958 3.51645C10.5831 3.08815 11.2126 2.66781 11.836 2.23614C11.9425 2.16243 12.0114 2.16388 12.1161 2.23614C12.7379 2.6666 13.3677 3.08719 13.9923 3.51693C14.1397 3.6181 14.2904 3.67013 14.4697 3.65881C15.2211 3.61063 15.9735 3.57426 16.7246 3.52367C16.8812 3.51307 16.959 3.5574 17.0314 3.70843C17.3568 4.39399 17.7013 5.06992 18.0325 5.75259C18.106 5.91079 18.2301 6.03831 18.384 6.11391C19.0541 6.45742 19.72 6.81248 20.3917 7.15092C20.5229 7.21693 20.5604 7.28678 20.5513 7.43276C20.5023 8.20504 20.4667 8.97804 20.4217 9.75056C20.4094 9.93987 20.461 10.1277 20.5679 10.2824C20.9832 10.9167 21.3882 11.5591 21.8024 12.1929C21.8727 12.3008 21.871 12.3733 21.8024 12.4798C21.3838 13.1205 20.9753 13.7683 20.5574 14.4095C20.4586 14.5521 20.4106 14.7253 20.4214 14.9C20.466 15.658 20.4971 16.4175 20.5513 17.1737C20.5656 17.3719 20.5098 17.4666 20.338 17.5521C19.6832 17.8778 19.0379 18.2239 18.3866 18.5571C18.2326 18.6325 18.1084 18.7601 18.035 18.9184C17.7008 19.6073 17.3553 20.29 17.0249 20.9811C16.9604 21.1163 16.8887 21.1572 16.749 21.1481C15.9906 21.0999 15.2312 21.0611 14.4728 21.0129C14.293 21.0016 14.1418 21.0546 13.9949 21.1553C13.3682 21.5809 12.7386 22.0017 12.1159 22.4329Z" fill="#24356F"/>
<path d="M18.769 12.3155C18.7437 8.44927 15.6954 5.33727 11.9658 5.35052C8.24508 5.36377 5.17969 8.43795 5.17969 12.3311C5.17969 16.2356 8.25 19.319 11.9822 19.3175C15.7453 19.3033 18.7941 16.1578 18.769 12.3155ZM11.9766 18.3827C8.73281 18.3827 6.09703 15.6751 6.09375 12.34C6.08953 9.01077 8.72953 6.28828 11.9665 6.28395C15.2105 6.27961 17.8727 9.01246 17.8655 12.3393C17.8582 15.6662 15.2138 18.3834 11.9766 18.3827Z" fill="#223369"/>
<path d="M14.9249 10.1718C14.746 10.0786 14.5283 10.134 14.3314 10.325C13.3189 11.3071 12.3046 12.2851 11.2986 13.2759C11.1524 13.4204 11.0851 13.398 10.9583 13.2593C10.516 12.7749 10.0597 12.3039 9.60761 11.8289C9.56376 11.7815 9.51476 11.7394 9.46159 11.7034C9.31816 11.609 9.16558 11.6015 9.01769 11.6887C8.8698 11.7759 8.77628 11.9108 8.7812 12.1124C8.77534 12.2673 8.8698 12.387 8.97433 12.4978C9.54823 13.1058 10.1235 13.7124 10.7 14.3175C10.9914 14.6229 11.2206 14.6307 11.5218 14.3394C12.3561 13.5349 13.1885 12.7288 14.0188 11.9212C14.3546 11.5957 14.6952 11.2751 15.0233 10.94C15.2729 10.6832 15.2195 10.3253 14.9249 10.1718Z" fill="#24B9EC"/>
</svg>
