<svg fill="none" height="20" viewBox="0 0 20 20" width="20" xmlns="http://www.w3.org/2000/svg" xmlns:xlink="http://www.w3.org/1999/xlink"><clipPath id="a"><path d="m0 0h20v20h-20z"/></clipPath><mask id="b" height="20" maskUnits="userSpaceOnUse" width="20" x="0" y="0"><path d="m20 0h-20v20h20z" fill="#fff"/></mask><g clip-path="url(#a)"><g mask="url(#b)"><path d="m19.7556 18.5773-4.9741-4.9742c1.3555-1.6578 2.0219-3.7732 1.8615-5.90865-.1604-2.13544-1.1355-4.12752-2.7235-5.5642-1.5881-1.436673-3.6675-2.2080215-5.80831-2.154495-2.14079.0535265-4.17912.927833-5.69336 2.442075-1.514242 1.51424-2.3885485 3.55257-2.442075 5.69336-.0535265 2.14081.717822 4.22021 2.154495 5.80831 1.43668 1.588 3.42876 2.5631 5.5642 2.7235 2.13545.1604 4.25085-.506 5.90865-1.8615l4.9742 4.9741c.1572.1518.3677.2358.5862.2339s.4275-.0895.582-.244.2421-.3635.244-.582-.0821-.429-.2339-.5862zm-11.42245-3.5775c-1.31854 0-2.60747-.391-3.7038-1.1235-1.09633-.7326-1.95081-1.7738-2.45539-2.9919-.50459-1.2182-.63661-2.55864-.37937-3.85185.25723-1.2932.89217-2.48109 1.82452-3.41344s2.12024-1.56729 3.41344-1.82452c1.29321-.25724 2.63365-.12522 3.85185.37937 1.2181.50458 2.2593 1.35906 2.9919 2.45539.7325 1.09633 1.1235 2.38526 1.1235 3.7038-.002 1.76745-.705 3.46205-1.9548 4.71185s-2.9444 1.9528-4.71185 1.9548z" fill="#000"/></g></g></svg>