<svg width="36" height="36" viewBox="0 0 36 36" fill="none" xmlns="http://www.w3.org/2000/svg">
<path d="M0 27.4922C0.0892969 27.0837 0.130078 26.6562 0.28125 26.2715C0.527509 25.6046 0.823903 24.9573 1.16789 24.3351C4.88039 17.88 8.6018 11.4286 12.3321 4.98092C13.3657 3.18655 14.8472 2.051 16.9024 1.64319C19.2059 1.18545 21.9769 2.26616 23.2116 4.27498C24.5883 6.51584 25.8834 8.80733 27.2018 11.084C29.7954 15.5672 32.3859 20.0522 34.9734 24.539C35.5027 25.4481 35.8513 26.4508 36 27.4922V28.5469C35.9762 28.6119 35.9574 28.6786 35.9438 28.7465C35.5437 31.9985 32.8704 34.4369 29.6002 34.4454C21.8475 34.4655 14.0948 34.4655 6.34219 34.4454C3.60633 34.4404 1.22906 32.696 0.365625 30.1043C0.195469 29.6015 0.118828 29.0693 0 28.5469V27.4922ZM17.9648 31.5534C21.7378 31.5534 25.5108 31.5675 29.2852 31.5387C29.8798 31.5396 30.469 31.4258 31.0205 31.2033C32.8106 30.4453 33.7141 28.125 32.5322 26.1042C29.5791 21.0572 26.6773 15.9792 23.7516 10.9167C22.8037 9.27631 21.8827 7.61905 20.8828 6.011C20.1523 4.83537 19.0118 4.35162 17.6372 4.481C16.3371 4.60334 15.4688 5.34373 14.8317 6.44764C11.7877 11.7394 8.73586 17.0264 5.67633 22.3087C4.86984 23.7058 4.03242 25.0882 3.27938 26.5141C2.51719 27.9569 2.93695 29.7225 4.19344 30.7645C4.9057 31.3537 5.74031 31.5562 6.64383 31.5562L17.9648 31.5534Z" fill="#24356F"/>
<path d="M19.8366 13.8811C19.6997 16.1362 19.5628 18.3914 19.4259 20.6465C19.3936 21.183 19.4133 21.7265 19.3388 22.2567C19.2952 22.5797 19.1351 22.8757 18.8885 23.0888C18.6419 23.302 18.3259 23.4176 18 23.414C17.3208 23.414 16.7344 22.9683 16.6585 22.2729C16.5488 21.3089 16.5178 20.3365 16.456 19.3676C16.342 17.5563 16.2513 15.7436 16.1142 13.9352C16.0095 12.5493 17.0086 11.4897 18.3017 11.674C18.7027 11.7395 19.0705 11.9367 19.3469 12.2345C19.6233 12.5323 19.7927 12.9138 19.8281 13.3186C19.8408 13.5056 19.8281 13.6933 19.8281 13.8811H19.8366Z" fill="#24B9EC"/>
<path d="M16.1635 26.486C16.1686 26.2433 16.2216 26.0039 16.3193 25.7816C16.4171 25.5594 16.5578 25.3586 16.7333 25.1908C16.9088 25.023 17.1157 24.8915 17.3421 24.8038C17.5685 24.7161 17.81 24.6739 18.0528 24.6797C19.047 24.698 19.8317 25.5431 19.8106 26.5781C19.8185 26.8268 19.7757 27.0745 19.6845 27.306C19.5934 27.5376 19.456 27.7481 19.2807 27.9246C19.1054 28.1012 18.8959 28.2401 18.665 28.3329C18.4341 28.4257 18.1867 28.4703 17.938 28.4641C17.6892 28.458 17.4444 28.4011 17.2184 28.2969C16.9924 28.1928 16.79 28.0437 16.6237 27.8586C16.4574 27.6735 16.3306 27.4565 16.2511 27.2207C16.1716 26.9849 16.1411 26.7354 16.1614 26.4874L16.1635 26.486Z" fill="#24B9EC"/>
</svg>
