<svg fill="none" height="36" viewBox="0 0 36 36" width="36" xmlns="http://www.w3.org/2000/svg"><g fill="#000"><path d="m0 27.4923c.0892969-.4085.130078-.836.28125-1.2207.246259-.6669.542653-1.3142.88664-1.9364 3.7125-6.4551 7.43391-12.9065 11.16421-19.35416 1.0336-1.79437 2.5151-2.92992 4.5703-3.33773 2.3035-.45774 5.0745.62297 6.3092 2.63179 1.3767 2.24086 2.6718 4.53235 3.9902 6.809 2.5936 4.4832 5.1841 8.9682 7.7716 13.455.5293.9091.8779 1.9118 1.0266 2.9532v1.0547c-.0238.065-.0426.1317-.0562.1996-.4001 3.252-3.0734 5.6904-6.3436 5.6989-7.7527.0201-15.5054.0201-23.25801 0-2.73586-.005-5.11313-1.7494-5.976565-4.3411-.170156-.5028-.246797-1.035-.365625-1.5574zm17.9648 4.0612c3.773 0 7.546.0141 11.3204-.0147.5946.0009 1.1838-.1129 1.7353-.3354 1.7901-.758 2.6936-3.0783 1.5117-5.0991-2.9531-5.047-5.8549-10.125-8.7806-15.1875-.9479-1.64037-1.8689-3.29763-2.8688-4.90568-.7305-1.17563-1.871-1.65938-3.2456-1.53-1.3001.12234-2.1684.86273-2.8055 1.96664-3.044 5.29174-6.09584 10.57874-9.15537 15.86104-.80649 1.3971-1.64391 2.7795-2.39695 4.2054-.76219 1.4428-.34243 3.2084.91406 4.2504.71226.5892 1.54687.7917 2.45039.7917z"/><path d="m19.8364 13.8813c-.1369 2.2551-.2738 4.5103-.4107 6.7654-.0323.5365-.0126 1.08-.0871 1.6102-.0436.323-.2037.619-.4503.8321-.2466.2132-.5626.3288-.8885.3252-.6792 0-1.2656-.4457-1.3415-1.1411-.1097-.964-.1407-1.9364-.2025-2.9053-.114-1.8113-.2047-3.624-.3418-5.4324-.1047-1.3859.8944-2.4455 2.1875-2.2612.401.0655.7688.2627 1.0452.5605s.4458.6793.4812 1.0841c.0127.187 0 .3747 0 .5625z"/><path d="m16.1635 26.486c.0051-.2427.0581-.4821.1558-.7044.0978-.2222.2385-.423.414-.5908s.3824-.2993.6088-.387.4679-.1299.7107-.1241c.9942.0183 1.7789.8634 1.7578 1.8984.0079.2487-.0349.4964-.1261.7279-.0911.2316-.2285.4421-.4038.6186-.1753.1766-.3848.3155-.6157.4083s-.4783.1374-.727.1312c-.2488-.0061-.4936-.063-.7196-.1672-.226-.1041-.4284-.2532-.5947-.4383s-.2931-.4021-.3726-.6379-.11-.4853-.0897-.7333z"/></g></svg>